WorkSans-Bold.ufo
<glyph name="numbersign" format="2">
  <advance width="689"/>
  <unicode hex="0023"/>
  <outline>
    <contour>
      <point x="456" y="660" type="line"/>
      <point x="350" y="0" type="line"/>
      <point x="465" y="0" type="line"/>
      <point x="572" y="660" type="line"/>
    </contour>
    <contour>
      <point x="26" y="262" type="line"/>
      <point x="26" y="160" type="line"/>
      <point x="619" y="160" type="line"/>
      <point x="619" y="262" type="line"/>
    </contour>
    <contour>
      <point x="211" y="660" type="line"/>
      <point x="105" y="0" type="line"/>
      <point x="221" y="0" type="line"/>
      <point x="327" y="660" type="line"/>
    </contour>
    <contour>
      <point x="69" y="502" type="line"/>
      <point x="69" y="400" type="line"/>
      <point x="662" y="400" type="line"/>
      <point x="662" y="502" type="line"/>
    </contour>
  </outline>
</glyph>
<glyph name="dollar" format="2">
  <advance width="638"/>
  <unicode hex="0024"/>
  <outline>
    <contour>
      <point x="376" y="-88" type="line"/>
      <point x="376" y="2" type="line"/>
      <point x="510" y="14"/>
      <point x="605" y="81"/>
      <point x="605" y="191" type="curve" smooth="yes"/>
      <point x="605" y="328"/>
      <point x="485" y="362"/>
      <point x="376" y="384" type="curve"/>
      <point x="376" y="541" type="line"/>
      <point x="442" y="534"/>
      <point x="488" y="504"/>
      <point x="526" y="443" type="curve"/>
      <point x="611" y="539" type="line"/>
      <point x="557" y="606"/>
      <point x="495" y="649"/>
      <point x="376" y="658" type="curve"/>
      <point x="376" y="748" type="line"/>
      <point x="279" y="748" type="line"/>
      <point x="279" y="658" type="line"/>
      <point x="131" y="644"/>
      <point x="47" y="563"/>
      <point x="47" y="458" type="curve" smooth="yes"/>
      <point x="47" y="323"/>
      <point x="169" y="292"/>
      <point x="279" y="270" type="curve"/>
      <point x="279" y="118" type="line"/>
      <point x="203" y="128"/>
      <point x="140" y="165"/>
      <point x="110" y="225" type="curve"/>
      <point x="25" y="126" type="line"/>
      <point x="78" y="53"/>
      <point x="155" y="10"/>
      <point x="279" y="2" type="curve"/>
      <point x="279" y="-88" type="line"/>
    </contour>
    <contour>
      <point x="376" y="249" type="line"/>
      <point x="419" y="237"/>
      <point x="451" y="221"/>
      <point x="451" y="184" type="curve" smooth="yes"/>
      <point x="451" y="147"/>
      <point x="424" y="127"/>
      <point x="376" y="120" type="curve"/>
    </contour>
    <contour>
      <point x="202" y="468" type="curve" smooth="yes"/>
      <point x="202" y="505"/>
      <point x="229" y="530"/>
      <point x="279" y="538" type="curve"/>
      <point x="279" y="404" type="line"/>
      <point x="235" y="416"/>
      <point x="202" y="432"/>
    </contour>
  </outline>
</glyph>
<glyph name="percent" format="2">
  <advance width="938"/>
  <unicode hex="0025"/>
  <outline>
    <contour>
      <point x="535" y="178" type="curve" smooth="yes"/>
      <point x="535" y="64"/>
      <point x="609" y="-10"/>
      <point x="721" y="-10" type="curve" smooth="yes"/>
      <point x="833" y="-10"/>
      <point x="907" y="64"/>
      <point x="907" y="178" type="curve" smooth="yes"/>
      <point x="907" y="292"/>
      <point x="833" y="366"/>
      <point x="721" y="366" type="curve" smooth="yes"/>
      <point x="609" y="366"/>
      <point x="535" y="292"/>
    </contour>
    <contour>
      <point x="30" y="482" type="curve" smooth="yes"/>
      <point x="30" y="368"/>
      <point x="104" y="294"/>
      <point x="216" y="294" type="curve" smooth="yes"/>
      <point x="328" y="294"/>
      <point x="402" y="368"/>
      <point x="402" y="482" type="curve" smooth="yes"/>
      <point x="402" y="596"/>
      <point x="328" y="670"/>
      <point x="216" y="670" type="curve" smooth="yes"/>
      <point x="104" y="670"/>
      <point x="30" y="596"/>
    </contour>
    <contour>
      <point x="276" y="482" type="curve" smooth="yes"/>
      <point x="276" y="435"/>
      <point x="255" y="408"/>
      <point x="216" y="408" type="curve" smooth="yes"/>
      <point x="178" y="408"/>
      <point x="157" y="435"/>
      <point x="157" y="482" type="curve" smooth="yes"/>
      <point x="157" y="529"/>
      <point x="178" y="556"/>
      <point x="216" y="556" type="curve" smooth="yes"/>
      <point x="255" y="556"/>
      <point x="276" y="529"/>
    </contour>
    <contour>
      <point x="781" y="178" type="curve" smooth="yes"/>
      <point x="781" y="131"/>
      <point x="760" y="104"/>
      <point x="721" y="104" type="curve" smooth="yes"/>
      <point x="683" y="104"/>
      <point x="661" y="131"/>
      <point x="661" y="178" type="curve" smooth="yes"/>
      <point x="661" y="225"/>
      <point x="683" y="252"/>
      <point x="721" y="252" type="curve" smooth="yes"/>
      <point x="760" y="252"/>
      <point x="781" y="225"/>
    </contour>
    <contour>
      <point x="305" y="0" type="line"/>
      <point x="764" y="661" type="line"/>
      <point x="634" y="661" type="line"/>
      <point x="175" y="0" type="line"/>
    </contour>
  </outline>
</glyph>
<glyph name="ampersand" format="2">
  <advance width="646"/>
  <unicode hex="0026"/>
  <outline>
    <contour>
      <point x="487" y="96" type="curve"/>
      <point x="561" y="151"/>
      <point x="598" y="236"/>
      <point x="598" y="336" type="curve"/>
      <point x="485" y="339" type="line"/>
      <point x="488" y="257"/>
      <point x="466" y="202"/>
      <point x="431" y="157" type="curve"/>
      <point x="387" y="123"/>
      <point x="335" y="102"/>
      <point x="274" y="102" type="curve" smooth="yes"/>
      <point x="213" y="102"/>
      <point x="171" y="134"/>
      <point x="171" y="181" type="curve" smooth="yes"/>
      <point x="171" y="227"/>
      <point x="190" y="256"/>
      <point x="286" y="313" type="curve" smooth="yes"/>
      <point x="432" y="352"/>
      <point x="491" y="422"/>
      <point x="491" y="514" type="curve" smooth="yes"/>
      <point x="491" y="601"/>
      <point x="425" y="670"/>
      <point x="293" y="670" type="curve" smooth="yes"/>
      <point x="155" y="670"/>
      <point x="92" y="585"/>
      <point x="92" y="502" type="curve" smooth="yes"/>
      <point x="92" y="418"/>
      <point x="127" y="373"/>
      <point x="313" y="182" type="curve" smooth="yes"/>
      <point x="473" y="12"/>
      <point x="519" y="-10"/>
      <point x="627" y="-10" type="curve"/>
      <point x="642" y="109" type="line"/>
      <point x="561" y="99"/>
      <point x="528" y="135"/>
      <point x="395" y="281" type="curve" smooth="yes"/>
      <point x="260" y="430"/>
      <point x="237" y="455"/>
      <point x="237" y="496" type="curve" smooth="yes"/>
      <point x="237" y="534"/>
      <point x="259" y="558"/>
      <point x="297" y="558" type="curve" smooth="yes"/>
      <point x="333" y="558"/>
      <point x="356" y="540"/>
      <point x="356" y="504" type="curve" smooth="yes"/>
      <point x="356" y="461"/>
      <point x="343" y="425"/>
      <point x="242" y="368" type="curve" smooth="yes"/>
      <point x="68" y="341"/>
      <point x="25" y="245"/>
      <point x="25" y="169" type="curve" smooth="yes"/>
      <point x="26" y="53"/>
      <point x="122" y="-10"/>
      <point x="257" y="-10" type="curve" smooth="yes"/>
      <point x="364" y="-10"/>
      <point x="443" y="31"/>
    </contour>
  </outline>
</glyph>
<glyph name="parenleft" format="2">
  <advance width="391"/>
  <unicode hex="0028"/>
  <outline>
    <contour>
      <point x="67" y="273" type="curve" smooth="yes"/>
      <point x="67" y="65"/>
      <point x="148" y="-89"/>
      <point x="301" y="-191" type="curve"/>
      <point x="381" y="-113" type="line"/>
      <point x="268" y="-11"/>
      <point x="220" y="96"/>
      <point x="220" y="273" type="curve" smooth="yes"/>
      <point x="220" y="448"/>
      <point x="268" y="556"/>
      <point x="381" y="658" type="curve"/>
      <point x="301" y="736" type="line"/>
      <point x="148" y="634"/>
      <point x="67" y="479"/>
    </contour>
  </outline>
</glyph>
<glyph name="comma" format="2">
  <advance width="290"/>
  <unicode hex="002C"/>
  <outline>
    <contour>
      <point x="42" y="78" type="curve" smooth="yes"/>
      <point x="42" y="20"/>
      <point x="86" y="-6"/>
      <point x="125" y="-6" type="curve" smooth="yes"/>
      <point x="140" y="-6"/>
      <point x="148" y="-3"/>
      <point x="156" y="5" type="curve"/>
      <point x="160" y="2" type="line"/>
      <point x="143" y="-46"/>
      <point x="97" y="-82"/>
      <point x="36" y="-105" type="curve"/>
      <point x="111" y="-158" type="line"/>
      <point x="204" y="-118"/>
      <point x="250" y="-42"/>
      <point x="250" y="43" type="curve" smooth="yes"/>
      <point x="250" y="115"/>
      <point x="215" y="172"/>
      <point x="142" y="172" type="curve" smooth="yes"/>
      <point x="83" y="172"/>
      <point x="42" y="139"/>
    </contour>
  </outline>
</glyph>
<glyph name="hyphen" format="2">
  <advance width="528"/>
  <unicode hex="002D"/>
  <outline>
    <contour>
      <point x="81" y="337" type="line"/>
      <point x="81" y="198" type="line"/>
      <point x="447" y="198" type="line"/>
      <point x="447" y="337" type="line"/>
    </contour>
  </outline>
</glyph>
<glyph name="slash" format="2">
  <advance width="468"/>
  <unicode hex="002F"/>
  <outline>
    <contour>
      <point x="295" y="712" type="line"/>
      <point x="15" y="-70" type="line"/>
      <point x="173" y="-70" type="line"/>
      <point x="453" y="712" type="line"/>
    </contour>
  </outline>
</glyph>
<glyph name="two" format="2">
  <advance width="596"/>
  <unicode hex="0032"/>
  <outline>
    <contour>
      <point x="555" y="0" type="line"/>
      <point x="555" y="131" type="line"/>
      <point x="400" y="131" type="line" smooth="yes"/>
      <point x="358" y="131"/>
      <point x="300" y="129"/>
      <point x="267" y="127" type="curve"/>
      <point x="267" y="128" type="line"/>
      <point x="446" y="231"/>
      <point x="547" y="329"/>
      <point x="547" y="458" type="curve" smooth="yes"/>
      <point x="547" y="561"/>
      <point x="473" y="670"/>
      <point x="298" y="670" type="curve" smooth="yes"/>
      <point x="150" y="670"/>
      <point x="42" y="591"/>
      <point x="39" y="445" type="curve"/>
      <point x="186" y="400" type="line"/>
      <point x="188" y="488"/>
      <point x="224" y="535"/>
      <point x="287" y="535" type="curve" smooth="yes"/>
      <point x="346" y="535"/>
      <point x="376" y="497"/>
      <point x="376" y="446" type="curve" smooth="yes"/>
      <point x="376" y="353"/>
      <point x="286" y="251"/>
      <point x="60" y="110" type="curve"/>
      <point x="60" y="0" type="line"/>
    </contour>
  </outline>
</glyph>
<glyph name="five" format="2">
  <advance width="583"/>
  <unicode hex="0035"/>
  <outline>
    <contour>
      <point x="202" y="379" type="curve"/>
      <point x="201" y="379" type="line"/>
      <point x="202" y="381"/>
      <point x="204" y="391"/>
      <point x="206" y="403" type="curve"/>
      <point x="221" y="527" type="line"/>
      <point x="508" y="527" type="line"/>
      <point x="508" y="660" type="line"/>
      <point x="96" y="660" type="line"/>
      <point x="54" y="287" type="line"/>
      <point x="184" y="268" type="line"/>
      <point x="207" y="295"/>
      <point x="244" y="307"/>
      <point x="289" y="307" type="curve" smooth="yes"/>
      <point x="356" y="307"/>
      <point x="389" y="273"/>
      <point x="390" y="214" type="curve" smooth="yes"/>
      <point x="390" y="152"/>
      <point x="350" y="120"/>
      <point x="289" y="120" type="curve" smooth="yes"/>
      <point x="218" y="120"/>
      <point x="193" y="153"/>
      <point x="181" y="208" type="curve"/>
      <point x="30" y="122" type="line"/>
      <point x="88" y="26"/>
      <point x="171" y="-10"/>
      <point x="288" y="-10" type="curve" smooth="yes"/>
      <point x="429" y="-10"/>
      <point x="545" y="64"/>
      <point x="545" y="226" type="curve" smooth="yes"/>
      <point x="545" y="342"/>
      <point x="468" y="426"/>
      <point x="338" y="426" type="curve" smooth="yes"/>
      <point x="279" y="426"/>
      <point x="229" y="409"/>
    </contour>
  </outline>
</glyph>
<glyph name="six" format="2">
  <advance width="616"/>
  <unicode hex="0036"/>
  <outline>
    <contour>
      <point x="50" y="330" type="curve" smooth="yes"/>
      <point x="50" y="108"/>
      <point x="149" y="-10"/>
      <point x="325" y="-10" type="curve" smooth="yes"/>
      <point x="486" y="-10"/>
      <point x="579" y="74"/>
      <point x="579" y="206" type="curve" smooth="yes"/>
      <point x="579" y="331"/>
      <point x="488" y="411"/>
      <point x="365" y="411" type="curve" smooth="yes"/>
      <point x="288" y="411"/>
      <point x="228" y="381"/>
      <point x="205" y="324" type="curve"/>
      <point x="203" y="324" type="line"/>
      <point x="203" y="332"/>
      <point x="203" y="335"/>
      <point x="203" y="340" type="curve" smooth="yes"/>
      <point x="203" y="461"/>
      <point x="256" y="534"/>
      <point x="329" y="534" type="curve" smooth="yes"/>
      <point x="384" y="534"/>
      <point x="416" y="505"/>
      <point x="429" y="458" type="curve"/>
      <point x="570" y="524" type="line"/>
      <point x="533" y="631"/>
      <point x="446" y="670"/>
      <point x="340" y="670" type="curve" smooth="yes"/>
      <point x="175" y="670"/>
      <point x="50" y="564"/>
    </contour>
    <contour>
      <point x="422" y="207" type="curve" smooth="yes"/>
      <point x="422" y="151"/>
      <point x="388" y="119"/>
      <point x="328" y="119" type="curve" smooth="yes"/>
      <point x="270" y="119"/>
      <point x="234" y="153"/>
      <point x="234" y="207" type="curve" smooth="yes"/>
      <point x="234" y="261"/>
      <point x="270" y="295"/>
      <point x="328" y="295" type="curve" smooth="yes"/>
      <point x="388" y="295"/>
      <point x="422" y="263"/>
    </contour>
  </outline>
</glyph>
<glyph name="eight" format="2">
  <advance width="627"/>
  <unicode hex="0038"/>
  <outline>
    <contour>
      <point x="66" y="483" type="curve" smooth="yes"/>
      <point x="66" y="414"/>
      <point x="105" y="363"/>
      <point x="171" y="338" type="curve"/>
      <point x="171" y="337" type="line"/>
      <point x="91" y="311"/>
      <point x="45" y="256"/>
      <point x="45" y="175" type="curve" smooth="yes"/>
      <point x="45" y="61"/>
      <point x="147" y="-10"/>
      <point x="313" y="-10" type="curve" smooth="yes"/>
      <point x="481" y="-10"/>
      <point x="582" y="61"/>
      <point x="582" y="175" type="curve" smooth="yes"/>
      <point x="582" y="257"/>
      <point x="535" y="311"/>
      <point x="456" y="337" type="curve"/>
      <point x="456" y="338" type="line"/>
      <point x="523" y="363"/>
      <point x="561" y="415"/>
      <point x="561" y="483" type="curve" smooth="yes"/>
      <point x="561" y="598"/>
      <point x="466" y="668"/>
      <point x="313" y="668" type="curve" smooth="yes"/>
      <point x="161" y="668"/>
      <point x="66" y="598"/>
    </contour>
    <contour>
      <point x="401" y="467" type="curve" smooth="yes"/>
      <point x="401" y="420"/>
      <point x="367" y="391"/>
      <point x="313" y="391" type="curve" smooth="yes"/>
      <point x="260" y="391"/>
      <point x="226" y="420"/>
      <point x="226" y="467" type="curve" smooth="yes"/>
      <point x="226" y="515"/>
      <point x="259" y="543"/>
      <point x="313" y="543" type="curve" smooth="yes"/>
      <point x="367" y="543"/>
      <point x="401" y="515"/>
    </contour>
    <contour>
      <point x="212" y="197" type="curve" smooth="yes"/>
      <point x="212" y="249"/>
      <point x="251" y="279"/>
      <point x="313" y="279" type="curve" smooth="yes"/>
      <point x="377" y="279"/>
      <point x="415" y="249"/>
      <point x="415" y="197" type="curve" smooth="yes"/>
      <point x="415" y="146"/>
      <point x="377" y="115"/>
      <point x="313" y="115" type="curve" smooth="yes"/>
      <point x="250" y="115"/>
      <point x="212" y="146"/>
    </contour>
  </outline>
</glyph>
<glyph name="less" format="2">
  <advance width="604"/>
  <unicode hex="003C"/>
  <outline>
    <contour>
      <point x="553" y="427" type="line"/>
      <point x="553" y="588" type="line"/>
      <point x="63" y="370" type="line"/>
      <point x="63" y="254" type="line"/>
    </contour>
    <contour>
      <point x="63" y="339" type="line"/>
      <point x="63" y="223" type="line"/>
      <point x="553" y="5" type="line"/>
      <point x="553" y="166" type="line"/>
    </contour>
  </outline>
</glyph>
<glyph name="question" format="2">
  <advance width="607"/>
  <unicode hex="003F"/>
  <outline>
    <contour>
      <point x="32" y="494" type="curve"/>
      <point x="196" y="431" type="line"/>
      <point x="201" y="498"/>
      <point x="238" y="532"/>
      <point x="296" y="532" type="curve" smooth="yes"/>
      <point x="354" y="532"/>
      <point x="382" y="506"/>
      <point x="382" y="463" type="curve" smooth="yes"/>
      <point x="382" y="410"/>
      <point x="337" y="376"/>
      <point x="210" y="366" type="curve"/>
      <point x="219" y="214" type="line"/>
      <point x="365" y="214" type="line"/>
      <point x="375" y="300" type="line"/>
      <point x="482" y="312"/>
      <point x="565" y="362"/>
      <point x="565" y="489" type="curve" smooth="yes"/>
      <point x="565" y="615"/>
      <point x="458" y="670"/>
      <point x="308" y="670" type="curve" smooth="yes"/>
      <point x="127" y="670"/>
      <point x="47" y="594"/>
    </contour>
    <component base="period" xScale="0.97" yScale="0.9400000000000001" xOffset="152"/>
  </outline>
</glyph>
<glyph name="at" format="2">
  <advance width="946"/>
  <unicode hex="0040"/>
  <outline>
    <contour>
      <point x="49" y="223" type="curve" smooth="yes"/>
      <point x="49" y="-33"/>
      <point x="221" y="-184"/>
      <point x="455" y="-184" type="curve" smooth="yes"/>
      <point x="585" y="-184"/>
      <point x="645" y="-153"/>
      <point x="702" y="-113" type="curve"/>
      <point x="659" y="-53" type="line"/>
      <point x="617" y="-85"/>
      <point x="568" y="-110"/>
      <point x="458" y="-110" type="curve" smooth="yes"/>
      <point x="287" y="-110"/>
      <point x="134" y="6"/>
      <point x="134" y="223" type="curve" smooth="yes"/>
      <point x="134" y="449"/>
      <point x="278" y="585"/>
      <point x="493" y="585" type="curve" smooth="yes"/>
      <point x="693" y="585"/>
      <point x="817" y="472"/>
      <point x="817" y="260" type="curve" smooth="yes"/>
      <point x="817" y="144"/>
      <point x="777" y="86"/>
      <point x="723" y="86" type="curve" smooth="yes"/>
      <point x="674" y="86"/>
      <point x="663" y="115"/>
      <point x="671" y="171" type="curve" smooth="yes"/>
      <point x="716" y="458" type="line"/>
      <point x="594" y="458" type="line"/>
      <point x="573" y="390" type="line"/>
      <point x="564" y="425"/>
      <point x="533" y="467"/>
      <point x="461" y="467" type="curve" smooth="yes"/>
      <point x="336" y="467"/>
      <point x="230" y="375"/>
      <point x="230" y="191" type="curve" smooth="yes"/>
      <point x="230" y="80"/>
      <point x="293" y="2"/>
      <point x="392" y="2" type="curve" smooth="yes"/>
      <point x="460" y="2"/>
      <point x="510" y="31"/>
      <point x="546" y="85" type="curve"/>
      <point x="568" y="34"/>
      <point x="614" y="0"/>
      <point x="685" y="0" type="curve" smooth="yes"/>
      <point x="793" y="0"/>
      <point x="895" y="79"/>
      <point x="895" y="260" type="curve" smooth="yes"/>
      <point x="895" y="510"/>
      <point x="742" y="660"/>
      <point x="493" y="660" type="curve" smooth="yes"/>
      <point x="234" y="660"/>
      <point x="49" y="486"/>
    </contour>
    <contour>
      <point x="540" y="274" type="curve" smooth="yes"/>
      <point x="529" y="193" type="line" smooth="yes"/>
      <point x="522" y="143"/>
      <point x="484" y="118"/>
      <point x="445" y="118" type="curve" smooth="yes"/>
      <point x="400" y="118"/>
      <point x="376" y="152"/>
      <point x="376" y="211" type="curve" smooth="yes"/>
      <point x="376" y="302"/>
      <point x="422" y="357"/>
      <point x="480" y="357" type="curve" smooth="yes"/>
      <point x="531" y="357"/>
      <point x="546" y="325"/>
    </contour>
  </outline>
</glyph>
<glyph name="B" format="2">
  <advance width="684"/>
  <unicode hex="0042"/>
  <anchor x="319" y="660" name="top"/>
  <anchor x="390" y="0" name="ogonek"/>
  <anchor x="319" y="0" name="bottom"/>
  <anchor x="314" y="0" name="bottomC"/>
  <outline>
    <contour>
      <point x="409" y="0" type="line" smooth="yes"/>
      <point x="568" y="0"/>
      <point x="649" y="64"/>
      <point x="649" y="178" type="curve" smooth="yes"/>
      <point x="649" y="258"/>
      <point x="599" y="319"/>
      <point x="498" y="333" type="curve"/>
      <point x="498" y="334" type="line"/>
      <point x="588" y="348"/>
      <point x="632" y="407"/>
      <point x="632" y="482" type="curve" smooth="yes"/>
      <point x="632" y="597"/>
      <point x="557" y="659"/>
      <point x="394" y="660" type="curve" smooth="yes"/>
      <point x="73" y="660" type="line"/>
      <point x="73" y="0" type="line"/>
    </contour>
    <contour>
      <point x="239" y="267" type="line"/>
      <point x="380" y="267" type="line" smooth="yes"/>
      <point x="442" y="267"/>
      <point x="473" y="241"/>
      <point x="473" y="195" type="curve" smooth="yes"/>
      <point x="473" y="147"/>
      <point x="442" y="121"/>
      <point x="380" y="121" type="curve" smooth="yes"/>
      <point x="239" y="121" type="line"/>
    </contour>
    <contour>
      <point x="239" y="534" type="line"/>
      <point x="363" y="534" type="line" smooth="yes"/>
      <point x="425" y="534"/>
      <point x="456" y="510"/>
      <point x="456" y="462" type="curve" smooth="yes"/>
      <point x="456" y="414"/>
      <point x="425" y="390"/>
      <point x="363" y="390" type="curve" smooth="yes"/>
      <point x="239" y="390" type="line"/>
    </contour>
  </outline>
</glyph>
<glyph name="D" format="2">
  <advance width="718"/>
  <unicode hex="0044"/>
  <anchor x="329" y="0" name="bottom"/>
  <anchor x="329" y="660" name="top"/>
  <anchor x="353" y="0" name="ogonek"/>
  <anchor x="155" y="140" name="center"/>
  <anchor x="333" y="0" name="bottomC"/>
  <outline>
    <contour>
      <point x="190" y="660" type="line"/>
      <point x="190" y="530" type="line"/>
      <point x="336" y="530" type="line" smooth="yes"/>
      <point x="448" y="530"/>
      <point x="497" y="462"/>
      <point x="497" y="330" type="curve" smooth="yes"/>
      <point x="497" y="198"/>
      <point x="448" y="130"/>
      <point x="336" y="130" type="curve" smooth="yes"/>
      <point x="190" y="130" type="line"/>
      <point x="190" y="0" type="line"/>
      <point x="353" y="0" type="line" smooth="yes"/>
      <point x="560" y="0"/>
      <point x="673" y="119"/>
      <point x="673" y="330" type="curve" smooth="yes"/>
      <point x="673" y="541"/>
      <point x="560" y="660"/>
      <point x="353" y="660" type="curve" smooth="yes"/>
    </contour>
    <contour>
      <point x="73" y="660" type="line"/>
      <point x="73" y="0" type="line"/>
      <point x="245" y="0" type="line"/>
      <point x="245" y="660" type="line"/>
    </contour>
  </outline>
</glyph>
<glyph name="F" format="2">
  <advance width="612"/>
  <unicode hex="0046"/>
  <anchor x="318" y="660" name="top"/>
  <anchor x="245" y="0" name="ogonek"/>
  <anchor x="159" y="0" name="bottom"/>
  <anchor x="167" y="0" name="bottomC"/>
  <outline>
    <contour>
      <point x="73" y="660" type="line"/>
      <point x="73" y="0" type="line"/>
      <point x="245" y="0" type="line"/>
      <point x="245" y="660" type="line"/>
    </contour>
    <contour>
      <point x="157" y="387" type="line"/>
      <point x="157" y="254" type="line"/>
      <point x="517" y="254" type="line"/>
      <point x="517" y="387" type="line"/>
    </contour>
    <contour>
      <point x="157" y="660" type="line"/>
      <point x="157" y="527" type="line"/>
      <point x="586" y="527" type="line"/>
      <point x="586" y="660" type="line"/>
    </contour>
  </outline>
</glyph>
<glyph name="G" format="2">
  <advance width="723"/>
  <unicode hex="0047"/>
  <anchor x="368" y="660" name="top"/>
  <anchor x="422" y="0" name="ogonek"/>
  <anchor x="389" y="0" name="bottom"/>
  <anchor x="367" y="0" name="bottomC"/>
  <outline>
    <contour>
      <point x="576" y="226" type="curve"/>
      <point x="518" y="231" type="line"/>
      <point x="518" y="157"/>
      <point x="461" y="121"/>
      <point x="383" y="121" type="curve" smooth="yes"/>
      <point x="276" y="121"/>
      <point x="221" y="189"/>
      <point x="221" y="330" type="curve" smooth="yes"/>
      <point x="221" y="465"/>
      <point x="278" y="535"/>
      <point x="378" y="535" type="curve" smooth="yes"/>
      <point x="441" y="535"/>
      <point x="487" y="505"/>
      <point x="504" y="438" type="curve"/>
      <point x="663" y="501" type="line"/>
      <point x="611" y="620"/>
      <point x="523" y="670"/>
      <point x="373" y="670" type="curve" smooth="yes"/>
      <point x="170" y="670"/>
      <point x="45" y="542"/>
      <point x="45" y="329" type="curve" smooth="yes"/>
      <point x="45" y="110"/>
      <point x="173" y="-10"/>
      <point x="351" y="-10" type="curve" smooth="yes"/>
      <point x="506" y="-10"/>
      <point x="576" y="81"/>
    </contour>
    <contour>
      <point x="664" y="0" type="line"/>
      <point x="664" y="356" type="line"/>
      <point x="367" y="356" type="line"/>
      <point x="367" y="241" type="line"/>
      <point x="518" y="241" type="line"/>
      <point x="518" y="166" type="line"/>
      <point x="536" y="143" type="line"/>
      <point x="548" y="0" type="line"/>
    </contour>
  </outline>
</glyph>
<glyph name="J" format="2">
  <advance width="621"/>
  <unicode hex="004A"/>
  <anchor x="474" y="660" name="top"/>
  <anchor x="368" y="0" name="ogonek"/>
  <anchor x="298" y="0" name="bottom"/>
  <anchor x="301" y="0" name="bottomC"/>
  <outline>
    <contour>
      <point x="387" y="660" type="line"/>
      <point x="387" y="272" type="line" smooth="yes"/>
      <point x="387" y="172"/>
      <point x="361" y="125"/>
      <point x="289" y="125" type="curve" smooth="yes"/>
      <point x="216" y="125"/>
      <point x="189" y="170"/>
      <point x="206" y="291" type="curve"/>
      <point x="36" y="261" type="line"/>
      <point x="7" y="102"/>
      <point x="84" y="-10"/>
      <point x="281" y="-10" type="curve" smooth="yes"/>
      <point x="458" y="-10"/>
      <point x="559" y="87"/>
      <point x="559" y="254" type="curve" smooth="yes"/>
      <point x="559" y="660" type="line"/>
    </contour>
  </outline>
</glyph>
<glyph name="L" format="2">
  <advance width="602"/>
  <unicode hex="004C"/>
  <anchor x="429" y="355" name="center"/>
  <anchor x="336" y="0" name="bottom"/>
  <anchor x="159" y="660" name="top"/>
  <anchor x="336" y="0" name="bottomC"/>
  <anchor x="353" y="701" name="topright"/>
  <anchor x="576" y="0" name="ogonek"/>
  <outline>
    <contour>
      <point x="73" y="660" type="line"/>
      <point x="73" y="0" type="line"/>
      <point x="245" y="0" type="line"/>
      <point x="245" y="660" type="line"/>
    </contour>
    <contour>
      <point x="157" y="133" type="line"/>
      <point x="157" y="0" type="line"/>
      <point x="576" y="0" type="line"/>
      <point x="576" y="133" type="line"/>
    </contour>
  </outline>
</glyph>
<glyph name="M" format="2">
  <advance width="910"/>
  <unicode hex="004D"/>
  <anchor x="455" y="660" name="top"/>
  <anchor x="837" y="0" name="ogonek"/>
  <anchor x="455" y="0" name="bottom"/>
  <anchor x="476" y="0" name="bottomC"/>
  <outline>
    <contour>
      <point x="602" y="660" type="line"/>
      <point x="499" y="323" type="line"/>
      <point x="461" y="184" type="line"/>
      <point x="459" y="184" type="line"/>
      <point x="422" y="324" type="line"/>
      <point x="318" y="660" type="line"/>
      <point x="73" y="660" type="line"/>
      <point x="73" y="0" type="line"/>
      <point x="226" y="0" type="line"/>
      <point x="226" y="303" type="line"/>
      <point x="221" y="506" type="line"/>
      <point x="223" y="506" type="line"/>
      <point x="386" y="0" type="line"/>
      <point x="525" y="0" type="line"/>
      <point x="688" y="506" type="line"/>
      <point x="690" y="506" type="line"/>
      <point x="685" y="303" type="line"/>
      <point x="685" y="0" type="line"/>
      <point x="837" y="0" type="line"/>
      <point x="837" y="660" type="line"/>
    </contour>
  </outline>
</glyph>
<glyph name="P" format="2">
  <advance width="668"/>
  <unicode hex="0050"/>
  <anchor x="328" y="660" name="top"/>
  <anchor x="245" y="0" name="ogonek"/>
  <anchor x="159" y="0" name="bottom"/>
  <anchor x="159" y="0" name="bottomC"/>
  <outline>
    <contour>
      <point x="190" y="660" type="line"/>
      <point x="190" y="530" type="line"/>
      <point x="349" y="530" type="line" smooth="yes"/>
      <point x="425" y="530"/>
      <point x="458" y="501"/>
      <point x="458" y="443" type="curve" smooth="yes"/>
      <point x="458" y="384"/>
      <point x="425" y="355"/>
      <point x="349" y="355" type="curve" smooth="yes"/>
      <point x="190" y="355" type="line"/>
      <point x="190" y="229" type="line"/>
      <point x="376" y="229" type="line" smooth="yes"/>
      <point x="540" y="229"/>
      <point x="631" y="306"/>
      <point x="631" y="441" type="curve" smooth="yes"/>
      <point x="631" y="583"/>
      <point x="540" y="660"/>
      <point x="376" y="660" type="curve" smooth="yes"/>
    </contour>
    <contour>
      <point x="73" y="660" type="line"/>
      <point x="73" y="0" type="line"/>
      <point x="245" y="0" type="line"/>
      <point x="245" y="660" type="line"/>
    </contour>
  </outline>
</glyph>
<glyph name="R" format="2">
  <advance width="689"/>
  <unicode hex="0052"/>
  <anchor x="329" y="660" name="top"/>
  <anchor x="676" y="0" name="ogonek"/>
  <anchor x="363" y="0" name="bottom"/>
  <anchor x="590" y="0" name="bottomC"/>
  <outline>
    <contour>
      <point x="184" y="660" type="line"/>
      <point x="184" y="530" type="line"/>
      <point x="359" y="530" type="line" smooth="yes"/>
      <point x="432" y="530"/>
      <point x="464" y="505"/>
      <point x="464" y="447" type="curve" smooth="yes"/>
      <point x="464" y="388"/>
      <point x="432" y="363"/>
      <point x="359" y="363" type="curve" smooth="yes"/>
      <point x="184" y="363" type="line"/>
      <point x="184" y="241" type="line"/>
      <point x="388" y="241" type="line" smooth="yes"/>
      <point x="547" y="241"/>
      <point x="637" y="315"/>
      <point x="637" y="450" type="curve" smooth="yes"/>
      <point x="637" y="586"/>
      <point x="547" y="660"/>
      <point x="388" y="660" type="curve" smooth="yes"/>
    </contour>
    <contour>
      <point x="73" y="660" type="line"/>
      <point x="73" y="0" type="line"/>
      <point x="242" y="0" type="line"/>
      <point x="242" y="660" type="line"/>
    </contour>
    <contour>
      <point x="317" y="289" type="line"/>
      <point x="486" y="0" type="line"/>
      <point x="676" y="0" type="line"/>
      <point x="465" y="327" type="line"/>
    </contour>
  </outline>
</glyph>
<glyph name="X" format="2">
  <advance width="663"/>
  <unicode hex="0058"/>
  <anchor x="328" y="660" name="top"/>
  <anchor x="655" y="0" name="ogonek"/>
  <anchor x="328" y="0" name="bottom"/>
  <anchor x="555" y="0" name="bottomC"/>
  <outline>
    <contour>
      <point x="455" y="660" type="line"/>
      <point x="297" y="369" type="line"/>
      <point x="264" y="374" type="line"/>
      <point x="11" y="0" type="line"/>
      <point x="206" y="0" type="line"/>
      <point x="359" y="276" type="line"/>
      <point x="390" y="275" type="line"/>
      <point x="641" y="660" type="line"/>
    </contour>
    <contour>
      <point x="24" y="660" type="line"/>
      <point x="266" y="284" type="line"/>
      <point x="292" y="276" type="line"/>
      <point x="450" y="0" type="line"/>
      <point x="655" y="0" type="line"/>
      <point x="411" y="366" type="line"/>
      <point x="378" y="381" type="line"/>
      <point x="227" y="660" type="line"/>
    </contour>
  </outline>
</glyph>
<glyph name="Y" format="2">
  <advance width="657"/>
  <unicode hex="0059"/>
  <anchor x="328" y="660" name="top"/>
  <anchor x="414" y="0" name="ogonek"/>
  <anchor x="328" y="0" name="bottom"/>
  <anchor x="329" y="0" name="bottomC"/>
  <outline>
    <contour>
      <point x="472" y="660" type="line"/>
      <point x="379" y="479" type="line"/>
      <point x="329" y="369" type="line"/>
      <point x="280" y="479" type="line"/>
      <point x="187" y="660" type="line"/>
      <point x="9" y="660" type="line"/>
      <point x="242" y="241" type="line"/>
      <point x="242" y="0" type="line"/>
      <point x="414" y="0" type="line"/>
      <point x="414" y="241" type="line"/>
      <point x="647" y="660" type="line"/>
    </contour>
  </outline>
</glyph>
<glyph name="Z" format="2">
  <advance width="634"/>
  <unicode hex="005A"/>
  <anchor x="320" y="660" name="top"/>
  <anchor x="603" y="0" name="ogonek"/>
  <anchor x="306" y="0" name="bottom"/>
  <anchor x="306" y="0" name="bottomC"/>
  <outline>
    <contour>
      <point x="591" y="536" type="line"/>
      <point x="591" y="660" type="line"/>
      <point x="44" y="660" type="line"/>
      <point x="44" y="530" type="line"/>
      <point x="488" y="530" type="line"/>
      <point x="458" y="588" type="line"/>
      <point x="37" y="124" type="line"/>
      <point x="37" y="0" type="line"/>
      <point x="603" y="0" type="line"/>
      <point x="603" y="130" type="line"/>
      <point x="142" y="130" type="line"/>
      <point x="172" y="72" type="line"/>
    </contour>
  </outline>
</glyph>
<glyph name="d" format="2">
  <advance width="628"/>
  <unicode hex="0064"/>
  <anchor x="315" y="250" name="center"/>
  <anchor x="309" y="0" name="bottom"/>
  <anchor x="483" y="712" name="top"/>
  <anchor x="257" y="0" name="bottomC"/>
  <anchor x="631" y="712" name="topright"/>
  <anchor x="330" y="13" name="ogonek"/>
  <outline>
    <contour>
      <point x="398" y="712" type="line"/>
      <point x="398" y="181" type="line"/>
      <point x="405" y="144" type="line"/>
      <point x="415" y="0" type="line"/>
      <point x="568" y="0" type="line"/>
      <point x="568" y="178" type="line"/>
      <point x="568" y="712" type="line"/>
    </contour>
    <component base="bowl" xOffset="-40"/>
  </outline>
</glyph>
<glyph name="e" format="2">
  <advance width="582"/>
  <unicode hex="0065"/>
  <anchor x="296" y="500" name="top"/>
  <anchor x="360" y="38" name="ogonek"/>
  <anchor x="294" y="0" name="bottom"/>
  <anchor x="302" y="0" name="bottomC"/>
  <outline>
    <contour>
      <point x="537" y="121" type="curve"/>
      <point x="399" y="165" type="line"/>
      <point x="388" y="130"/>
      <point x="357" y="110"/>
      <point x="307" y="110" type="curve" smooth="yes"/>
      <point x="238" y="110"/>
      <point x="199" y="148"/>
      <point x="199" y="248" type="curve" smooth="yes"/>
      <point x="199" y="347"/>
      <point x="232" y="391"/>
      <point x="298" y="391" type="curve" smooth="yes"/>
      <point x="361" y="391"/>
      <point x="387" y="340"/>
      <point x="388" y="253" type="curve"/>
      <point x="468" y="291" type="line"/>
      <point x="146" y="291" type="line"/>
      <point x="146" y="212" type="line"/>
      <point x="542" y="212" type="line"/>
      <point x="545" y="225"/>
      <point x="547" y="248"/>
      <point x="547" y="270" type="curve" smooth="yes"/>
      <point x="547" y="409"/>
      <point x="461" y="510"/>
      <point x="297" y="510" type="curve" smooth="yes"/>
      <point x="131" y="510"/>
      <point x="37" y="414"/>
      <point x="37" y="250" type="curve" smooth="yes"/>
      <point x="37" y="86"/>
      <point x="132" y="-10"/>
      <point x="307" y="-10" type="curve" smooth="yes"/>
      <point x="423" y="-10"/>
      <point x="508" y="35"/>
    </contour>
  </outline>
</glyph>
<glyph name="f" format="2">
  <advance width="415"/>
  <unicode hex="0066"/>
  <anchor x="254" y="712" name="top"/>
  <anchor x="265" y="0" name="ogonek"/>
  <anchor x="180" y="0" name="bottom"/>
  <anchor x="180" y="0" name="bottomC"/>
  <outline>
    <contour>
      <point x="95" y="546" type="curve" smooth="yes"/>
      <point x="95" y="0" type="line"/>
      <point x="265" y="0" type="line"/>
      <point x="265" y="442" type="line"/>
      <point x="255" y="470" type="line"/>
      <point x="255" y="535" type="line" smooth="yes"/>
      <point x="255" y="587"/>
      <point x="286" y="607"/>
      <point x="338" y="607" type="curve" smooth="yes"/>
      <point x="364" y="607"/>
      <point x="380" y="602"/>
      <point x="395" y="591" type="curve"/>
      <point x="412" y="697" type="line"/>
      <point x="389" y="715"/>
      <point x="349" y="726"/>
      <point x="297" y="726" type="curve" smooth="yes"/>
      <point x="184" y="726"/>
      <point x="95" y="672"/>
    </contour>
    <contour>
      <point x="15" y="500" type="line"/>
      <point x="15" y="379" type="line"/>
      <point x="407" y="379" type="line"/>
      <point x="407" y="500" type="line"/>
    </contour>
  </outline>
</glyph>
<glyph name="g" format="2">
  <advance width="560"/>
  <unicode hex="0067"/>
  <anchor x="260" y="500" name="top"/>
  <anchor x="414" y="-197" name="ogonek"/>
  <anchor x="286" y="-210" name="bottom"/>
  <anchor x="286" y="-210" name="bottomC"/>
  <outline>
    <contour>
      <point x="382" y="468" type="curve"/>
      <point x="442" y="448" type="line"/>
      <point x="441" y="495"/>
      <point x="483" y="532"/>
      <point x="559" y="521" type="curve"/>
      <point x="540" y="634" type="line"/>
      <point x="431" y="643"/>
      <point x="381" y="556"/>
    </contour>
    <component base="gbase" xOffset="-8"/>
  </outline>
</glyph>
<glyph name="i" format="2">
  <advance width="291"/>
  <unicode hex="0069"/>
  <anchor x="146" y="711" name="top"/>
  <anchor x="219" y="6" name="ogonek"/>
  <anchor x="146" y="0" name="bottom"/>
  <anchor x="146" y="0" name="bottomC"/>
  <outline>
    <contour>
      <point x="245" y="639" type="curve" smooth="yes"/>
      <point x="245" y="696"/>
      <point x="215" y="721"/>
      <point x="146" y="721" type="curve" smooth="yes"/>
      <point x="77" y="721"/>
      <point x="47" y="696"/>
      <point x="47" y="639" type="curve" smooth="yes"/>
      <point x="47" y="583"/>
      <point x="77" y="558"/>
      <point x="146" y="558" type="curve" smooth="yes"/>
      <point x="215" y="558"/>
      <point x="245" y="583"/>
    </contour>
    <component base="idotless"/>
  </outline>
</glyph>
<glyph name="m" format="2">
  <advance width="941"/>
  <unicode hex="006D"/>
  <anchor x="472" y="500" name="top"/>
  <anchor x="881" y="0" name="ogonek"/>
  <anchor x="472" y="0" name="bottom"/>
  <anchor x="796" y="0" name="bottomC"/>
  <outline>
    <contour>
      <point x="521" y="296" type="curve"/>
      <point x="557" y="267" type="line"/>
      <point x="557" y="342"/>
      <point x="594" y="380"/>
      <point x="645" y="380" type="curve" smooth="yes"/>
      <point x="686" y="380"/>
      <point x="713" y="357"/>
      <point x="713" y="294" type="curve" smooth="yes"/>
      <point x="713" y="0" type="line"/>
      <point x="881" y="0" type="line"/>
      <point x="883" y="333" type="line" smooth="yes"/>
      <point x="884" y="450"/>
      <point x="810" y="510"/>
      <point x="712" y="510" type="curve" smooth="yes"/>
      <point x="605" y="510"/>
      <point x="521" y="435"/>
    </contour>
    <contour>
      <point x="61" y="500" type="line"/>
      <point x="61" y="322" type="line"/>
      <point x="61" y="0" type="line"/>
      <point x="231" y="0" type="line"/>
      <point x="231" y="320" type="line"/>
      <point x="220" y="356" type="line"/>
      <point x="213" y="500" type="line"/>
    </contour>
    <contour>
      <point x="193" y="274" type="curve"/>
      <point x="231" y="264" type="line"/>
      <point x="231" y="346"/>
      <point x="272" y="380"/>
      <point x="319" y="380" type="curve" smooth="yes"/>
      <point x="359" y="380"/>
      <point x="387" y="357"/>
      <point x="387" y="294" type="curve" smooth="yes"/>
      <point x="387" y="0" type="line"/>
      <point x="557" y="0" type="line"/>
      <point x="557" y="333" type="line" smooth="yes"/>
      <point x="557" y="450"/>
      <point x="484" y="510"/>
      <point x="386" y="510" type="curve" smooth="yes"/>
      <point x="273" y="510"/>
      <point x="193" y="429"/>
    </contour>
  </outline>
</glyph>
<glyph name="n" format="2">
  <advance width="620"/>
  <unicode hex="006E"/>
  <anchor x="313" y="500" name="top"/>
  <anchor x="562" y="0" name="ogonek"/>
  <anchor x="319" y="0" name="bottom"/>
  <anchor x="477" y="0" name="bottomC"/>
  <outline>
    <contour>
      <point x="194" y="274" type="curve"/>
      <point x="231" y="264" type="line"/>
      <point x="231" y="347"/>
      <point x="272" y="380"/>
      <point x="321" y="380" type="curve" smooth="yes"/>
      <point x="363" y="380"/>
      <point x="392" y="357"/>
      <point x="392" y="286" type="curve" smooth="yes"/>
      <point x="392" y="0" type="line"/>
      <point x="562" y="0" type="line"/>
      <point x="562" y="333" type="line" smooth="yes"/>
      <point x="562" y="449"/>
      <point x="492" y="510"/>
      <point x="389" y="510" type="curve" smooth="yes"/>
      <point x="272" y="510"/>
      <point x="194" y="431"/>
    </contour>
    <contour>
      <point x="61" y="500" type="line"/>
      <point x="61" y="322" type="line"/>
      <point x="61" y="0" type="line"/>
      <point x="231" y="0" type="line"/>
      <point x="231" y="319" type="line"/>
      <point x="220" y="356" type="line"/>
      <point x="213" y="500" type="line"/>
    </contour>
  </outline>
</glyph>
<glyph name="o" format="2">
  <advance width="602"/>
  <unicode hex="006F"/>
  <anchor x="301" y="500" name="top"/>
  <anchor x="422" y="13" name="ogonek"/>
  <anchor x="301" y="0" name="bottom"/>
  <anchor x="301" y="0" name="bottomC"/>
  <outline>
    <contour>
      <point x="37" y="250" type="curve" smooth="yes"/>
      <point x="37" y="86"/>
      <point x="134" y="-10"/>
      <point x="301" y="-10" type="curve" smooth="yes"/>
      <point x="468" y="-10"/>
      <point x="565" y="86"/>
      <point x="565" y="250" type="curve" smooth="yes"/>
      <point x="565" y="414"/>
      <point x="468" y="510"/>
      <point x="301" y="510" type="curve" smooth="yes"/>
      <point x="134" y="510"/>
      <point x="37" y="414"/>
    </contour>
    <contour>
      <point x="395" y="250" type="curve" smooth="yes"/>
      <point x="395" y="152"/>
      <point x="364" y="111"/>
      <point x="301" y="111" type="curve" smooth="yes"/>
      <point x="238" y="111"/>
      <point x="207" y="152"/>
      <point x="207" y="250" type="curve" smooth="yes"/>
      <point x="207" y="348"/>
      <point x="238" y="389"/>
      <point x="301" y="389" type="curve" smooth="yes"/>
      <point x="364" y="389"/>
      <point x="395" y="348"/>
    </contour>
  </outline>
</glyph>
<glyph name="p" format="2">
  <advance width="628"/>
  <unicode hex="0070"/>
  <anchor x="319" y="500" name="top"/>
  <anchor x="474" y="13" name="ogonek"/>
  <anchor x="146" y="-210" name="bottom"/>
  <anchor x="393" y="0" name="bottomC"/>
  <outline>
    <contour>
      <point x="61" y="500" type="line"/>
      <point x="61" y="322" type="line"/>
      <point x="61" y="-210" type="line"/>
      <point x="231" y="-210" type="line"/>
      <point x="231" y="319" type="line"/>
      <point x="217" y="356" type="line"/>
      <point x="210" y="500" type="line"/>
    </contour>
    <component base="bowl" xScale="-1.0" yScale="-1.0" xOffset="668" yOffset="500"/>
  </outline>
</glyph>
<glyph name="q" format="2">
  <advance width="629"/>
  <unicode hex="0071"/>
  <anchor x="309" y="500" name="top"/>
  <anchor x="330" y="13" name="ogonek"/>
  <anchor x="483" y="-210" name="bottom"/>
  <anchor x="247" y="0" name="bottomC"/>
  <outline>
    <contour>
      <point x="419" y="500" type="line"/>
      <point x="411" y="356" type="line"/>
      <point x="398" y="319" type="line"/>
      <point x="398" y="-210" type="line"/>
      <point x="568" y="-210" type="line"/>
      <point x="568" y="322" type="line"/>
      <point x="568" y="500" type="line"/>
    </contour>
    <component base="bowl" yScale="-1.0" xOffset="-39" yOffset="500"/>
  </outline>
</glyph>
<glyph name="r" format="2">
  <advance width="430"/>
  <unicode hex="0072"/>
  <anchor x="233" y="500" name="top"/>
  <anchor x="231" y="0" name="ogonek"/>
  <anchor x="147" y="0" name="bottom"/>
  <anchor x="146" y="0" name="bottomC"/>
  <outline>
    <contour>
      <point x="200" y="262" type="curve"/>
      <point x="231" y="252" type="line"/>
      <point x="231" y="331"/>
      <point x="283" y="370"/>
      <point x="343" y="370" type="curve" smooth="yes"/>
      <point x="369" y="370"/>
      <point x="393" y="363"/>
      <point x="406" y="355" type="curve"/>
      <point x="424" y="499" type="line"/>
      <point x="413" y="505"/>
      <point x="395" y="510"/>
      <point x="370" y="510" type="curve" smooth="yes"/>
      <point x="253" y="510"/>
      <point x="200" y="412"/>
    </contour>
    <contour>
      <point x="61" y="500" type="line"/>
      <point x="61" y="0" type="line"/>
      <point x="231" y="0" type="line"/>
      <point x="231" y="317" type="line"/>
      <point x="222" y="337" type="line"/>
      <point x="211" y="500" type="line"/>
    </contour>
  </outline>
</glyph>
<glyph name="u" format="2">
  <advance width="620"/>
  <unicode hex="0075"/>
  <anchor x="306" y="500" name="top"/>
  <anchor x="559" y="0" name="ogonek"/>
  <anchor x="306" y="0" name="bottom"/>
  <anchor x="485" y="0" name="bottomC"/>
  <outline>
    <contour>
      <point x="58" y="500" type="line"/>
      <point x="58" y="166" type="line" smooth="yes"/>
      <point x="58" y="40"/>
      <point x="127" y="-10"/>
      <point x="229" y="-10" type="curve" smooth="yes"/>
      <point x="351" y="-10"/>
      <point x="426" y="65"/>
      <point x="426" y="227" type="curve"/>
      <point x="389" y="235" type="line"/>
      <point x="389" y="155"/>
      <point x="350" y="120"/>
      <point x="297" y="120" type="curve" smooth="yes"/>
      <point x="253" y="120"/>
      <point x="228" y="141"/>
      <point x="228" y="209" type="curve" smooth="yes"/>
      <point x="228" y="500" type="line"/>
    </contour>
    <contour>
      <point x="389" y="500" type="line"/>
      <point x="389" y="181" type="line"/>
      <point x="399" y="144" type="line"/>
      <point x="407" y="0" type="line"/>
      <point x="559" y="0" type="line"/>
      <point x="559" y="500" type="line"/>
    </contour>
  </outline>
</glyph>
<glyph name="v" format="2">
  <advance width="561"/>
  <unicode hex="0076"/>
  <anchor x="280" y="500" name="top"/>
  <anchor x="382" y="0" name="ogonek"/>
  <anchor x="280" y="0" name="bottom"/>
  <anchor x="288" y="0" name="bottomC"/>
  <outline>
    <contour>
      <point x="386" y="500" type="line"/>
      <point x="252" y="0" type="line"/>
      <point x="382" y="0" type="line"/>
      <point x="562" y="500" type="line"/>
    </contour>
    <contour>
      <point x="-1" y="500" type="line"/>
      <point x="179" y="0" type="line"/>
      <point x="309" y="0" type="line"/>
      <point x="178" y="500" type="line"/>
    </contour>
  </outline>
</glyph>
<glyph name="z" format="2">
  <advance width="515"/>
  <unicode hex="007A"/>
  <anchor x="252" y="500" name="top"/>
  <anchor x="485" y="0" name="ogonek"/>
  <anchor x="252" y="0" name="bottom"/>
  <anchor x="252" y="0" name="bottomC"/>
  <outline>
    <contour>
      <point x="485" y="0" type="line"/>
      <point x="485" y="119" type="line"/>
      <point x="313" y="119" type="line"/>
      <point x="225" y="117" type="line"/>
      <point x="279" y="172" type="line"/>
      <point x="476" y="396" type="line"/>
      <point x="476" y="500" type="line"/>
      <point x="37" y="500" type="line"/>
      <point x="37" y="381" type="line"/>
      <point x="208" y="381" type="line"/>
      <point x="288" y="383" type="line"/>
      <point x="234" y="330" type="line"/>
      <point x="36" y="104" type="line"/>
      <point x="36" y="0" type="line"/>
    </contour>
  </outline>
</glyph>
<glyph name="braceleft" format="2">
  <advance width="420"/>
  <unicode hex="007B"/>
  <outline>
    <contour>
      <point x="153" y="566" type="curve" smooth="yes"/>
      <point x="153" y="431" type="line" smooth="yes"/>
      <point x="153" y="356"/>
      <point x="122" y="327"/>
      <point x="41" y="327" type="curve"/>
      <point x="41" y="257" type="line"/>
      <point x="199" y="257"/>
      <point x="289" y="288"/>
      <point x="289" y="396" type="curve" smooth="yes"/>
      <point x="289" y="547" type="line" smooth="yes"/>
      <point x="289" y="604"/>
      <point x="321" y="628"/>
      <point x="396" y="628" type="curve"/>
      <point x="391" y="736" type="line"/>
      <point x="219" y="736"/>
      <point x="153" y="689"/>
    </contour>
    <contour>
      <point x="41" y="217" type="line"/>
      <point x="122" y="217"/>
      <point x="153" y="188"/>
      <point x="153" y="113" type="curve" smooth="yes"/>
      <point x="153" y="-21" type="line" smooth="yes"/>
      <point x="153" y="-145"/>
      <point x="219" y="-191"/>
      <point x="391" y="-191" type="curve"/>
      <point x="396" y="-83" type="line"/>
      <point x="321" y="-83"/>
      <point x="289" y="-59"/>
      <point x="289" y="-1" type="curve" smooth="yes"/>
      <point x="289" y="149" type="line" smooth="yes"/>
      <point x="289" y="256"/>
      <point x="199" y="288"/>
      <point x="41" y="288" type="curve"/>
    </contour>
  </outline>
</glyph>
<glyph name="cent" format="2">
  <advance width="575"/>
  <unicode hex="00A2"/>
  <outline>
    <contour>
      <point x="45" y="250" type="curve" smooth="yes"/>
      <point x="45" y="86"/>
      <point x="140" y="-10"/>
      <point x="314" y="-10" type="curve" smooth="yes"/>
      <point x="456" y="-10"/>
      <point x="538" y="52"/>
      <point x="548" y="144" type="curve"/>
      <point x="423" y="187" type="line"/>
      <point x="411" y="127"/>
      <point x="373" y="96"/>
      <point x="312" y="96" type="curve" smooth="yes"/>
      <point x="237" y="96"/>
      <point x="193" y="137"/>
      <point x="193" y="248" type="curve" smooth="yes"/>
      <point x="193" y="358"/>
      <point x="232" y="404"/>
      <point x="312" y="404" type="curve" smooth="yes"/>
      <point x="368" y="404"/>
      <point x="408" y="371"/>
      <point x="419" y="309" type="curve"/>
      <point x="546" y="355" type="line"/>
      <point x="534" y="439"/>
      <point x="469" y="510"/>
      <point x="308" y="510" type="curve" smooth="yes"/>
      <point x="142" y="510"/>
      <point x="45" y="414"/>
    </contour>
    <contour>
      <point x="265" y="600" type="line"/>
      <point x="265" y="-100" type="line"/>
      <point x="353" y="-100" type="line"/>
      <point x="353" y="600" type="line"/>
    </contour>
  </outline>
</glyph>
<glyph name="currency" format="2">
  <advance width="646"/>
  <unicode hex="00A4"/>
  <outline>
    <contour>
      <point x="110" y="330" type="curve" smooth="yes"/>
      <point x="110" y="206"/>
      <point x="197" y="121"/>
      <point x="324" y="121" type="curve" smooth="yes"/>
      <point x="450" y="121"/>
      <point x="536" y="206"/>
      <point x="536" y="330" type="curve" smooth="yes"/>
      <point x="536" y="452"/>
      <point x="450" y="537"/>
      <point x="324" y="537" type="curve" smooth="yes"/>
      <point x="197" y="537"/>
      <point x="110" y="452"/>
    </contour>
    <contour>
      <point x="407" y="330" type="curve" smooth="yes"/>
      <point x="407" y="277"/>
      <point x="373" y="242"/>
      <point x="324" y="242" type="curve" smooth="yes"/>
      <point x="274" y="242"/>
      <point x="240" y="277"/>
      <point x="240" y="330" type="curve" smooth="yes"/>
      <point x="240" y="382"/>
      <point x="274" y="417"/>
      <point x="324" y="417" type="curve" smooth="yes"/>
      <point x="373" y="417"/>
      <point x="407" y="382"/>
    </contour>
    <contour>
      <point x="36" y="518" type="line"/>
      <point x="184" y="388" type="line"/>
      <point x="265" y="469" type="line"/>
      <point x="134" y="616" type="line"/>
    </contour>
    <contour>
      <point x="36" y="140" type="line"/>
      <point x="134" y="43" type="line"/>
      <point x="264" y="190" type="line"/>
      <point x="183" y="271" type="line"/>
    </contour>
    <contour>
      <point x="384" y="185" type="line"/>
      <point x="512" y="43" type="line"/>
      <point x="610" y="140" type="line"/>
      <point x="466" y="267" type="line"/>
    </contour>
    <contour>
      <point x="385" y="472" type="line"/>
      <point x="468" y="389" type="line"/>
      <point x="610" y="518" type="line"/>
      <point x="512" y="616" type="line"/>
    </contour>
  </outline>
</glyph>
<glyph name="brokenbar" format="2">
  <advance width="272"/>
  <unicode hex="00A6"/>
  <outline>
    <contour>
      <point x="61" y="713" type="line"/>
      <point x="61" y="333" type="line"/>
      <point x="211" y="333" type="line"/>
      <point x="211" y="713" type="line"/>
    </contour>
    <contour>
      <point x="61" y="212" type="line"/>
      <point x="61" y="-168" type="line"/>
      <point x="211" y="-168" type="line"/>
      <point x="211" y="212" type="line"/>
    </contour>
  </outline>
</glyph>
<glyph name="dieresis" format="2">
  <advance width="500"/>
  <unicode hex="00A8"/>
  <anchor x="251" y="500" name="_top"/>
  <outline>
    <contour>
      <point x="56" y="633" type="curve" smooth="yes"/>
      <point x="56" y="585"/>
      <point x="88" y="556"/>
      <point x="140" y="556" type="curve" smooth="yes"/>
      <point x="194" y="556"/>
      <point x="226" y="585"/>
      <point x="226" y="633" type="curve" smooth="yes"/>
      <point x="226" y="681"/>
      <point x="194" y="710"/>
      <point x="140" y="710" type="curve" smooth="yes"/>
      <point x="88" y="710"/>
      <point x="56" y="681"/>
    </contour>
    <contour>
      <point x="276" y="633" type="curve" smooth="yes"/>
      <point x="276" y="585"/>
      <point x="308" y="556"/>
      <point x="360" y="556" type="curve" smooth="yes"/>
      <point x="414" y="556"/>
      <point x="446" y="585"/>
      <point x="446" y="633" type="curve" smooth="yes"/>
      <point x="446" y="681"/>
      <point x="414" y="710"/>
      <point x="360" y="710" type="curve" smooth="yes"/>
      <point x="308" y="710"/>
      <point x="276" y="681"/>
    </contour>
  </outline>
</glyph>
<glyph name="registered" format="2">
  <advance width="772"/>
  <unicode hex="00AE"/>
  <outline>
    <contour>
      <point x="42" y="330" type="curve" smooth="yes"/>
      <point x="42" y="125"/>
      <point x="177" y="-10"/>
      <point x="386" y="-10" type="curve" smooth="yes"/>
      <point x="595" y="-10"/>
      <point x="730" y="125"/>
      <point x="730" y="330" type="curve" smooth="yes"/>
      <point x="730" y="535"/>
      <point x="595" y="670"/>
      <point x="386" y="670" type="curve" smooth="yes"/>
      <point x="177" y="670"/>
      <point x="42" y="535"/>
    </contour>
    <contour>
      <point x="243" y="515" type="line"/>
      <point x="243" y="151" type="line"/>
      <point x="344" y="151" type="line"/>
      <point x="344" y="515" type="line"/>
    </contour>
    <contour>
      <point x="362" y="295" type="line"/>
      <point x="437" y="151" type="line"/>
      <point x="558" y="151" type="line"/>
      <point x="449" y="318" type="line"/>
    </contour>
    <contour>
      <point x="641" y="330" type="curve" smooth="yes"/>
      <point x="641" y="175"/>
      <point x="541" y="74"/>
      <point x="386" y="74" type="curve" smooth="yes"/>
      <point x="231" y="74"/>
      <point x="131" y="175"/>
      <point x="131" y="330" type="curve" smooth="yes"/>
      <point x="131" y="485"/>
      <point x="231" y="586"/>
      <point x="386" y="586" type="curve" smooth="yes"/>
      <point x="541" y="586"/>
      <point x="641" y="485"/>
    </contour>
    <contour>
      <point x="302" y="515" type="line"/>
      <point x="302" y="431" type="line"/>
      <point x="395" y="431" type="line" smooth="yes"/>
      <point x="427" y="431"/>
      <point x="447" y="419"/>
      <point x="447" y="388" type="curve" smooth="yes"/>
      <point x="447" y="358"/>
      <point x="427" y="345"/>
      <point x="395" y="345" type="curve" smooth="yes"/>
      <point x="302" y="345" type="line"/>
      <point x="302" y="276" type="line"/>
      <point x="407" y="276" type="line" smooth="yes"/>
      <point x="493" y="276"/>
      <point x="550" y="320"/>
      <point x="550" y="396" type="curve" smooth="yes"/>
      <point x="550" y="466"/>
      <point x="493" y="515"/>
      <point x="419" y="515" type="curve" smooth="yes"/>
    </contour>
  </outline>
</glyph>
<glyph name="degree" format="2">
  <advance width="495"/>
  <unicode hex="00B0"/>
  <outline>
    <contour>
      <point x="450" y="484" type="curve" smooth="yes"/>
      <point x="450" y="597"/>
      <point x="371" y="670"/>
      <point x="248" y="670" type="curve" smooth="yes"/>
      <point x="124" y="670"/>
      <point x="46" y="597"/>
      <point x="46" y="484" type="curve" smooth="yes"/>
      <point x="46" y="371"/>
      <point x="124" y="298"/>
      <point x="248" y="298" type="curve" smooth="yes"/>
      <point x="371" y="298"/>
      <point x="450" y="371"/>
    </contour>
    <contour>
      <point x="169" y="485" type="curve" smooth="yes"/>
      <point x="169" y="530"/>
      <point x="201" y="562"/>
      <point x="248" y="562" type="curve" smooth="yes"/>
      <point x="294" y="562"/>
      <point x="326" y="530"/>
      <point x="326" y="485" type="curve" smooth="yes"/>
      <point x="326" y="439"/>
      <point x="294" y="407"/>
      <point x="248" y="407" type="curve" smooth="yes"/>
      <point x="201" y="407"/>
      <point x="169" y="439"/>
    </contour>
  </outline>
</glyph>
<glyph name="plusminus" format="2">
  <advance width="604"/>
  <unicode hex="00B1"/>
  <outline>
    <contour>
      <point x="241" y="652" type="line"/>
      <point x="241" y="185" type="line"/>
      <point x="364" y="185" type="line"/>
      <point x="364" y="652" type="line"/>
    </contour>
    <contour>
      <point x="51" y="477" type="line"/>
      <point x="51" y="360" type="line"/>
      <point x="553" y="360" type="line"/>
      <point x="553" y="477" type="line"/>
    </contour>
    <contour>
      <point x="51" y="115" type="line"/>
      <point x="51" y="1" type="line"/>
      <point x="553" y="1" type="line"/>
      <point x="553" y="115" type="line"/>
    </contour>
  </outline>
</glyph>
<glyph name="uni00B5" format="2">
  <advance width="622"/>
  <unicode hex="00B5"/>
  <anchor x="314" y="500" name="top"/>
  <anchor x="562" y="0" name="ogonek"/>
  <anchor x="314" y="-210" name="bottom"/>
  <anchor x="488" y="0" name="bottomC"/>
  <outline>
    <contour>
      <point x="231" y="209" type="curve"/>
      <point x="113" y="166" type="line"/>
      <point x="113" y="40"/>
      <point x="167" y="-10"/>
      <point x="252" y="-10" type="curve" smooth="yes"/>
      <point x="360" y="-10"/>
      <point x="423" y="65"/>
      <point x="429" y="213" type="curve"/>
      <point x="392" y="217" type="line"/>
      <point x="386" y="153"/>
      <point x="353" y="120"/>
      <point x="300" y="120" type="curve" smooth="yes"/>
      <point x="256" y="120"/>
      <point x="231" y="141"/>
    </contour>
    <contour>
      <point x="61" y="500" type="line"/>
      <point x="61" y="-210" type="line"/>
      <point x="231" y="-210" type="line"/>
      <point x="231" y="500" type="line"/>
    </contour>
    <contour>
      <point x="392" y="500" type="line"/>
      <point x="392" y="187" type="line"/>
      <point x="403" y="144" type="line"/>
      <point x="411" y="0" type="line"/>
      <point x="562" y="0" type="line"/>
      <point x="562" y="138" type="line"/>
      <point x="562" y="500" type="line"/>
    </contour>
  </outline>
</glyph>
<glyph name="cedilla" format="2">
  <advance width="500"/>
  <unicode hex="00B8"/>
  <anchor x="260" y="0" name="_bottomC"/>
  <outline>
    <contour>
      <point x="290" y="-75" type="curve" smooth="yes"/>
      <point x="290" y="-106"/>
      <point x="267" y="-124"/>
      <point x="235" y="-124" type="curve" smooth="yes"/>
      <point x="204" y="-124"/>
      <point x="179" y="-112"/>
      <point x="163" y="-96" type="curve"/>
      <point x="124" y="-175" type="line"/>
      <point x="149" y="-198"/>
      <point x="186" y="-215"/>
      <point x="248" y="-215" type="curve" smooth="yes"/>
      <point x="331" y="-215"/>
      <point x="391" y="-176"/>
      <point x="391" y="-97" type="curve" smooth="yes"/>
      <point x="391" y="-33"/>
      <point x="334" y="22"/>
      <point x="224" y="37" type="curve"/>
      <point x="182" y="2" type="line"/>
      <point x="268" y="-18"/>
      <point x="290" y="-41"/>
    </contour>
  </outline>
</glyph>
<glyph name="Aring" format="2">
  <advance width="677"/>
  <unicode hex="00C5"/>
  <anchor x="339" y="851" name="top"/>
  <anchor x="673" y="0" name="ogonek"/>
  <anchor x="338" y="0" name="bottom"/>
  <anchor x="589" y="0" name="bottomC"/>
  <outline>
    <contour>
      <point x="189" y="732" type="curve" smooth="yes"/>
      <point x="189" y="653"/>
      <point x="246" y="610"/>
      <point x="339" y="610" type="curve" smooth="yes"/>
      <point x="427" y="610"/>
      <point x="489" y="653"/>
      <point x="489" y="732" type="curve" smooth="yes"/>
      <point x="489" y="809"/>
      <point x="433" y="861"/>
      <point x="339" y="861" type="curve" smooth="yes"/>
      <point x="246" y="861"/>
      <point x="189" y="809"/>
    </contour>
    <contour>
      <point x="397" y="726" type="curve" smooth="yes"/>
      <point x="397" y="692"/>
      <point x="375" y="670"/>
      <point x="339" y="670" type="curve" smooth="yes"/>
      <point x="303" y="670"/>
      <point x="281" y="692"/>
      <point x="281" y="726" type="curve" smooth="yes"/>
      <point x="281" y="760"/>
      <point x="303" y="782"/>
      <point x="339" y="782" type="curve" smooth="yes"/>
      <point x="375" y="782"/>
      <point x="397" y="760"/>
    </contour>
    <contour>
      <point x="177" y="0" type="line"/>
      <point x="309" y="425" type="line"/>
      <point x="335" y="528" type="line"/>
      <point x="339" y="528" type="line"/>
      <point x="367" y="424" type="line"/>
      <point x="496" y="0" type="line"/>
      <point x="673" y="0" type="line"/>
      <point x="436" y="660" type="line"/>
      <point x="242" y="660" type="line"/>
      <point x="4" y="0" type="line"/>
    </contour>
    <contour>
      <point x="522" y="149" type="line"/>
      <point x="522" y="266" type="line"/>
      <point x="155" y="266" type="line"/>
      <point x="155" y="149" type="line"/>
    </contour>
  </outline>
</glyph>
<glyph name="Idieresis" format="2">
  <advance width="318"/>
  <unicode hex="00CF"/>
  <anchor x="159" y="0" name="bottomC"/>
  <anchor x="159" y="660" name="top"/>
  <anchor x="245" y="0" name="ogonek"/>
  <anchor x="159" y="0" name="bottom"/>
  <outline>
    <contour>
      <point x="-26" y="793" type="curve" smooth="yes"/>
      <point x="-26" y="745"/>
      <point x="5" y="716"/>
      <point x="56" y="716" type="curve" smooth="yes"/>
      <point x="108" y="716"/>
      <point x="140" y="745"/>
      <point x="140" y="793" type="curve" smooth="yes"/>
      <point x="140" y="841"/>
      <point x="108" y="870"/>
      <point x="56" y="870" type="curve" smooth="yes"/>
      <point x="5" y="870"/>
      <point x="-26" y="841"/>
    </contour>
    <contour>
      <point x="178" y="793" type="curve" smooth="yes"/>
      <point x="178" y="745"/>
      <point x="209" y="716"/>
      <point x="260" y="716" type="curve" smooth="yes"/>
      <point x="312" y="716"/>
      <point x="344" y="745"/>
      <point x="344" y="793" type="curve" smooth="yes"/>
      <point x="344" y="841"/>
      <point x="312" y="870"/>
      <point x="260" y="870" type="curve" smooth="yes"/>
      <point x="209" y="870"/>
      <point x="178" y="841"/>
    </contour>
    <component base="I"/>
  </outline>
</glyph>
<glyph name="germandbls" format="2">
  <advance width="648"/>
  <unicode hex="00DF"/>
  <anchor x="337" y="712" name="top"/>
  <anchor x="504" y="13" name="ogonek"/>
  <anchor x="337" y="0" name="bottom"/>
  <anchor x="395" y="0" name="bottomC"/>
  <outline>
    <contour>
      <point x="433" y="365" type="line"/>
      <point x="541" y="365"/>
      <point x="596" y="446"/>
      <point x="596" y="524" type="curve" smooth="yes"/>
      <point x="596" y="629"/>
      <point x="514" y="717"/>
      <point x="344" y="717" type="curve" smooth="yes"/>
      <point x="137" y="717"/>
      <point x="61" y="620"/>
      <point x="61" y="461" type="curve" smooth="yes"/>
      <point x="61" y="0" type="line"/>
      <point x="231" y="0" type="line"/>
      <point x="231" y="448" type="line" smooth="yes"/>
      <point x="231" y="549"/>
      <point x="258" y="594"/>
      <point x="340" y="594" type="curve" smooth="yes"/>
      <point x="397" y="594"/>
      <point x="431" y="565"/>
      <point x="431" y="509" type="curve" smooth="yes"/>
      <point x="431" y="456"/>
      <point x="398" y="420"/>
      <point x="342" y="419" type="curve" smooth="yes"/>
      <point x="311" y="419" type="line"/>
      <point x="294" y="298" type="line"/>
      <point x="343" y="298" type="line" smooth="yes"/>
      <point x="412" y="298"/>
      <point x="450" y="267"/>
      <point x="450" y="207" type="curve" smooth="yes"/>
      <point x="450" y="150"/>
      <point x="418" y="112"/>
      <point x="363" y="112" type="curve" smooth="yes"/>
      <point x="331" y="112"/>
      <point x="313" y="120"/>
      <point x="297" y="135" type="curve"/>
      <point x="269" y="22" type="line"/>
      <point x="296" y="3"/>
      <point x="340" y="-10"/>
      <point x="393" y="-10" type="curve" smooth="yes"/>
      <point x="545" y="-10"/>
      <point x="613" y="83"/>
      <point x="613" y="184" type="curve" smooth="yes"/>
      <point x="613" y="284"/>
      <point x="549" y="363"/>
      <point x="433" y="363" type="curve"/>
    </contour>
  </outline>
</glyph>
<glyph name="idieresis" format="2">
  <advance width="291"/>
  <unicode hex="00EF"/>
  <anchor x="146" y="0" name="bottomC"/>
  <anchor x="146" y="500" name="top"/>
  <anchor x="219" y="6" name="ogonek"/>
  <anchor x="146" y="0" name="bottom"/>
  <outline>
    <contour>
      <point x="322" y="633" type="curve" smooth="yes"/>
      <point x="322" y="684"/>
      <point x="294" y="712"/>
      <point x="242" y="712" type="curve" smooth="yes"/>
      <point x="189" y="712"/>
      <point x="161" y="684"/>
      <point x="161" y="633" type="curve" smooth="yes"/>
      <point x="161" y="582"/>
      <point x="189" y="554"/>
      <point x="242" y="554" type="curve" smooth="yes"/>
      <point x="294" y="554"/>
      <point x="322" y="582"/>
    </contour>
    <contour>
      <point x="130" y="633" type="curve" smooth="yes"/>
      <point x="130" y="684"/>
      <point x="102" y="712"/>
      <point x="49" y="712" type="curve" smooth="yes"/>
      <point x="-3" y="712"/>
      <point x="-31" y="684"/>
      <point x="-31" y="633" type="curve" smooth="yes"/>
      <point x="-31" y="582"/>
      <point x="-3" y="554"/>
      <point x="49" y="554" type="curve" smooth="yes"/>
      <point x="102" y="554"/>
      <point x="130" y="582"/>
    </contour>
    <component base="idotless"/>
  </outline>
</glyph>
<glyph name="eth" format="2">
  <advance width="604"/>
  <unicode hex="00F0"/>
  <anchor x="302" y="712" name="top"/>
  <anchor x="422" y="13" name="ogonek"/>
  <anchor x="302" y="0" name="bottom"/>
  <anchor x="302" y="0" name="bottomC"/>
  <outline>
    <contour>
      <point x="176" y="722" type="line"/>
      <point x="357" y="605"/>
      <point x="432" y="520"/>
      <point x="441" y="320" type="curve"/>
      <point x="401" y="243" type="line"/>
      <point x="401" y="159"/>
      <point x="370" y="111"/>
      <point x="304" y="111" type="curve" smooth="yes"/>
      <point x="244" y="111"/>
      <point x="213" y="153"/>
      <point x="213" y="243" type="curve" smooth="yes"/>
      <point x="213" y="340"/>
      <point x="244" y="383"/>
      <point x="306" y="383" type="curve" smooth="yes"/>
      <point x="370" y="383"/>
      <point x="401" y="340"/>
      <point x="401" y="243" type="curve"/>
      <point x="462" y="254" type="line"/>
      <point x="462" y="394"/>
      <point x="427" y="495"/>
      <point x="285" y="495" type="curve" smooth="yes"/>
      <point x="141" y="495"/>
      <point x="41" y="402"/>
      <point x="41" y="243" type="curve" smooth="yes"/>
      <point x="41" y="83"/>
      <point x="137" y="-10"/>
      <point x="293" y="-10" type="curve" smooth="yes"/>
      <point x="481" y="-10"/>
      <point x="562" y="91"/>
      <point x="562" y="303" type="curve" smooth="yes"/>
      <point x="562" y="522"/>
      <point x="450" y="658"/>
      <point x="331" y="722" type="curve"/>
    </contour>
    <contour>
      <point x="178" y="600" type="line"/>
      <point x="189" y="544" type="line"/>
      <point x="379" y="585" type="line"/>
      <point x="346" y="625" type="line"/>
    </contour>
    <contour>
      <point x="398" y="636" type="line"/>
      <point x="421" y="600" type="line"/>
      <point x="567" y="617" type="line"/>
      <point x="553" y="673" type="line"/>
    </contour>
  </outline>
</glyph>
<glyph name="thorn" format="2">
  <advance width="628"/>
  <unicode hex="00FE"/>
  <anchor x="146" y="712" name="top"/>
  <anchor x="474" y="13" name="ogonek"/>
  <anchor x="146" y="-210" name="bottom"/>
  <anchor x="393" y="0" name="bottomC"/>
  <outline>
    <contour>
      <point x="61" y="712" type="line"/>
      <point x="61" y="-210" type="line"/>
      <point x="231" y="-210" type="line"/>
      <point x="231" y="712" type="line"/>
    </contour>
    <contour>
      <point x="207" y="303" type="curve"/>
      <point x="231" y="255" type="line"/>
      <point x="231" y="341"/>
      <point x="266" y="385"/>
      <point x="323" y="385" type="curve" smooth="yes"/>
      <point x="385" y="385"/>
      <point x="417" y="344"/>
      <point x="417" y="250" type="curve" smooth="yes"/>
      <point x="417" y="156"/>
      <point x="385" y="115"/>
      <point x="323" y="115" type="curve" smooth="yes"/>
      <point x="264" y="115"/>
      <point x="231" y="162"/>
      <point x="231" y="245" type="curve"/>
      <point x="203" y="197" type="line"/>
      <point x="203" y="81"/>
      <point x="262" y="-10"/>
      <point x="381" y="-10" type="curve" smooth="yes"/>
      <point x="480" y="-10"/>
      <point x="588" y="56"/>
      <point x="588" y="255" type="curve" smooth="yes"/>
      <point x="588" y="429"/>
      <point x="500" y="510"/>
      <point x="386" y="510" type="curve" smooth="yes"/>
      <point x="266" y="510"/>
      <point x="207" y="411"/>
    </contour>
  </outline>
</glyph>
<glyph name="Imacron" format="2">
  <advance width="318"/>
  <unicode hex="012A"/>
  <anchor x="159" y="0" name="bottomC"/>
  <anchor x="159" y="660" name="top"/>
  <anchor x="245" y="0" name="ogonek"/>
  <anchor x="159" y="0" name="bottom"/>
  <outline>
    <contour>
      <point x="17" y="834" type="line"/>
      <point x="17" y="729" type="line"/>
      <point x="300" y="729" type="line"/>
      <point x="300" y="834" type="line"/>
    </contour>
    <component base="I"/>
  </outline>
</glyph>
<glyph name="iogonek" format="2">
  <advance width="291"/>
  <unicode hex="012F"/>
  <anchor x="146" y="711" name="top"/>
  <anchor x="219" y="6" name="ogonek"/>
  <anchor x="146" y="0" name="bottom"/>
  <anchor x="146" y="0" name="bottomC"/>
  <outline>
    <contour>
      <point x="157" y="27" type="line"/>
      <point x="64" y="8"/>
      <point x="4" y="-34"/>
      <point x="4" y="-104" type="curve" smooth="yes"/>
      <point x="4" y="-179"/>
      <point x="64" y="-215"/>
      <point x="142" y="-215" type="curve" smooth="yes"/>
      <point x="187" y="-215"/>
      <point x="219" y="-209"/>
      <point x="247" y="-191" type="curve"/>
      <point x="223" y="-109" type="line"/>
      <point x="211" y="-117"/>
      <point x="192" y="-120"/>
      <point x="175" y="-120" type="curve" smooth="yes"/>
      <point x="142" y="-120"/>
      <point x="123" y="-103"/>
      <point x="123" y="-77" type="curve" smooth="yes"/>
      <point x="123" y="-44"/>
      <point x="157" y="-18"/>
      <point x="231" y="0" type="curve"/>
    </contour>
    <component base="i"/>
  </outline>
</glyph>
<glyph name="Lslash" format="2">
  <advance width="644"/>
  <unicode hex="0141"/>
  <anchor x="471" y="355" name="center"/>
  <anchor x="378" y="0" name="bottom"/>
  <anchor x="201" y="660" name="top"/>
  <anchor x="377" y="0" name="bottomC"/>
  <anchor x="395" y="701" name="topright"/>
  <anchor x="618" y="0" name="ogonek"/>
  <outline>
    <contour>
      <point x="5" y="291" type="line"/>
      <point x="5" y="166" type="line"/>
      <point x="457" y="382" type="line"/>
      <point x="457" y="507" type="line"/>
    </contour>
    <component base="L" xOffset="42"/>
  </outline>
</glyph>
<glyph name="lslash" format="2">
  <advance width="394"/>
  <unicode hex="0142"/>
  <anchor x="336" y="353" name="center"/>
  <anchor x="232" y="0" name="bottom"/>
  <anchor x="180" y="712" name="top"/>
  <anchor x="255" y="0" name="bottomC"/>
  <anchor x="312" y="712" name="topright"/>
  <anchor x="315" y="0" name="ogonek"/>
  <outline>
    <contour>
      <point x="181" y="384" type="line"/>
      <point x="14" y="303" type="line"/>
      <point x="14" y="179" type="line"/>
      <point x="216" y="309" type="line"/>
      <point x="375" y="386" type="line"/>
      <point x="375" y="511" type="line"/>
    </contour>
    <component base="l" xOffset="42"/>
  </outline>
</glyph>
<glyph name="oe" format="2">
  <advance width="954"/>
  <unicode hex="0153"/>
  <anchor x="483" y="500" name="top"/>
  <anchor x="799" y="13" name="ogonek"/>
  <anchor x="483" y="0" name="bottom"/>
  <anchor x="681" y="0" name="bottomC"/>
  <outline>
    <contour>
      <point x="37" y="250" type="curve" smooth="yes"/>
      <point x="37" y="86"/>
      <point x="135" y="-10"/>
      <point x="294" y="-10" type="curve" smooth="yes"/>
      <point x="449" y="-10"/>
      <point x="534" y="86"/>
      <point x="534" y="250" type="curve" smooth="yes"/>
      <point x="534" y="414"/>
      <point x="449" y="510"/>
      <point x="294" y="510" type="curve" smooth="yes"/>
      <point x="135" y="510"/>
      <point x="37" y="414"/>
    </contour>
    <contour>
      <point x="396" y="250" type="curve" smooth="yes"/>
      <point x="396" y="151"/>
      <point x="365" y="111"/>
      <point x="302" y="111" type="curve" smooth="yes"/>
      <point x="240" y="111"/>
      <point x="209" y="151"/>
      <point x="209" y="250" type="curve" smooth="yes"/>
      <point x="209" y="348"/>
      <point x="240" y="390"/>
      <point x="302" y="390" type="curve" smooth="yes"/>
      <point x="365" y="390"/>
      <point x="396" y="348"/>
    </contour>
    <contour>
      <point x="908" y="121" type="curve"/>
      <point x="770" y="165" type="line"/>
      <point x="759" y="130"/>
      <point x="728" y="110"/>
      <point x="678" y="110" type="curve" smooth="yes"/>
      <point x="609" y="110"/>
      <point x="570" y="148"/>
      <point x="570" y="248" type="curve" smooth="yes"/>
      <point x="570" y="347"/>
      <point x="603" y="391"/>
      <point x="669" y="391" type="curve" smooth="yes"/>
      <point x="732" y="391"/>
      <point x="758" y="340"/>
      <point x="759" y="253" type="curve"/>
      <point x="839" y="291" type="line"/>
      <point x="517" y="291" type="line"/>
      <point x="517" y="212" type="line"/>
      <point x="913" y="212" type="line"/>
      <point x="916" y="225"/>
      <point x="918" y="248"/>
      <point x="918" y="270" type="curve" smooth="yes"/>
      <point x="918" y="409"/>
      <point x="832" y="510"/>
      <point x="668" y="510" type="curve" smooth="yes"/>
      <point x="524" y="510"/>
      <point x="442" y="414"/>
      <point x="442" y="250" type="curve" smooth="yes"/>
      <point x="442" y="86"/>
      <point x="525" y="-10"/>
      <point x="678" y="-10" type="curve" smooth="yes"/>
      <point x="794" y="-10"/>
      <point x="879" y="35"/>
    </contour>
  </outline>
</glyph>
<glyph name="uni0163" format="2">
  <advance width="443"/>
  <unicode hex="0163"/>
  <anchor x="159" y="250" name="center"/>
  <anchor x="253" y="-210" name="bottom"/>
  <anchor x="184" y="730" name="top"/>
  <anchor x="260" y="-210" name="bottomC"/>
  <anchor x="337" y="767" name="topright"/>
  <anchor x="283" y="-210" name="ogonek"/>
  <outline>
    <contour>
      <point x="283" y="-74" type="curve" smooth="yes"/>
      <point x="283" y="-106"/>
      <point x="261" y="-124"/>
      <point x="226" y="-124" type="curve" smooth="yes"/>
      <point x="196" y="-124"/>
      <point x="172" y="-112"/>
      <point x="157" y="-96" type="curve"/>
      <point x="117" y="-175" type="line"/>
      <point x="143" y="-199"/>
      <point x="179" y="-215"/>
      <point x="242" y="-215" type="curve" smooth="yes"/>
      <point x="324" y="-215"/>
      <point x="385" y="-176"/>
      <point x="385" y="-97" type="curve" smooth="yes"/>
      <point x="385" y="-33"/>
      <point x="328" y="17"/>
      <point x="222" y="42" type="curve"/>
      <point x="186" y="6" type="line"/>
      <point x="261" y="-18"/>
      <point x="283" y="-37"/>
    </contour>
    <component base="t"/>
  </outline>
</glyph>
<glyph name="uogonek" format="2">
  <advance width="620"/>
  <unicode hex="0173"/>
  <anchor x="306" y="500" name="top"/>
  <anchor x="499" y="-210" name="ogonek"/>
  <anchor x="306" y="-126" name="bottom"/>
  <anchor x="490" y="-210" name="bottomC"/>
  <outline>
    <contour>
      <point x="58" y="500" type="line"/>
      <point x="58" y="166" type="line" smooth="yes"/>
      <point x="58" y="40"/>
      <point x="127" y="-10"/>
      <point x="229" y="-10" type="curve" smooth="yes"/>
      <point x="343" y="-10"/>
      <point x="426" y="73"/>
      <point x="426" y="227" type="curve"/>
      <point x="389" y="238" type="line"/>
      <point x="389" y="161"/>
      <point x="348" y="120"/>
      <point x="295" y="120" type="curve" smooth="yes"/>
      <point x="253" y="120"/>
      <point x="228" y="141"/>
      <point x="228" y="209" type="curve" smooth="yes"/>
      <point x="228" y="500" type="line"/>
    </contour>
    <contour>
      <point x="559" y="0" type="curve"/>
      <point x="483" y="26" type="line"/>
      <point x="388" y="6"/>
      <point x="328" y="-34"/>
      <point x="328" y="-106" type="curve" smooth="yes"/>
      <point x="328" y="-179"/>
      <point x="383" y="-215"/>
      <point x="462" y="-215" type="curve" smooth="yes"/>
      <point x="504" y="-215"/>
      <point x="538" y="-208"/>
      <point x="565" y="-191" type="curve"/>
      <point x="543" y="-110" type="line"/>
      <point x="530" y="-117"/>
      <point x="512" y="-120"/>
      <point x="497" y="-120" type="curve" smooth="yes"/>
      <point x="464" y="-120"/>
      <point x="446" y="-105"/>
      <point x="446" y="-78" type="curve" smooth="yes"/>
      <point x="446" y="-44"/>
      <point x="484" y="-18"/>
    </contour>
    <contour>
      <point x="389" y="500" type="line"/>
      <point x="389" y="196" type="line"/>
      <point x="398" y="144" type="line"/>
      <point x="409" y="0" type="line"/>
      <point x="559" y="0" type="line"/>
      <point x="559" y="138" type="line"/>
      <point x="559" y="500" type="line"/>
    </contour>
  </outline>
</glyph>
<glyph name="breve" format="2">
  <advance width="500"/>
  <unicode hex="02D8"/>
  <anchor x="250" y="500" name="_top"/>
  <outline>
    <contour>
      <point x="309" y="718" type="line"/>
      <point x="309" y="677"/>
      <point x="287" y="650"/>
      <point x="250" y="650" type="curve" smooth="yes"/>
      <point x="213" y="650"/>
      <point x="191" y="677"/>
      <point x="191" y="718" type="curve"/>
      <point x="81" y="718" type="line"/>
      <point x="81" y="617"/>
      <point x="145" y="555"/>
      <point x="250" y="555" type="curve" smooth="yes"/>
      <point x="355" y="555"/>
      <point x="419" y="617"/>
      <point x="419" y="718" type="curve"/>
    </contour>
  </outline>
</glyph>
<glyph name="dotaccent" format="2">
  <advance width="500"/>
  <unicode hex="02D9"/>
  <anchor x="250" y="500" name="_top"/>
  <outline>
    <contour>
      <point x="159" y="642" type="curve" smooth="yes"/>
      <point x="159" y="589"/>
      <point x="191" y="561"/>
      <point x="250" y="561" type="curve" smooth="yes"/>
      <point x="311" y="561"/>
      <point x="343" y="589"/>
      <point x="343" y="642" type="curve" smooth="yes"/>
      <point x="343" y="694"/>
      <point x="311" y="722"/>
      <point x="250" y="722" type="curve" smooth="yes"/>
      <point x="191" y="722"/>
      <point x="159" y="694"/>
    </contour>
  </outline>
</glyph>
<glyph name="ring" format="2">
  <advance width="500"/>
  <unicode hex="02DA"/>
  <anchor x="251" y="500" name="_top"/>
  <outline>
    <contour>
      <point x="117" y="672" type="curve" smooth="yes"/>
      <point x="117" y="597"/>
      <point x="168" y="551"/>
      <point x="252" y="551" type="curve" smooth="yes"/>
      <point x="336" y="551"/>
      <point x="386" y="597"/>
      <point x="386" y="672" type="curve" smooth="yes"/>
      <point x="386" y="747"/>
      <point x="336" y="793"/>
      <point x="252" y="793" type="curve" smooth="yes"/>
      <point x="168" y="793"/>
      <point x="117" y="747"/>
    </contour>
    <contour>
      <point x="304" y="672" type="curve" smooth="yes"/>
      <point x="304" y="641"/>
      <point x="283" y="621"/>
      <point x="252" y="621" type="curve" smooth="yes"/>
      <point x="220" y="621"/>
      <point x="199" y="641"/>
      <point x="199" y="672" type="curve" smooth="yes"/>
      <point x="199" y="703"/>
      <point x="220" y="723"/>
      <point x="252" y="723" type="curve" smooth="yes"/>
      <point x="283" y="723"/>
      <point x="304" y="703"/>
    </contour>
  </outline>
</glyph>
<glyph name="tilde" format="2">
  <advance width="500"/>
  <unicode hex="02DC"/>
  <anchor x="250" y="500" name="_top"/>
  <outline>
    <contour>
      <point x="352" y="718" type="line"/>
      <point x="348" y="681"/>
      <point x="337" y="662"/>
      <point x="314" y="662" type="curve" smooth="yes"/>
      <point x="276" y="662"/>
      <point x="261" y="719"/>
      <point x="184" y="719" type="curve" smooth="yes"/>
      <point x="101" y="719"/>
      <point x="56" y="667"/>
      <point x="52" y="560" type="curve"/>
      <point x="148" y="560" type="line"/>
      <point x="152" y="597"/>
      <point x="163" y="616"/>
      <point x="185" y="616" type="curve" smooth="yes"/>
      <point x="225" y="616"/>
      <point x="239" y="559"/>
      <point x="316" y="559" type="curve" smooth="yes"/>
      <point x="398" y="559"/>
      <point x="444" y="611"/>
      <point x="448" y="718" type="curve"/>
    </contour>
  </outline>
</glyph>
<glyph name="hungarumlaut" format="2">
  <advance width="500"/>
  <unicode hex="02DD"/>
  <anchor x="239" y="500" name="_top"/>
  <outline>
    <contour>
      <point x="342" y="738" type="line"/>
      <point x="273" y="565" type="line"/>
      <point x="391" y="565" type="line"/>
      <point x="486" y="738" type="line"/>
    </contour>
    <contour>
      <point x="130" y="738" type="line"/>
      <point x="61" y="565" type="line"/>
      <point x="179" y="565" type="line"/>
      <point x="274" y="738" type="line"/>
    </contour>
  </outline>
</glyph>
<glyph name="pi" format="2">
  <advance width="789"/>
  <unicode hex="03C0"/>
  <outline>
    <contour>
      <point x="757" y="500" type="line"/>
      <point x="21" y="500" type="line"/>
      <point x="21" y="382" type="line"/>
      <point x="757" y="382" type="line"/>
    </contour>
    <contour>
      <point x="144" y="500" type="line"/>
      <point x="144" y="0" type="line"/>
      <point x="314" y="0" type="line"/>
      <point x="314" y="500" type="line"/>
    </contour>
    <contour>
      <point x="455" y="500" type="line"/>
      <point x="455" y="149" type="line" smooth="yes"/>
      <point x="455" y="36"/>
      <point x="511" y="-15"/>
      <point x="706" y="-3" type="curve"/>
      <point x="722" y="112" type="line"/>
      <point x="654" y="107"/>
      <point x="625" y="131"/>
      <point x="625" y="184" type="curve" smooth="yes"/>
      <point x="625" y="500" type="line"/>
    </contour>
  </outline>
</glyph>
<glyph name="dagger" format="2">
  <advance width="595"/>
  <unicode hex="2020"/>
  <outline>
    <contour>
      <point x="218" y="660" type="line"/>
      <point x="218" y="-100" type="line"/>
      <point x="376" y="-100" type="line"/>
      <point x="376" y="660" type="line"/>
    </contour>
    <contour>
      <point x="34" y="462" type="line"/>
      <point x="34" y="332" type="line"/>
      <point x="561" y="332" type="line"/>
      <point x="561" y="462" type="line"/>
    </contour>
  </outline>
</glyph>
<glyph name="bullet" format="2">
  <advance width="430"/>
  <unicode hex="2022"/>
  <outline>
    <contour>
      <point x="61" y="333" type="curve" smooth="yes"/>
      <point x="61" y="241"/>
      <point x="120" y="184"/>
      <point x="215" y="184" type="curve" smooth="yes"/>
      <point x="310" y="184"/>
      <point x="369" y="241"/>
      <point x="369" y="333" type="curve" smooth="yes"/>
      <point x="369" y="424"/>
      <point x="310" y="481"/>
      <point x="215" y="481" type="curve" smooth="yes"/>
      <point x="120" y="481"/>
      <point x="61" y="424"/>
    </contour>
  </outline>
</glyph>
<glyph name="fraction" format="2">
  <advance width="263"/>
  <unicode hex="2044"/>
  <outline>
    <contour>
      <point x="-47" y="0" type="line"/>
      <point x="430" y="661" type="line"/>
      <point x="310" y="661" type="line"/>
      <point x="-167" y="0" type="line"/>
    </contour>
  </outline>
</glyph>
<glyph name="zerosuperior" format="2">
  <advance width="413"/>
  <unicode hex="2070"/>
  <outline>
    <contour>
      <point x="388" y="531" type="curve" smooth="yes"/>
      <point x="388" y="669"/>
      <point x="329" y="735"/>
      <point x="206" y="735" type="curve" smooth="yes"/>
      <point x="83" y="735"/>
      <point x="24" y="669"/>
      <point x="24" y="531" type="curve" smooth="yes"/>
      <point x="24" y="393"/>
      <point x="83" y="327"/>
      <point x="206" y="327" type="curve" smooth="yes"/>
      <point x="329" y="327"/>
      <point x="388" y="393"/>
    </contour>
    <contour>
      <point x="147" y="531" type="curve" smooth="yes"/>
      <point x="147" y="615"/>
      <point x="164" y="647"/>
      <point x="206" y="647" type="curve" smooth="yes"/>
      <point x="249" y="647"/>
      <point x="266" y="615"/>
      <point x="266" y="531" type="curve" smooth="yes"/>
      <point x="266" y="447"/>
      <point x="249" y="415"/>
      <point x="206" y="415" type="curve" smooth="yes"/>
      <point x="164" y="415"/>
      <point x="147" y="447"/>
    </contour>
  </outline>
</glyph>
<glyph name="sixsuperior" format="2">
  <advance width="401"/>
  <unicode hex="2076"/>
  <anchor x="211" y="532" name="_indexring"/>
  <outline>
    <contour>
      <point x="380" y="455" type="curve" smooth="yes"/>
      <point x="380" y="538"/>
      <point x="322" y="575"/>
      <point x="247" y="575" type="curve" smooth="yes"/>
      <point x="198" y="575"/>
      <point x="166" y="562"/>
      <point x="143" y="533" type="curve"/>
      <point x="142" y="533" type="line"/>
      <point x="142" y="536"/>
      <point x="142" y="540"/>
      <point x="142" y="544" type="curve" smooth="yes"/>
      <point x="142" y="604"/>
      <point x="171" y="648"/>
      <point x="221" y="648" type="curve" smooth="yes"/>
      <point x="254" y="648"/>
      <point x="274" y="630"/>
      <point x="281" y="603" type="curve"/>
      <point x="376" y="649" type="line"/>
      <point x="347" y="713"/>
      <point x="294" y="735"/>
      <point x="219" y="735" type="curve" smooth="yes"/>
      <point x="109" y="735"/>
      <point x="27" y="669"/>
      <point x="27" y="531" type="curve" smooth="yes"/>
      <point x="27" y="393"/>
      <point x="93" y="327"/>
      <point x="208" y="327" type="curve" smooth="yes"/>
      <point x="319" y="327"/>
      <point x="380" y="374"/>
    </contour>
    <contour>
      <point x="158" y="458" type="curve" smooth="yes"/>
      <point x="158" y="485"/>
      <point x="178" y="505"/>
      <point x="212" y="505" type="curve" smooth="yes"/>
      <point x="246" y="505"/>
      <point x="265" y="487"/>
      <point x="265" y="458" type="curve" smooth="yes"/>
      <point x="265" y="428"/>
      <point x="245" y="412"/>
      <point x="211" y="412" type="curve" smooth="yes"/>
      <point x="178" y="412"/>
      <point x="158" y="429"/>
    </contour>
  </outline>
</glyph>
<glyph name="sevensuperior" format="2">
  <advance width="355"/>
  <unicode hex="2077"/>
  <anchor x="173" y="544" name="_indexring"/>
  <outline>
    <contour>
      <point x="226" y="333" type="line"/>
      <point x="226" y="449"/>
      <point x="252" y="560"/>
      <point x="347" y="650" type="curve"/>
      <point x="347" y="730" type="line"/>
      <point x="10" y="730" type="line"/>
      <point x="10" y="632" type="line"/>
      <point x="304" y="632" type="line"/>
      <point x="269" y="677" type="line"/>
      <point x="160" y="593"/>
      <point x="101" y="462"/>
      <point x="101" y="333" type="curve"/>
    </contour>
  </outline>
</glyph>
<glyph name="eightsuperior" format="2">
  <advance width="417"/>
  <unicode hex="2078"/>
  <anchor x="208" y="529" name="_indexring"/>
  <outline>
    <contour>
      <point x="41" y="620" type="curve" smooth="yes"/>
      <point x="41" y="579"/>
      <point x="65" y="546"/>
      <point x="110" y="533" type="curve"/>
      <point x="110" y="532" type="line"/>
      <point x="58" y="518"/>
      <point x="30" y="487"/>
      <point x="30" y="442" type="curve" smooth="yes"/>
      <point x="30" y="369"/>
      <point x="98" y="327"/>
      <point x="208" y="327" type="curve" smooth="yes"/>
      <point x="319" y="327"/>
      <point x="386" y="369"/>
      <point x="386" y="442" type="curve" smooth="yes"/>
      <point x="386" y="488"/>
      <point x="358" y="518"/>
      <point x="305" y="532" type="curve"/>
      <point x="305" y="533" type="line"/>
      <point x="352" y="548"/>
      <point x="375" y="580"/>
      <point x="375" y="620" type="curve" smooth="yes"/>
      <point x="375" y="690"/>
      <point x="311" y="735"/>
      <point x="208" y="735" type="curve" smooth="yes"/>
      <point x="105" y="735"/>
      <point x="41" y="690"/>
    </contour>
    <contour>
      <point x="259" y="615" type="curve" smooth="yes"/>
      <point x="259" y="589"/>
      <point x="241" y="574"/>
      <point x="208" y="574" type="curve" smooth="yes"/>
      <point x="176" y="574"/>
      <point x="157" y="589"/>
      <point x="157" y="615" type="curve" smooth="yes"/>
      <point x="157" y="642"/>
      <point x="175" y="656"/>
      <point x="208" y="656" type="curve" smooth="yes"/>
      <point x="241" y="656"/>
      <point x="259" y="642"/>
    </contour>
    <contour>
      <point x="152" y="449" type="curve" smooth="yes"/>
      <point x="152" y="477"/>
      <point x="173" y="493"/>
      <point x="208" y="493" type="curve" smooth="yes"/>
      <point x="244" y="493"/>
      <point x="265" y="477"/>
      <point x="265" y="449" type="curve" smooth="yes"/>
      <point x="265" y="422"/>
      <point x="244" y="406"/>
      <point x="208" y="406" type="curve" smooth="yes"/>
      <point x="173" y="406"/>
      <point x="152" y="422"/>
    </contour>
  </outline>
</glyph>
<glyph name="ninesuperior" format="2">
  <advance width="406"/>
  <unicode hex="2079"/>
  <anchor x="191" y="531" name="_indexring"/>
  <outline>
    <contour>
      <point x="23" y="604" type="curve" smooth="yes"/>
      <point x="23" y="530"/>
      <point x="81" y="479"/>
      <point x="170" y="479" type="curve" smooth="yes"/>
      <point x="212" y="479"/>
      <point x="249" y="497"/>
      <point x="262" y="522" type="curve"/>
      <point x="263" y="522" type="line"/>
      <point x="264" y="517"/>
      <point x="264" y="513"/>
      <point x="264" y="508" type="curve" smooth="yes"/>
      <point x="264" y="456"/>
      <point x="246" y="414"/>
      <point x="195" y="414" type="curve" smooth="yes"/>
      <point x="157" y="414"/>
      <point x="141" y="426"/>
      <point x="136" y="454" type="curve"/>
      <point x="30" y="421" type="line"/>
      <point x="51" y="350"/>
      <point x="110" y="327"/>
      <point x="187" y="327" type="curve" smooth="yes"/>
      <point x="300" y="327"/>
      <point x="379" y="388"/>
      <point x="379" y="531" type="curve" smooth="yes"/>
      <point x="379" y="668"/>
      <point x="311" y="735"/>
      <point x="195" y="735" type="curve" smooth="yes"/>
      <point x="90" y="735"/>
      <point x="23" y="689"/>
    </contour>
    <contour>
      <point x="247" y="603" type="curve" smooth="yes"/>
      <point x="247" y="575"/>
      <point x="226" y="557"/>
      <point x="193" y="557" type="curve" smooth="yes"/>
      <point x="159" y="557"/>
      <point x="140" y="573"/>
      <point x="140" y="603" type="curve" smooth="yes"/>
      <point x="140" y="633"/>
      <point x="159" y="650"/>
      <point x="193" y="650" type="curve" smooth="yes"/>
      <point x="226" y="650"/>
      <point x="247" y="632"/>
    </contour>
  </outline>
</glyph>
<glyph name="plussuperior" format="2">
  <advance width="353"/>
  <unicode hex="207A"/>
  <outline>
    <contour>
      <point x="330" y="489" type="line"/>
      <point x="330" y="574" type="line"/>
      <point x="23" y="574" type="line"/>
      <point x="23" y="489" type="line"/>
    </contour>
    <contour>
      <point x="223" y="378" type="line"/>
      <point x="223" y="685" type="line"/>
      <point x="132" y="685" type="line"/>
      <point x="132" y="378" type="line"/>
    </contour>
  </outline>
</glyph>
<glyph name="equalsuperior" format="2">
  <advance width="405"/>
  <unicode hex="207C"/>
  <outline>
    <contour>
      <point x="351" y="412" type="line"/>
      <point x="351" y="501" type="line"/>
      <point x="55" y="501" type="line"/>
      <point x="55" y="412" type="line"/>
    </contour>
    <contour>
      <point x="351" y="566" type="line"/>
      <point x="351" y="655" type="line"/>
      <point x="55" y="655" type="line"/>
      <point x="55" y="566" type="line"/>
    </contour>
  </outline>
</glyph>
<glyph name="parenleftsuperior" format="2">
  <advance width="257"/>
  <unicode hex="207D"/>
  <outline>
    <contour>
      <point x="57" y="531" type="curve" smooth="yes"/>
      <point x="57" y="406"/>
      <point x="104" y="312"/>
      <point x="194" y="249" type="curve"/>
      <point x="258" y="304" type="line"/>
      <point x="196" y="363"/>
      <point x="172" y="424"/>
      <point x="172" y="531" type="curve" smooth="yes"/>
      <point x="172" y="638"/>
      <point x="196" y="699"/>
      <point x="258" y="758" type="curve"/>
      <point x="194" y="813" type="line"/>
      <point x="104" y="750"/>
      <point x="57" y="656"/>
    </contour>
  </outline>
</glyph>
<glyph name="trademark" format="2">
  <advance width="828"/>
  <unicode hex="2122"/>
  <outline>
    <contour>
      <point x="124" y="660" type="line"/>
      <point x="124" y="330" type="line"/>
      <point x="224" y="330" type="line"/>
      <point x="224" y="660" type="line"/>
    </contour>
    <contour>
      <point x="22" y="660" type="line"/>
      <point x="22" y="586" type="line"/>
      <point x="326" y="586" type="line"/>
      <point x="326" y="660" type="line"/>
    </contour>
    <contour>
      <point x="646" y="660" type="line"/>
      <point x="596" y="509" type="line"/>
      <point x="580" y="445" type="line"/>
      <point x="577" y="445" type="line"/>
      <point x="560" y="509" type="line"/>
      <point x="511" y="660" type="line"/>
      <point x="368" y="660" type="line"/>
      <point x="368" y="330" type="line"/>
      <point x="467" y="330" type="line"/>
      <point x="467" y="460" type="line"/>
      <point x="462" y="562" type="line"/>
      <point x="464" y="562" type="line"/>
      <point x="483" y="493" type="line"/>
      <point x="538" y="330" type="line"/>
      <point x="618" y="330" type="line"/>
      <point x="671" y="492" type="line"/>
      <point x="691" y="562" type="line"/>
      <point x="693" y="562" type="line"/>
      <point x="688" y="460" type="line"/>
      <point x="688" y="330" type="line"/>
      <point x="786" y="330" type="line"/>
      <point x="786" y="660" type="line"/>
    </contour>
  </outline>
</glyph>
<glyph name="uni2126" format="2">
  <advance width="778"/>
  <unicode hex="2126"/>
  <outline>
    <contour>
      <point x="65" y="352" type="curve" smooth="yes"/>
      <point x="65" y="197"/>
      <point x="163" y="101"/>
      <point x="327" y="84" type="curve"/>
      <point x="349" y="116" type="line"/>
      <point x="276" y="128"/>
      <point x="240" y="197"/>
      <point x="240" y="326" type="curve" smooth="yes"/>
      <point x="240" y="462"/>
      <point x="293" y="535"/>
      <point x="389" y="535" type="curve" smooth="yes"/>
      <point x="484" y="535"/>
      <point x="538" y="462"/>
      <point x="538" y="326" type="curve" smooth="yes"/>
      <point x="538" y="197"/>
      <point x="501" y="128"/>
      <point x="428" y="116" type="curve"/>
      <point x="450" y="84" type="line"/>
      <point x="614" y="101"/>
      <point x="712" y="197"/>
      <point x="712" y="352" type="curve" smooth="yes"/>
      <point x="712" y="548"/>
      <point x="589" y="670"/>
      <point x="389" y="670" type="curve" smooth="yes"/>
      <point x="188" y="670"/>
      <point x="65" y="548"/>
    </contour>
    <contour>
      <point x="59" y="0" type="line"/>
      <point x="349" y="0" type="line"/>
      <point x="349" y="116" type="line"/>
      <point x="59" y="116" type="line"/>
    </contour>
    <contour>
      <point x="428" y="116" type="line"/>
      <point x="428" y="0" type="line"/>
      <point x="719" y="0" type="line"/>
      <point x="719" y="116" type="line"/>
    </contour>
  </outline>
</glyph>
<glyph name="estimated" format="2">
  <advance width="775"/>
  <unicode hex="212E"/>
  <outline>
    <contour>
      <point x="50" y="330" type="curve" smooth="yes"/>
      <point x="50" y="124"/>
      <point x="184" y="-10"/>
      <point x="410" y="-10" type="curve" smooth="yes"/>
      <point x="536" y="-10"/>
      <point x="643" y="35"/>
      <point x="697" y="131" type="curve"/>
      <point x="697" y="224" type="line"/>
      <point x="625" y="102"/>
      <point x="527" y="57"/>
      <point x="409" y="57" type="curve" smooth="yes"/>
      <point x="318" y="57"/>
      <point x="243" y="86"/>
      <point x="195" y="140" type="curve"/>
      <point x="195" y="297" type="line"/>
      <point x="725" y="297" type="line"/>
      <point x="728" y="542"/>
      <point x="602" y="670"/>
      <point x="390" y="670" type="curve" smooth="yes"/>
      <point x="184" y="670"/>
      <point x="50" y="536"/>
    </contour>
    <contour>
      <point x="585" y="526" type="curve"/>
      <point x="585" y="365" type="line"/>
      <point x="195" y="365" type="line"/>
      <point x="195" y="521" type="line"/>
      <point x="237" y="573"/>
      <point x="300" y="603"/>
      <point x="391" y="603" type="curve" smooth="yes"/>
      <point x="480" y="603"/>
      <point x="543" y="574"/>
    </contour>
  </outline>
</glyph>
<glyph name="nearrow" format="2">
  <advance width="750"/>
  <unicode hex="2197"/>
  <outline>
    <contour>
      <point x="372" y="235" type="line" smooth="yes"/>
      <point x="449" y="311"/>
      <point x="534" y="404"/>
      <point x="578" y="477" type="curve"/>
      <point x="601" y="572" type="line"/>
      <point x="506" y="549" type="line"/>
      <point x="433" y="505"/>
      <point x="341" y="421"/>
      <point x="264" y="343" type="curve" smooth="yes"/>
      <point x="97" y="176" type="line"/>
      <point x="205" y="68" type="line"/>
    </contour>
    <contour>
      <point x="647" y="122" type="line"/>
      <point x="620" y="274"/>
      <point x="625" y="459"/>
      <point x="643" y="610" type="curve"/>
      <point x="639" y="614" type="line"/>
      <point x="488" y="596"/>
      <point x="303" y="591"/>
      <point x="151" y="618" type="curve"/>
      <point x="144" y="467" type="line"/>
      <point x="350" y="451"/>
      <point x="513" y="500"/>
      <point x="606" y="553" type="curve"/>
      <point x="582" y="577" type="line"/>
      <point x="529" y="484"/>
      <point x="480" y="321"/>
      <point x="496" y="115" type="curve"/>
    </contour>
  </outline>
</glyph>
<glyph name="uni2206" format="2">
  <advance width="733"/>
  <unicode hex="2206"/>
  <outline>
    <contour>
      <point x="279" y="660" type="line"/>
      <point x="40" y="104" type="line"/>
      <point x="40" y="0" type="line"/>
      <point x="693" y="0" type="line"/>
      <point x="693" y="104" type="line"/>
      <point x="454" y="660" type="line"/>
    </contour>
    <contour>
      <point x="557" y="120" type="line"/>
      <point x="177" y="120" type="line"/>
      <point x="366" y="561" type="line"/>
    </contour>
  </outline>
</glyph>
<glyph name="lessequal" format="2">
  <advance width="604"/>
  <unicode hex="2264"/>
  <outline>
    <contour>
      <point x="61" y="503" type="line"/>
      <point x="61" y="387" type="line"/>
      <point x="550" y="512" type="line"/>
      <point x="550" y="655" type="line"/>
    </contour>
    <contour>
      <point x="61" y="0" type="line"/>
      <point x="550" y="0" type="line"/>
      <point x="550" y="123" type="line"/>
      <point x="61" y="123" type="line"/>
    </contour>
    <contour>
      <point x="61" y="430" type="line"/>
      <point x="61" y="313" type="line"/>
      <point x="550" y="162" type="line"/>
      <point x="550" y="305" type="line"/>
    </contour>
  </outline>
</glyph>
<glyph name="lozenge" format="2">
  <advance width="653"/>
  <unicode hex="25CA"/>
  <outline>
    <contour>
      <point x="278" y="660" type="line"/>
      <point x="447" y="330" type="line"/>
      <point x="606" y="330" type="line"/>
      <point x="413" y="660" type="line"/>
    </contour>
    <contour>
      <point x="47" y="330" type="line"/>
      <point x="239" y="0" type="line"/>
      <point x="374" y="0" type="line"/>
      <point x="206" y="330" type="line"/>
    </contour>
    <contour>
      <point x="447" y="330" type="line"/>
      <point x="278" y="0" type="line"/>
      <point x="413" y="0" type="line"/>
      <point x="606" y="330" type="line"/>
    </contour>
    <contour>
      <point x="239" y="660" type="line"/>
      <point x="47" y="330" type="line"/>
      <point x="206" y="330" type="line"/>
      <point x="374" y="660" type="line"/>
    </contour>
  </outline>
</glyph>
<glyph name="A.swsh" format="2">
  <advance width="913"/>
  <anchor x="574" y="660" name="top"/>
  <anchor x="909" y="0" name="ogonek"/>
  <anchor x="574" y="0" name="bottom"/>
  <outline>
    <contour>
      <point x="428" y="79" type="curve" smooth="yes"/>
      <point x="545" y="425" type="line"/>
      <point x="572" y="528" type="line"/>
      <point x="574" y="528" type="line"/>
      <point x="603" y="424" type="line"/>
      <point x="732" y="0" type="line"/>
      <point x="909" y="0" type="line"/>
      <point x="678" y="660" type="line"/>
      <point x="472" y="660" type="line"/>
      <point x="291" y="147" type="line" smooth="yes"/>
      <point x="258" y="53"/>
      <point x="226" y="18"/>
      <point x="165" y="18" type="curve" smooth="yes"/>
      <point x="112" y="18"/>
      <point x="80" y="33"/>
      <point x="56" y="90" type="curve"/>
      <point x="-1" y="-19" type="line"/>
      <point x="20" y="-80"/>
      <point x="85" y="-110"/>
      <point x="175" y="-110" type="curve" smooth="yes"/>
      <point x="319" y="-110"/>
      <point x="390" y="-44"/>
    </contour>
    <contour>
      <point x="758" y="149" type="line"/>
      <point x="758" y="266" type="line"/>
      <point x="391" y="266" type="line"/>
      <point x="391" y="149" type="line"/>
    </contour>
    <component base="__swash_topleft" xOffset="24"/>
  </outline>
</glyph>
<glyph name="Adieresis.titl.001" format="2">
  <advance width="677"/>
  <outline>
    <contour>
      <point x="177" y="0" type="line"/>
      <point x="309" y="425" type="line"/>
      <point x="336" y="528" type="line"/>
      <point x="338" y="528" type="line"/>
      <point x="367" y="424" type="line"/>
      <point x="496" y="0" type="line"/>
      <point x="673" y="0" type="line"/>
      <point x="442" y="660" type="line"/>
      <point x="236" y="660" type="line"/>
      <point x="4" y="0" type="line"/>
    </contour>
    <contour>
      <point x="522" y="149" type="line"/>
      <point x="522" y="266" type="line"/>
      <point x="155" y="266" type="line"/>
      <point x="155" y="149" type="line"/>
    </contour>
    <contour>
      <point x="163" y="524" type="curve"/>
      <point x="204" y="643" type="line"/>
      <point x="192" y="655"/>
      <point x="174" y="662"/>
      <point x="152" y="662" type="curve" smooth="yes"/>
      <point x="103" y="662"/>
      <point x="75" y="636"/>
      <point x="75" y="592" type="curve" smooth="yes"/>
      <point x="75" y="549"/>
      <point x="103" y="522"/>
      <point x="152" y="522" type="curve" smooth="yes"/>
      <point x="156" y="522"/>
      <point x="160" y="523"/>
    </contour>
    <contour>
      <point x="602" y="592" type="curve" smooth="yes"/>
      <point x="602" y="636"/>
      <point x="574" y="662"/>
      <point x="526" y="662" type="curve" smooth="yes"/>
      <point x="503" y="662"/>
      <point x="485" y="655"/>
      <point x="473" y="643" type="curve"/>
      <point x="514" y="524" type="line"/>
      <point x="517" y="523"/>
      <point x="521" y="522"/>
      <point x="526" y="522" type="curve" smooth="yes"/>
      <point x="574" y="522"/>
      <point x="602" y="549"/>
    </contour>
  </outline>
</glyph>
<glyph name="E.swsh.001" format="2">
  <advance width="831"/>
  <anchor x="334" y="660" name="top"/>
  <anchor x="581" y="0" name="ogonek"/>
  <anchor x="333" y="0" name="bottom"/>
  <anchor x="333" y="0" name="bottomC"/>
  <outline>
    <contour>
      <point x="597" y="270" type="line"/>
      <point x="648" y="266"/>
      <point x="673" y="241"/>
      <point x="673" y="199" type="curve" smooth="yes"/>
      <point x="673" y="153"/>
      <point x="642" y="133"/>
      <point x="576" y="133" type="curve" smooth="yes"/>
      <point x="424" y="133" type="line"/>
      <point x="424" y="0" type="line"/>
      <point x="601" y="0" type="line" smooth="yes"/>
      <point x="735" y="0"/>
      <point x="821" y="58"/>
      <point x="821" y="194" type="curve" smooth="yes"/>
      <point x="821" y="293"/>
      <point x="764" y="361"/>
      <point x="654" y="376" type="curve"/>
    </contour>
    <contour>
      <point x="73" y="0" type="line"/>
      <point x="245" y="0" type="line"/>
      <point x="245" y="660" type="line"/>
      <point x="73" y="660" type="line"/>
    </contour>
    <contour>
      <point x="157" y="265" type="line"/>
      <point x="449" y="265" type="line"/>
      <point x="449" y="389" type="line"/>
      <point x="157" y="389" type="line"/>
    </contour>
    <contour>
      <point x="157" y="527" type="line"/>
      <point x="622" y="527" type="line"/>
      <point x="622" y="660" type="line"/>
      <point x="157" y="660" type="line"/>
    </contour>
    <contour>
      <point x="157" y="0" type="line"/>
      <point x="541" y="0" type="line"/>
      <point x="541" y="133" type="line"/>
      <point x="157" y="133" type="line"/>
    </contour>
  </outline>
</glyph>
<glyph name="Euro.tf" format="2">
  <advance width="604"/>
  <outline>
    <contour>
      <point x="14" y="287" type="line"/>
      <point x="14" y="209" type="line"/>
      <point x="355" y="209" type="line"/>
      <point x="373" y="287" type="line"/>
    </contour>
    <contour>
      <point x="14" y="425" type="line"/>
      <point x="14" y="348" type="line"/>
      <point x="387" y="348" type="line"/>
      <point x="406" y="425" type="line"/>
    </contour>
    <component base="euro.part.tf" xOffset="-6"/>
  </outline>
</glyph>
<glyph name="G.ss04" format="2">
  <advance width="723"/>
  <anchor x="368" y="660" name="top"/>
  <anchor x="422" y="0" name="ogonek"/>
  <anchor x="389" y="0" name="bottom"/>
  <anchor x="367" y="0" name="bottomC"/>
  <outline>
    <contour>
      <point x="675" y="277" type="curve" smooth="yes"/>
      <point x="675" y="358" type="line"/>
      <point x="367" y="358" type="line"/>
      <point x="367" y="247" type="line"/>
      <point x="607" y="247" type="line"/>
      <point x="528" y="291" type="line"/>
      <point x="528" y="240" type="line" smooth="yes"/>
      <point x="528" y="184"/>
      <point x="484" y="125"/>
      <point x="387" y="125" type="curve" smooth="yes"/>
      <point x="275" y="125"/>
      <point x="221" y="189"/>
      <point x="221" y="330" type="curve" smooth="yes"/>
      <point x="221" y="465"/>
      <point x="281" y="535"/>
      <point x="374" y="535" type="curve" smooth="yes"/>
      <point x="444" y="535"/>
      <point x="487" y="504"/>
      <point x="504" y="438" type="curve"/>
      <point x="663" y="501" type="line"/>
      <point x="611" y="620"/>
      <point x="523" y="670"/>
      <point x="373" y="670" type="curve" smooth="yes"/>
      <point x="170" y="670"/>
      <point x="45" y="542"/>
      <point x="45" y="329" type="curve" smooth="yes"/>
      <point x="45" y="110"/>
      <point x="175" y="-10"/>
      <point x="370" y="-10" type="curve" smooth="yes"/>
      <point x="555" y="-10"/>
      <point x="675" y="81"/>
    </contour>
  </outline>
</glyph>
<glyph name="IJ.ss05" format="2">
  <advance width="662"/>
  <outline>
    <contour>
      <point x="73" y="660" type="line"/>
      <point x="73" y="290" type="line"/>
      <point x="245" y="290" type="line"/>
      <point x="245" y="660" type="line"/>
    </contour>
    <contour>
      <point x="429" y="660" type="line"/>
      <point x="429" y="257" type="line" smooth="yes"/>
      <point x="429" y="167"/>
      <point x="396" y="125"/>
      <point x="334" y="125" type="curve" smooth="yes"/>
      <point x="269" y="125"/>
      <point x="236" y="157"/>
      <point x="246" y="225" type="curve"/>
      <point x="75" y="225" type="line"/>
      <point x="56" y="70"/>
      <point x="154" y="-10"/>
      <point x="330" y="-10" type="curve" smooth="yes"/>
      <point x="497" y="-10"/>
      <point x="601" y="88"/>
      <point x="601" y="254" type="curve" smooth="yes"/>
      <point x="601" y="660" type="line"/>
    </contour>
  </outline>
</glyph>
<glyph name="M.swsh.001" format="2">
  <advance width="1158"/>
  <anchor x="703" y="660" name="top"/>
  <anchor x="1085" y="0" name="ogonek"/>
  <anchor x="703" y="0" name="bottom"/>
  <anchor x="724" y="0" name="bottomC"/>
  <outline>
    <contour>
      <point x="254" y="364" type="line"/>
      <point x="198" y="370"/>
      <point x="164" y="405"/>
      <point x="164" y="451" type="curve" smooth="yes"/>
      <point x="164" y="502"/>
      <point x="197" y="534"/>
      <point x="261" y="534" type="curve" smooth="yes"/>
      <point x="489" y="534" type="line"/>
      <point x="489" y="660" type="line"/>
      <point x="254" y="660" type="line" smooth="yes"/>
      <point x="96" y="660"/>
      <point x="10" y="584"/>
      <point x="10" y="454" type="curve" smooth="yes"/>
      <point x="10" y="332"/>
      <point x="92" y="256"/>
      <point x="204" y="248" type="curve"/>
    </contour>
    <component base="M" xOffset="248"/>
  </outline>
</glyph>
<glyph name="N.swsh" format="2">
  <advance width="741"/>
  <anchor x="372" y="660" name="top"/>
  <anchor x="668" y="0" name="ogonek"/>
  <anchor x="383" y="0" name="bottom"/>
  <anchor x="551" y="0" name="bottomC"/>
  <outline>
    <contour>
      <point x="225" y="0" type="line"/>
      <point x="225" y="333" type="line"/>
      <point x="221" y="457" type="line"/>
      <point x="222" y="457" type="line"/>
      <point x="272" y="357" type="line"/>
      <point x="477" y="0" type="line"/>
      <point x="668" y="0" type="line"/>
      <point x="668" y="437" type="line"/>
      <point x="516" y="461" type="line"/>
      <point x="516" y="327" type="line"/>
      <point x="520" y="203" type="line"/>
      <point x="519" y="203" type="line"/>
      <point x="469" y="303" type="line"/>
      <point x="264" y="660" type="line"/>
      <point x="73" y="660" type="line"/>
      <point x="73" y="0" type="line"/>
    </contour>
    <contour>
      <point x="668" y="385" type="line"/>
      <point x="668" y="487" type="line" smooth="yes"/>
      <point x="668" y="557"/>
      <point x="705" y="599"/>
      <point x="768" y="599" type="curve" smooth="yes"/>
      <point x="826" y="599"/>
      <point x="854" y="577"/>
      <point x="875" y="528" type="curve"/>
      <point x="940" y="630" type="line"/>
      <point x="907" y="691"/>
      <point x="850" y="726"/>
      <point x="748" y="726" type="curve" smooth="yes"/>
      <point x="606" y="726"/>
      <point x="516" y="654"/>
      <point x="516" y="506" type="curve" smooth="yes"/>
      <point x="516" y="428" type="line"/>
    </contour>
  </outline>
</glyph>
<glyph name="R.swsh" format="2">
  <advance width="937"/>
  <anchor x="577" y="660" name="top"/>
  <anchor x="923" y="0" name="ogonek"/>
  <anchor x="611" y="0" name="bottom"/>
  <anchor x="838" y="0" name="bottomC"/>
  <outline>
    <contour>
      <point x="636" y="241" type="line" smooth="yes"/>
      <point x="795" y="241"/>
      <point x="885" y="315"/>
      <point x="885" y="450" type="curve" smooth="yes"/>
      <point x="885" y="586"/>
      <point x="795" y="660"/>
      <point x="636" y="660" type="curve" smooth="yes"/>
      <point x="432" y="660" type="line"/>
      <point x="432" y="530" type="line"/>
      <point x="607" y="530" type="line" smooth="yes"/>
      <point x="680" y="530"/>
      <point x="712" y="505"/>
      <point x="712" y="447" type="curve" smooth="yes"/>
      <point x="712" y="388"/>
      <point x="680" y="363"/>
      <point x="607" y="363" type="curve" smooth="yes"/>
      <point x="432" y="363" type="line"/>
      <point x="432" y="241" type="line"/>
    </contour>
    <contour>
      <point x="490" y="116" type="curve" smooth="yes"/>
      <point x="490" y="208" type="line"/>
      <point x="321" y="208" type="line"/>
      <point x="321" y="117" type="line" smooth="yes"/>
      <point x="321" y="57"/>
      <point x="286" y="17"/>
      <point x="230" y="17" type="curve" smooth="yes"/>
      <point x="172" y="17"/>
      <point x="141" y="40"/>
      <point x="119" y="96" type="curve"/>
      <point x="50" y="-2" type="line"/>
      <point x="82" y="-73"/>
      <point x="148" y="-110"/>
      <point x="251" y="-110" type="curve" smooth="yes"/>
      <point x="396" y="-110"/>
      <point x="490" y="-39"/>
    </contour>
    <contour>
      <point x="490" y="197" type="line"/>
      <point x="490" y="660" type="line"/>
      <point x="321" y="660" type="line"/>
      <point x="321" y="197" type="line"/>
    </contour>
    <contour>
      <point x="923" y="0" type="line"/>
      <point x="713" y="327" type="line"/>
      <point x="565" y="289" type="line"/>
      <point x="734" y="0" type="line"/>
    </contour>
    <component base="__swash_topleft" xOffset="-28"/>
  </outline>
</glyph>
<glyph name="W.swsh" format="2">
  <advance width="1292"/>
  <anchor x="794" y="660" name="top"/>
  <anchor x="1092" y="0" name="ogonek"/>
  <anchor x="794" y="0" name="bottom"/>
  <anchor x="1003" y="0" name="bottomC"/>
  <outline>
    <contour>
      <point x="256" y="364" type="line"/>
      <point x="197" y="370"/>
      <point x="164" y="405"/>
      <point x="164" y="451" type="curve" smooth="yes"/>
      <point x="164" y="502"/>
      <point x="196" y="534"/>
      <point x="264" y="534" type="curve" smooth="yes"/>
      <point x="405" y="534" type="line"/>
      <point x="405" y="660" type="line"/>
      <point x="254" y="660" type="line" smooth="yes"/>
      <point x="96" y="660"/>
      <point x="10" y="584"/>
      <point x="10" y="454" type="curve" smooth="yes"/>
      <point x="10" y="333"/>
      <point x="92" y="253"/>
      <point x="204" y="248" type="curve"/>
    </contour>
    <component base="W" xOffset="295"/>
  </outline>
</glyph>
<glyph name="__swash_topleft" format="2">
  <advance width="513"/>
  <outline>
    <contour>
      <point x="282" y="364" type="line"/>
      <point x="226" y="370"/>
      <point x="192" y="405"/>
      <point x="192" y="451" type="curve" smooth="yes"/>
      <point x="192" y="502"/>
      <point x="225" y="534"/>
      <point x="288" y="534" type="curve" smooth="yes"/>
      <point x="517" y="534" type="line"/>
      <point x="517" y="660" type="line"/>
      <point x="281" y="660" type="line" smooth="yes"/>
      <point x="124" y="660"/>
      <point x="38" y="584"/>
      <point x="38" y="454" type="curve" smooth="yes"/>
      <point x="38" y="332"/>
      <point x="119" y="256"/>
      <point x="231" y="248" type="curve"/>
    </contour>
  </outline>
</glyph>
<glyph name="a.sc" format="2">
  <advance width="629"/>
  <anchor x="314" y="560" name="top"/>
  <anchor x="622" y="0" name="ogonek"/>
  <anchor x="314" y="0" name="bottom"/>
  <anchor x="546" y="0" name="bottomC"/>
  <outline>
    <contour>
      <point x="168" y="0" type="line"/>
      <point x="259" y="265" type="line"/>
      <point x="310" y="436" type="line"/>
      <point x="313" y="436" type="line"/>
      <point x="364" y="265" type="line"/>
      <point x="454" y="0" type="line"/>
      <point x="622" y="0" type="line"/>
      <point x="416" y="560" type="line"/>
      <point x="213" y="560" type="line"/>
      <point x="7" y="0" type="line"/>
    </contour>
    <contour>
      <point x="482" y="116" type="line"/>
      <point x="482" y="230" type="line"/>
      <point x="147" y="230" type="line"/>
      <point x="147" y="116" type="line"/>
    </contour>
  </outline>
</glyph>
<glyph name="adieresis.titl.sc" format="2">
  <advance width="629"/>
  <outline>
    <contour>
      <point x="267" y="619" type="curve" smooth="yes"/>
      <point x="267" y="666"/>
      <point x="236" y="694"/>
      <point x="183" y="694" type="curve" smooth="yes"/>
      <point x="132" y="694"/>
      <point x="101" y="666"/>
      <point x="101" y="619" type="curve" smooth="yes"/>
      <point x="101" y="573"/>
      <point x="132" y="545"/>
      <point x="183" y="545" type="curve" smooth="yes"/>
      <point x="236" y="545"/>
      <point x="267" y="573"/>
    </contour>
    <contour>
      <point x="531" y="619" type="curve" smooth="yes"/>
      <point x="531" y="666"/>
      <point x="500" y="694"/>
      <point x="447" y="694" type="curve" smooth="yes"/>
      <point x="396" y="694"/>
      <point x="365" y="666"/>
      <point x="365" y="619" type="curve" smooth="yes"/>
      <point x="365" y="573"/>
      <point x="396" y="545"/>
      <point x="447" y="545" type="curve" smooth="yes"/>
      <point x="500" y="545"/>
      <point x="531" y="573"/>
    </contour>
    <contour>
      <point x="170" y="0" type="line"/>
      <point x="261" y="265" type="line"/>
      <point x="311" y="436" type="line"/>
      <point x="315" y="436" type="line"/>
      <point x="365" y="265" type="line"/>
      <point x="455" y="0" type="line"/>
      <point x="624" y="0" type="line"/>
      <point x="418" y="560" type="line"/>
      <point x="214" y="560" type="line"/>
      <point x="8" y="0" type="line"/>
    </contour>
    <contour>
      <point x="483" y="116" type="line"/>
      <point x="483" y="230" type="line"/>
      <point x="148" y="230" type="line"/>
      <point x="148" y="116" type="line"/>
    </contour>
  </outline>
</glyph>
<glyph name="aogonek_j" format="2">
  <advance width="869"/>
  <outline>
    <contour>
      <point x="40" y="353" type="curve"/>
      <point x="177" y="318" type="line"/>
      <point x="189" y="373"/>
      <point x="223" y="393"/>
      <point x="266" y="393" type="curve" smooth="yes"/>
      <point x="314" y="393"/>
      <point x="340" y="364"/>
      <point x="340" y="319" type="curve" smooth="yes"/>
      <point x="340" y="118" type="line"/>
      <point x="368" y="120" type="line" smooth="yes"/>
      <point x="368" y="40"/>
      <point x="420" y="1"/>
      <point x="498" y="1" type="curve" smooth="yes"/>
      <point x="519" y="1"/>
      <point x="532" y="5"/>
      <point x="563" y="3" type="curve"/>
      <point x="575" y="101" type="line"/>
      <point x="567" y="98"/>
      <point x="556" y="97"/>
      <point x="544" y="97" type="curve" smooth="yes"/>
      <point x="520" y="97"/>
      <point x="509" y="110"/>
      <point x="509" y="136" type="curve" smooth="yes"/>
      <point x="509" y="318" type="line" smooth="yes"/>
      <point x="509" y="447"/>
      <point x="427" y="510"/>
      <point x="274" y="510" type="curve" smooth="yes"/>
      <point x="137" y="510"/>
      <point x="56" y="449"/>
    </contour>
    <contour>
      <point x="227" y="274" type="line" smooth="yes"/>
      <point x="91" y="247"/>
      <point x="32" y="195"/>
      <point x="32" y="115" type="curve" smooth="yes"/>
      <point x="32" y="33"/>
      <point x="92" y="-10"/>
      <point x="193" y="-10" type="curve" smooth="yes"/>
      <point x="313" y="-10"/>
      <point x="386" y="61"/>
      <point x="386" y="148" type="curve"/>
      <point x="340" y="166" type="line"/>
      <point x="340" y="119"/>
      <point x="299" y="93"/>
      <point x="253" y="93" type="curve" smooth="yes"/>
      <point x="218" y="93"/>
      <point x="195" y="108"/>
      <point x="195" y="140" type="curve" smooth="yes"/>
      <point x="195" y="173"/>
      <point x="223" y="196"/>
      <point x="275" y="208" type="curve" smooth="yes"/>
      <point x="388" y="234" type="line"/>
      <point x="373" y="303" type="line"/>
    </contour>
    <contour>
      <point x="320" y="-117" type="curve" smooth="yes"/>
      <point x="320" y="-173"/>
      <point x="362" y="-215"/>
      <point x="433" y="-215" type="curve" smooth="yes"/>
      <point x="467" y="-215"/>
      <point x="488" y="-210"/>
      <point x="507" y="-199" type="curve"/>
      <point x="519" y="-112" type="line"/>
      <point x="508" y="-118"/>
      <point x="497" y="-120"/>
      <point x="483" y="-120" type="curve" smooth="yes"/>
      <point x="455" y="-120"/>
      <point x="437" y="-103"/>
      <point x="437" y="-78" type="curve" smooth="yes"/>
      <point x="437" y="-39"/>
      <point x="473" y="-8"/>
      <point x="563" y="3" type="curve"/>
      <point x="490" y="30" type="line"/>
      <point x="393" y="13"/>
      <point x="320" y="-32"/>
    </contour>
    <contour>
      <point x="640" y="500" type="line"/>
      <point x="640" y="-28" type="line" smooth="yes"/>
      <point x="640" y="-76"/>
      <point x="628" y="-91"/>
      <point x="605" y="-91" type="curve" smooth="yes"/>
      <point x="591" y="-91"/>
      <point x="579" y="-88"/>
      <point x="570" y="-82" type="curve"/>
      <point x="547" y="-201" type="line"/>
      <point x="570" y="-211"/>
      <point x="591" y="-215"/>
      <point x="621" y="-215" type="curve" smooth="yes"/>
      <point x="716" y="-215"/>
      <point x="810" y="-183"/>
      <point x="810" y="-34" type="curve" smooth="yes"/>
      <point x="810" y="500" type="line"/>
    </contour>
    <contour>
      <point x="626" y="639" type="curve" smooth="yes"/>
      <point x="626" y="584"/>
      <point x="656" y="558"/>
      <point x="724" y="558" type="curve" smooth="yes"/>
      <point x="793" y="558"/>
      <point x="824" y="584"/>
      <point x="824" y="639" type="curve" smooth="yes"/>
      <point x="824" y="694"/>
      <point x="793" y="721"/>
      <point x="724" y="721" type="curve" smooth="yes"/>
      <point x="656" y="721"/>
      <point x="626" y="694"/>
    </contour>
  </outline>
</glyph>
<glyph name="aring.sc" format="2">
  <advance width="629"/>
  <anchor x="315" y="751" name="top"/>
  <anchor x="622" y="0" name="ogonek"/>
  <anchor x="314" y="0" name="bottom"/>
  <anchor x="554" y="0" name="bottomC"/>
  <outline>
    <contour>
      <point x="170" y="0" type="line"/>
      <point x="261" y="265" type="line"/>
      <point x="311" y="430" type="line"/>
      <point x="315" y="430" type="line"/>
      <point x="363" y="265" type="line"/>
      <point x="456" y="0" type="line"/>
      <point x="622" y="0" type="line"/>
      <point x="412" y="560" type="line"/>
      <point x="218" y="560" type="line"/>
      <point x="7" y="0" type="line"/>
    </contour>
    <contour>
      <point x="482" y="116" type="line"/>
      <point x="482" y="230" type="line"/>
      <point x="147" y="230" type="line"/>
      <point x="147" y="116" type="line"/>
    </contour>
    <contour>
      <point x="165" y="632" type="curve" smooth="yes"/>
      <point x="165" y="553"/>
      <point x="221" y="510"/>
      <point x="315" y="510" type="curve" smooth="yes"/>
      <point x="402" y="510"/>
      <point x="464" y="553"/>
      <point x="464" y="632" type="curve" smooth="yes"/>
      <point x="464" y="709"/>
      <point x="408" y="761"/>
      <point x="315" y="761" type="curve" smooth="yes"/>
      <point x="221" y="761"/>
      <point x="165" y="709"/>
    </contour>
    <contour>
      <point x="373" y="626" type="curve" smooth="yes"/>
      <point x="373" y="592"/>
      <point x="350" y="570"/>
      <point x="314" y="570" type="curve" smooth="yes"/>
      <point x="279" y="570"/>
      <point x="256" y="592"/>
      <point x="256" y="626" type="curve" smooth="yes"/>
      <point x="256" y="660"/>
      <point x="279" y="682"/>
      <point x="314" y="682" type="curve" smooth="yes"/>
      <point x="350" y="682"/>
      <point x="373" y="660"/>
    </contour>
  </outline>
</glyph>
<glyph name="bar.case" format="2">
  <advance width="320"/>
  <outline>
    <contour>
      <point x="85" y="752" type="line"/>
      <point x="85" y="-97" type="line"/>
      <point x="235" y="-97" type="line"/>
      <point x="235" y="752" type="line"/>
    </contour>
  </outline>
</glyph>
<glyph name="bracketleft.case" format="2">
  <advance width="391"/>
  <outline>
    <contour>
      <point x="85" y="752" type="line"/>
      <point x="85" y="-97" type="line"/>
      <point x="232" y="-97" type="line"/>
      <point x="232" y="752" type="line"/>
    </contour>
    <contour>
      <point x="160" y="22" type="line"/>
      <point x="160" y="-97" type="line"/>
      <point x="365" y="-97" type="line"/>
      <point x="365" y="22" type="line"/>
    </contour>
    <contour>
      <point x="160" y="752" type="line"/>
      <point x="160" y="633" type="line"/>
      <point x="365" y="633" type="line"/>
      <point x="365" y="752" type="line"/>
    </contour>
  </outline>
</glyph>
<glyph name="d.sc" format="2">
  <advance width="660"/>
  <anchor x="300" y="0" name="bottom"/>
  <anchor x="300" y="560" name="top"/>
  <anchor x="320" y="0" name="ogonek"/>
  <anchor x="169" y="132" name="center"/>
  <anchor x="300" y="0" name="bottomC"/>
  <outline>
    <contour>
      <point x="178" y="560" type="line"/>
      <point x="178" y="433" type="line"/>
      <point x="320" y="433" type="line" smooth="yes"/>
      <point x="405" y="433"/>
      <point x="443" y="380"/>
      <point x="443" y="280" type="curve" smooth="yes"/>
      <point x="443" y="180"/>
      <point x="405" y="127"/>
      <point x="320" y="127" type="curve" smooth="yes"/>
      <point x="179" y="127" type="line"/>
      <point x="179" y="0" type="line"/>
      <point x="320" y="0" type="line" smooth="yes"/>
      <point x="508" y="0"/>
      <point x="614" y="102"/>
      <point x="614" y="280" type="curve" smooth="yes"/>
      <point x="614" y="458"/>
      <point x="508" y="560"/>
      <point x="320" y="560" type="curve" smooth="yes"/>
    </contour>
    <contour>
      <point x="69" y="560" type="line"/>
      <point x="69" y="0" type="line"/>
      <point x="236" y="0" type="line"/>
      <point x="236" y="560" type="line"/>
    </contour>
  </outline>
</glyph>
<glyph name="e.sc" format="2">
  <advance width="582"/>
  <anchor x="300" y="560" name="top"/>
  <anchor x="549" y="0" name="ogonek"/>
  <anchor x="308" y="0" name="bottom"/>
  <anchor x="317" y="0" name="bottomC"/>
  <outline>
    <contour>
      <point x="69" y="560" type="line"/>
      <point x="69" y="0" type="line"/>
      <point x="236" y="0" type="line"/>
      <point x="236" y="560" type="line"/>
    </contour>
    <contour>
      <point x="155" y="119" type="line"/>
      <point x="155" y="0" type="line"/>
      <point x="549" y="0" type="line"/>
      <point x="549" y="119" type="line"/>
    </contour>
    <contour>
      <point x="155" y="339" type="line"/>
      <point x="155" y="225" type="line"/>
      <point x="475" y="225" type="line"/>
      <point x="475" y="339" type="line"/>
    </contour>
    <contour>
      <point x="155" y="560" type="line"/>
      <point x="155" y="441" type="line"/>
      <point x="543" y="441" type="line"/>
      <point x="543" y="560" type="line"/>
    </contour>
  </outline>
</glyph>
<glyph name="eight.osf" format="2">
  <advance width="620"/>
  <outline>
    <contour>
      <point x="66" y="484" type="curve" smooth="yes"/>
      <point x="66" y="416"/>
      <point x="104" y="365"/>
      <point x="171" y="338" type="curve"/>
      <point x="171" y="337" type="line"/>
      <point x="91" y="311"/>
      <point x="43" y="253"/>
      <point x="43" y="178" type="curve" smooth="yes"/>
      <point x="43" y="59"/>
      <point x="145" y="-10"/>
      <point x="310" y="-10" type="curve" smooth="yes"/>
      <point x="476" y="-10"/>
      <point x="577" y="59"/>
      <point x="577" y="178" type="curve" smooth="yes"/>
      <point x="577" y="255"/>
      <point x="527" y="311"/>
      <point x="449" y="337" type="curve"/>
      <point x="449" y="338" type="line"/>
      <point x="517" y="366"/>
      <point x="554" y="417"/>
      <point x="554" y="484" type="curve" smooth="yes"/>
      <point x="554" y="599"/>
      <point x="460" y="668"/>
      <point x="310" y="668" type="curve" smooth="yes"/>
      <point x="159" y="668"/>
      <point x="66" y="599"/>
    </contour>
    <contour>
      <point x="399" y="473" type="curve" smooth="yes"/>
      <point x="399" y="424"/>
      <point x="365" y="395"/>
      <point x="310" y="395" type="curve" smooth="yes"/>
      <point x="255" y="395"/>
      <point x="221" y="424"/>
      <point x="221" y="473" type="curve" smooth="yes"/>
      <point x="221" y="522"/>
      <point x="255" y="551"/>
      <point x="310" y="551" type="curve" smooth="yes"/>
      <point x="365" y="551"/>
      <point x="399" y="522"/>
    </contour>
    <contour>
      <point x="209" y="192" type="curve" smooth="yes"/>
      <point x="209" y="245"/>
      <point x="247" y="277"/>
      <point x="310" y="277" type="curve" smooth="yes"/>
      <point x="373" y="277"/>
      <point x="411" y="245"/>
      <point x="411" y="192" type="curve" smooth="yes"/>
      <point x="411" y="139"/>
      <point x="373" y="107"/>
      <point x="310" y="107" type="curve" smooth="yes"/>
      <point x="247" y="107"/>
      <point x="209" y="139"/>
    </contour>
  </outline>
</glyph>
<glyph name="eight.sc" format="2">
  <advance width="573"/>
  <outline>
    <contour>
      <point x="532" y="152" type="curve" smooth="yes"/>
      <point x="532" y="211"/>
      <point x="497" y="259"/>
      <point x="425" y="286" type="curve"/>
      <point x="425" y="288" type="line"/>
      <point x="489" y="312"/>
      <point x="519" y="355"/>
      <point x="519" y="406" type="curve" smooth="yes"/>
      <point x="519" y="508"/>
      <point x="429" y="568"/>
      <point x="286" y="568" type="curve" smooth="yes"/>
      <point x="144" y="568"/>
      <point x="54" y="508"/>
      <point x="54" y="406" type="curve" smooth="yes"/>
      <point x="54" y="355"/>
      <point x="84" y="312"/>
      <point x="148" y="288" type="curve"/>
      <point x="148" y="286" type="line"/>
      <point x="76" y="259"/>
      <point x="41" y="211"/>
      <point x="41" y="152" type="curve" smooth="yes"/>
      <point x="41" y="54"/>
      <point x="133" y="-8"/>
      <point x="286" y="-8" type="curve" smooth="yes"/>
      <point x="439" y="-8"/>
      <point x="532" y="54"/>
    </contour>
    <contour>
      <point x="202" y="170" type="curve" smooth="yes"/>
      <point x="202" y="210"/>
      <point x="235" y="235"/>
      <point x="286" y="235" type="curve" smooth="yes"/>
      <point x="338" y="235"/>
      <point x="371" y="210"/>
      <point x="371" y="170" type="curve" smooth="yes"/>
      <point x="371" y="130"/>
      <point x="339" y="106"/>
      <point x="286" y="106" type="curve" smooth="yes"/>
      <point x="234" y="106"/>
      <point x="202" y="130"/>
    </contour>
    <contour>
      <point x="210" y="394" type="curve" smooth="yes"/>
      <point x="210" y="431"/>
      <point x="240" y="453"/>
      <point x="286" y="453" type="curve" smooth="yes"/>
      <point x="333" y="453"/>
      <point x="362" y="431"/>
      <point x="362" y="394" type="curve" smooth="yes"/>
      <point x="362" y="357"/>
      <point x="333" y="334"/>
      <point x="286" y="334" type="curve" smooth="yes"/>
      <point x="240" y="334"/>
      <point x="210" y="357"/>
    </contour>
  </outline>
</glyph>
<glyph name="exclam.sc" format="2">
  <advance width="283"/>
  <outline>
    <contour>
      <point x="56" y="560" type="line"/>
      <point x="56" y="414" type="line"/>
      <point x="74" y="194" type="line"/>
      <point x="210" y="194" type="line"/>
      <point x="228" y="414" type="line"/>
      <point x="228" y="560" type="line"/>
    </contour>
    <component base="period" xScale="0.916" yScale="0.878" xOffset="9"/>
  </outline>
</glyph>
<glyph name="f.sc" format="2">
  <advance width="571"/>
  <anchor x="306" y="560" name="top"/>
  <anchor x="239" y="0" name="ogonek"/>
  <anchor x="154" y="0" name="bottom"/>
  <anchor x="162" y="0" name="bottomC"/>
  <outline>
    <contour>
      <point x="69" y="560" type="line"/>
      <point x="69" y="0" type="line"/>
      <point x="236" y="0" type="line"/>
      <point x="236" y="560" type="line"/>
    </contour>
    <contour>
      <point x="155" y="332" type="line"/>
      <point x="155" y="213" type="line"/>
      <point x="475" y="213" type="line"/>
      <point x="475" y="332" type="line"/>
    </contour>
    <contour>
      <point x="155" y="560" type="line"/>
      <point x="155" y="441" type="line"/>
      <point x="543" y="441" type="line"/>
      <point x="543" y="560" type="line"/>
    </contour>
  </outline>
</glyph>
<glyph name="f_idieresis" format="2">
  <advance width="718"/>
  <outline>
    <contour>
      <point x="265" y="0" type="line"/>
      <point x="265" y="442" type="line"/>
      <point x="255" y="489" type="line"/>
      <point x="244" y="506"/>
      <point x="237" y="523"/>
      <point x="237" y="550" type="curve" smooth="yes"/>
      <point x="237" y="587"/>
      <point x="261" y="607"/>
      <point x="302" y="607" type="curve" smooth="yes"/>
      <point x="325" y="607"/>
      <point x="339" y="602"/>
      <point x="353" y="591" type="curve"/>
      <point x="368" y="697" type="line"/>
      <point x="349" y="714"/>
      <point x="310" y="726"/>
      <point x="265" y="726" type="curve" smooth="yes"/>
      <point x="146" y="726"/>
      <point x="77" y="668"/>
      <point x="77" y="580" type="curve" smooth="yes"/>
      <point x="77" y="539"/>
      <point x="88" y="505"/>
      <point x="107" y="482" type="curve"/>
      <point x="95" y="452" type="line"/>
      <point x="95" y="0" type="line"/>
    </contour>
    <contour>
      <point x="399" y="379" type="line"/>
      <point x="399" y="500" type="line"/>
      <point x="15" y="500" type="line"/>
      <point x="15" y="379" type="line"/>
    </contour>
    <contour>
      <point x="658" y="0" type="line"/>
      <point x="658" y="500" type="line"/>
      <point x="488" y="500" type="line"/>
      <point x="488" y="0" type="line"/>
    </contour>
    <contour>
      <point x="557" y="633" type="curve" smooth="yes"/>
      <point x="557" y="684"/>
      <point x="529" y="712"/>
      <point x="477" y="712" type="curve" smooth="yes"/>
      <point x="425" y="712"/>
      <point x="396" y="684"/>
      <point x="396" y="633" type="curve" smooth="yes"/>
      <point x="396" y="582"/>
      <point x="425" y="554"/>
      <point x="477" y="554" type="curve" smooth="yes"/>
      <point x="529" y="554"/>
      <point x="557" y="582"/>
    </contour>
    <contour>
      <point x="749" y="633" type="curve" smooth="yes"/>
      <point x="749" y="684"/>
      <point x="721" y="712"/>
      <point x="669" y="712" type="curve" smooth="yes"/>
      <point x="617" y="712"/>
      <point x="588" y="684"/>
      <point x="588" y="633" type="curve" smooth="yes"/>
      <point x="588" y="582"/>
      <point x="617" y="554"/>
      <point x="669" y="554" type="curve" smooth="yes"/>
      <point x="721" y="554"/>
      <point x="749" y="582"/>
    </contour>
  </outline>
</glyph>
<glyph name="f_t.liga" format="2">
  <advance width="791"/>
  <anchor x="609" y="0" name="bottom"/>
  <anchor x="515" y="250" name="center"/>
  <anchor x="693" y="767" name="topright"/>
  <outline>
    <contour>
      <point x="95" y="546" type="curve" smooth="yes"/>
      <point x="95" y="0" type="line"/>
      <point x="265" y="0" type="line"/>
      <point x="265" y="442" type="line"/>
      <point x="255" y="470" type="line"/>
      <point x="255" y="535" type="line" smooth="yes"/>
      <point x="255" y="587"/>
      <point x="286" y="607"/>
      <point x="328" y="607" type="curve" smooth="yes"/>
      <point x="352" y="607"/>
      <point x="366" y="602"/>
      <point x="380" y="594" type="curve"/>
      <point x="392" y="699" type="line"/>
      <point x="371" y="715"/>
      <point x="335" y="727"/>
      <point x="288" y="727" type="curve" smooth="yes"/>
      <point x="183" y="727"/>
      <point x="95" y="672"/>
    </contour>
    <contour>
      <point x="15" y="500" type="line"/>
      <point x="15" y="379" type="line"/>
      <point x="407" y="379" type="line"/>
      <point x="407" y="500" type="line"/>
    </contour>
    <contour>
      <point x="455" y="612" type="line"/>
      <point x="455" y="150" type="line" smooth="yes"/>
      <point x="456" y="34"/>
      <point x="526" y="-10"/>
      <point x="639" y="-10" type="curve" smooth="yes"/>
      <point x="691" y="-10"/>
      <point x="748" y="5"/>
      <point x="780" y="28" type="curve"/>
      <point x="763" y="133" type="line"/>
      <point x="743" y="119"/>
      <point x="722" y="111"/>
      <point x="691" y="111" type="curve" smooth="yes"/>
      <point x="649" y="111"/>
      <point x="625" y="130"/>
      <point x="625" y="178" type="curve" smooth="yes"/>
      <point x="625" y="659" type="line"/>
    </contour>
    <contour>
      <point x="369" y="500" type="line"/>
      <point x="369" y="379" type="line"/>
      <point x="775" y="379" type="line"/>
      <point x="775" y="500" type="line"/>
    </contour>
  </outline>
</glyph>
<glyph name="five.osf" format="2">
  <advance width="574"/>
  <outline>
    <contour>
      <point x="196" y="276" type="curve"/>
      <point x="195" y="276" type="line"/>
      <point x="197" y="281"/>
      <point x="198" y="289"/>
      <point x="199" y="297" type="curve"/>
      <point x="216" y="433" type="line"/>
      <point x="505" y="433" type="line"/>
      <point x="505" y="560" type="line"/>
      <point x="94" y="560" type="line"/>
      <point x="51" y="187" type="line"/>
      <point x="177" y="165" type="line"/>
      <point x="200" y="191"/>
      <point x="230" y="209"/>
      <point x="281" y="209" type="curve" smooth="yes"/>
      <point x="343" y="209"/>
      <point x="378" y="173"/>
      <point x="378" y="110" type="curve" smooth="yes"/>
      <point x="378" y="46"/>
      <point x="343" y="10"/>
      <point x="279" y="10" type="curve" smooth="yes"/>
      <point x="214" y="10"/>
      <point x="182" y="51"/>
      <point x="171" y="108" type="curve"/>
      <point x="27" y="35" type="line"/>
      <point x="74" y="-74"/>
      <point x="168" y="-110"/>
      <point x="285" y="-110" type="curve" smooth="yes"/>
      <point x="423" y="-110"/>
      <point x="531" y="-35"/>
      <point x="531" y="123" type="curve" smooth="yes"/>
      <point x="531" y="243"/>
      <point x="462" y="326"/>
      <point x="333" y="326" type="curve" smooth="yes"/>
      <point x="272" y="326"/>
      <point x="221" y="306"/>
    </contour>
  </outline>
</glyph>
<glyph name="g.sc" format="2">
  <advance width="643"/>
  <anchor x="337" y="560" name="top"/>
  <anchor x="373" y="0" name="ogonek"/>
  <anchor x="344" y="0" name="bottom"/>
  <anchor x="323" y="0" name="bottomC"/>
  <outline>
    <contour>
      <point x="40" y="280" type="curve" smooth="yes"/>
      <point x="40" y="97"/>
      <point x="149" y="-8"/>
      <point x="310" y="-8" type="curve" smooth="yes"/>
      <point x="463" y="-8"/>
      <point x="508" y="113"/>
      <point x="508" y="204" type="curve"/>
      <point x="455" y="200" type="line"/>
      <point x="454" y="148"/>
      <point x="415" y="113"/>
      <point x="349" y="113" type="curve" smooth="yes"/>
      <point x="256" y="113"/>
      <point x="208" y="169"/>
      <point x="208" y="280" type="curve" smooth="yes"/>
      <point x="208" y="387"/>
      <point x="262" y="443"/>
      <point x="341" y="443" type="curve" smooth="yes"/>
      <point x="391" y="443"/>
      <point x="431" y="423"/>
      <point x="447" y="363" type="curve"/>
      <point x="594" y="407" type="line"/>
      <point x="561" y="512"/>
      <point x="468" y="568"/>
      <point x="336" y="568" type="curve" smooth="yes"/>
      <point x="152" y="568"/>
      <point x="40" y="463"/>
    </contour>
    <contour>
      <point x="331" y="208" type="line"/>
      <point x="455" y="208" type="line"/>
      <point x="455" y="155" type="line"/>
      <point x="476" y="122" type="line"/>
      <point x="484" y="0" type="line"/>
      <point x="593" y="0" type="line"/>
      <point x="593" y="299" type="line"/>
      <point x="331" y="299" type="line"/>
    </contour>
  </outline>
</glyph>
<glyph name="g.sc.ss04" format="2">
  <advance width="641"/>
  <anchor x="343" y="560" name="top"/>
  <anchor x="414" y="0" name="ogonek"/>
  <anchor x="374" y="0" name="bottom"/>
  <anchor x="347" y="0" name="bottomC"/>
  <outline>
    <contour>
      <point x="599" y="238" type="curve" smooth="yes"/>
      <point x="599" y="299" type="line"/>
      <point x="335" y="299" type="line"/>
      <point x="335" y="208" type="line"/>
      <point x="559" y="208" type="line"/>
      <point x="459" y="244" type="line"/>
      <point x="459" y="203" type="line" smooth="yes"/>
      <point x="459" y="160"/>
      <point x="426" y="113"/>
      <point x="346" y="113" type="curve" smooth="yes"/>
      <point x="256" y="113"/>
      <point x="212" y="170"/>
      <point x="212" y="280" type="curve" smooth="yes"/>
      <point x="212" y="386"/>
      <point x="263" y="443"/>
      <point x="343" y="443" type="curve" smooth="yes"/>
      <point x="404" y="443"/>
      <point x="435" y="416"/>
      <point x="450" y="364" type="curve"/>
      <point x="597" y="407" type="line"/>
      <point x="562" y="519"/>
      <point x="462" y="568"/>
      <point x="339" y="568" type="curve" smooth="yes"/>
      <point x="152" y="568"/>
      <point x="43" y="460"/>
      <point x="43" y="279" type="curve" smooth="yes"/>
      <point x="43" y="94"/>
      <point x="154" y="-8"/>
      <point x="338" y="-8" type="curve" smooth="yes"/>
      <point x="509" y="-8"/>
      <point x="599" y="81"/>
    </contour>
  </outline>
</glyph>
<glyph name="g.ss01" format="2">
  <advance width="628"/>
  <anchor x="310" y="500" name="top"/>
  <anchor x="414" y="-197" name="ogonek"/>
  <anchor x="312" y="-210" name="bottom"/>
  <anchor x="297" y="-210" name="bottomC"/>
  <outline>
    <contour>
      <point x="416" y="500" type="line"/>
      <point x="409" y="378" type="line"/>
      <point x="397" y="364" type="line"/>
      <point x="397" y="-1" type="line" smooth="yes"/>
      <point x="397" y="-70"/>
      <point x="360" y="-108"/>
      <point x="304" y="-108" type="curve" smooth="yes"/>
      <point x="249" y="-108"/>
      <point x="221" y="-81"/>
      <point x="218" y="-26" type="curve"/>
      <point x="55" y="-69" type="line"/>
      <point x="73" y="-182"/>
      <point x="168" y="-215"/>
      <point x="287" y="-215" type="curve" smooth="yes"/>
      <point x="457" y="-215"/>
      <point x="568" y="-145"/>
      <point x="568" y="40" type="curve" smooth="yes"/>
      <point x="568" y="383" type="line"/>
      <point x="568" y="500" type="line"/>
    </contour>
    <contour>
      <point x="40" y="260" type="curve" smooth="yes"/>
      <point x="40" y="105"/>
      <point x="116" y="14"/>
      <point x="246" y="14" type="curve" smooth="yes"/>
      <point x="362" y="14"/>
      <point x="432" y="102"/>
      <point x="432" y="211" type="curve"/>
      <point x="397" y="257" type="line"/>
      <point x="397" y="179"/>
      <point x="362" y="138"/>
      <point x="305" y="138" type="curve" smooth="yes"/>
      <point x="247" y="138"/>
      <point x="211" y="177"/>
      <point x="211" y="262" type="curve" smooth="yes"/>
      <point x="211" y="346"/>
      <point x="247" y="385"/>
      <point x="305" y="385" type="curve" smooth="yes"/>
      <point x="363" y="385"/>
      <point x="397" y="342"/>
      <point x="397" y="266" type="curve"/>
      <point x="423" y="313" type="line"/>
      <point x="423" y="423"/>
      <point x="363" y="510"/>
      <point x="246" y="510" type="curve" smooth="yes"/>
      <point x="117" y="510"/>
      <point x="40" y="418"/>
    </contour>
  </outline>
</glyph>
<glyph name="g_idieresis" format="2">
  <advance width="851"/>
  <anchor x="705" y="500" name="top"/>
  <anchor x="779" y="6" name="ogonek"/>
  <anchor x="705" y="0" name="bottom"/>
  <anchor x="705" y="0" name="bottomC"/>
  <outline>
    <contour>
      <point x="370" y="468" type="curve"/>
      <point x="424" y="448" type="line"/>
      <point x="423" y="497"/>
      <point x="461" y="531"/>
      <point x="529" y="520" type="curve"/>
      <point x="504" y="634" type="line"/>
      <point x="400" y="643"/>
      <point x="363" y="556"/>
    </contour>
    <component base="gbase" xOffset="-8"/>
    <component base="idieresis" xOffset="560"/>
  </outline>
</glyph>
<glyph name="g_j.liga" format="2">
  <advance width="862"/>
  <outline>
    <contour>
      <point x="382" y="468" type="curve"/>
      <point x="442" y="448" type="line"/>
      <point x="441" y="495"/>
      <point x="483" y="532"/>
      <point x="559" y="521" type="curve"/>
      <point x="540" y="634" type="line"/>
      <point x="431" y="643"/>
      <point x="381" y="556"/>
    </contour>
    <contour>
      <point x="35" y="102" type="curve" smooth="yes"/>
      <point x="35" y="10"/>
      <point x="139" y="-24"/>
      <point x="223" y="-24" type="curve" smooth="yes"/>
      <point x="338" y="-24" type="line" smooth="yes"/>
      <point x="386" y="-24"/>
      <point x="401" y="-36"/>
      <point x="401" y="-56" type="curve" smooth="yes"/>
      <point x="401" y="-84"/>
      <point x="360" y="-105"/>
      <point x="277" y="-105" type="curve" smooth="yes"/>
      <point x="189" y="-105"/>
      <point x="148" y="-89"/>
      <point x="148" y="-60" type="curve" smooth="yes"/>
      <point x="148" y="-36"/>
      <point x="170" y="-24"/>
      <point x="226" y="-24" type="curve"/>
      <point x="186" y="9" type="line"/>
      <point x="66" y="9"/>
      <point x="19" y="-39"/>
      <point x="19" y="-97" type="curve" smooth="yes"/>
      <point x="19" y="-169"/>
      <point x="105" y="-215"/>
      <point x="271" y="-215" type="curve" smooth="yes"/>
      <point x="431" y="-215"/>
      <point x="535" y="-155"/>
      <point x="535" y="-39" type="curve" smooth="yes"/>
      <point x="535" y="61"/>
      <point x="467" y="111"/>
      <point x="350" y="111" type="curve" smooth="yes"/>
      <point x="217" y="111" type="line" smooth="yes"/>
      <point x="171" y="111"/>
      <point x="152" y="124"/>
      <point x="152" y="146" type="curve" smooth="yes"/>
      <point x="152" y="170"/>
      <point x="173" y="183"/>
      <point x="229" y="185" type="curve"/>
      <point x="182" y="216" type="line"/>
      <point x="99" y="214"/>
      <point x="35" y="168"/>
    </contour>
    <contour>
      <point x="37" y="340" type="curve" smooth="yes"/>
      <point x="37" y="231"/>
      <point x="125" y="171"/>
      <point x="282" y="171" type="curve" smooth="yes"/>
      <point x="440" y="171"/>
      <point x="519" y="231"/>
      <point x="519" y="340" type="curve" smooth="yes"/>
      <point x="519" y="450"/>
      <point x="440" y="510"/>
      <point x="282" y="510" type="curve" smooth="yes"/>
      <point x="125" y="510"/>
      <point x="37" y="450"/>
    </contour>
    <contour>
      <point x="354" y="340" type="curve" smooth="yes"/>
      <point x="354" y="296"/>
      <point x="326" y="269"/>
      <point x="278" y="269" type="curve" smooth="yes"/>
      <point x="230" y="269"/>
      <point x="202" y="296"/>
      <point x="202" y="340" type="curve" smooth="yes"/>
      <point x="202" y="385"/>
      <point x="230" y="412"/>
      <point x="278" y="412" type="curve" smooth="yes"/>
      <point x="326" y="412"/>
      <point x="354" y="385"/>
    </contour>
    <contour>
      <point x="632" y="500" type="line"/>
      <point x="632" y="-25" type="line" smooth="yes"/>
      <point x="632" y="-74"/>
      <point x="620" y="-91"/>
      <point x="595" y="-91" type="curve" smooth="yes"/>
      <point x="578" y="-91"/>
      <point x="567" y="-88"/>
      <point x="557" y="-80" type="curve"/>
      <point x="533" y="-201" type="line"/>
      <point x="559" y="-211"/>
      <point x="581" y="-215"/>
      <point x="614" y="-215" type="curve" smooth="yes"/>
      <point x="709" y="-215"/>
      <point x="802" y="-183"/>
      <point x="802" y="-34" type="curve" smooth="yes"/>
      <point x="802" y="500" type="line"/>
    </contour>
    <contour>
      <point x="618" y="639" type="curve" smooth="yes"/>
      <point x="618" y="584"/>
      <point x="649" y="558"/>
      <point x="717" y="558" type="curve" smooth="yes"/>
      <point x="786" y="558"/>
      <point x="816" y="584"/>
      <point x="816" y="639" type="curve" smooth="yes"/>
      <point x="816" y="694"/>
      <point x="786" y="721"/>
      <point x="717" y="721" type="curve" smooth="yes"/>
      <point x="649" y="721"/>
      <point x="618" y="694"/>
    </contour>
  </outline>
</glyph>
<glyph name="hyphensuperior" format="2">
  <advance width="342"/>
  <outline>
    <contour>
      <point x="52" y="577" type="line"/>
      <point x="52" y="485" type="line"/>
      <point x="291" y="485" type="line"/>
      <point x="291" y="577" type="line"/>
    </contour>
  </outline>
</glyph>
<glyph name="i.sc" format="2">
  <advance width="309"/>
  <anchor x="154" y="560" name="top"/>
  <anchor x="239" y="0" name="ogonek"/>
  <anchor x="154" y="0" name="bottom"/>
  <anchor x="154" y="0" name="bottomC"/>
  <outline>
    <contour>
      <point x="69" y="560" type="line"/>
      <point x="69" y="0" type="line"/>
      <point x="239" y="0" type="line"/>
      <point x="239" y="560" type="line"/>
    </contour>
  </outline>
</glyph>
<glyph name="idieresis.sc" format="2">
  <advance width="309"/>
  <anchor x="154" y="0" name="bottomC"/>
  <anchor x="154" y="560" name="top"/>
  <anchor x="239" y="0" name="ogonek"/>
  <anchor x="154" y="0" name="bottom"/>
  <outline>
    <contour>
      <point x="-29" y="693" type="curve" smooth="yes"/>
      <point x="-29" y="645"/>
      <point x="2" y="616"/>
      <point x="53" y="616" type="curve" smooth="yes"/>
      <point x="105" y="616"/>
      <point x="137" y="645"/>
      <point x="137" y="693" type="curve" smooth="yes"/>
      <point x="137" y="741"/>
      <point x="105" y="770"/>
      <point x="53" y="770" type="curve" smooth="yes"/>
      <point x="2" y="770"/>
      <point x="-29" y="741"/>
    </contour>
    <contour>
      <point x="172" y="693" type="curve" smooth="yes"/>
      <point x="172" y="645"/>
      <point x="203" y="616"/>
      <point x="253" y="616" type="curve" smooth="yes"/>
      <point x="305" y="616"/>
      <point x="337" y="645"/>
      <point x="337" y="693" type="curve" smooth="yes"/>
      <point x="337" y="741"/>
      <point x="305" y="770"/>
      <point x="253" y="770" type="curve" smooth="yes"/>
      <point x="203" y="770"/>
      <point x="172" y="741"/>
    </contour>
    <component base="i.sc"/>
  </outline>
</glyph>
<glyph name="j.ogonek" format="2">
  <advance width="327"/>
  <anchor x="191" y="711" name="top"/>
  <anchor x="164" y="-204" name="ogonek"/>
  <anchor x="143" y="-210" name="bottom"/>
  <anchor x="143" y="-210" name="bottomC"/>
  <outline>
    <contour>
      <point x="93" y="639" type="curve" smooth="yes"/>
      <point x="93" y="584"/>
      <point x="124" y="558"/>
      <point x="191" y="558" type="curve" smooth="yes"/>
      <point x="260" y="558"/>
      <point x="291" y="584"/>
      <point x="291" y="639" type="curve" smooth="yes"/>
      <point x="291" y="694"/>
      <point x="260" y="721"/>
      <point x="191" y="721" type="curve" smooth="yes"/>
      <point x="124" y="721"/>
      <point x="93" y="694"/>
    </contour>
    <component base="jdotless.ogonek"/>
  </outline>
</glyph>
<glyph name="j_j.liga" format="2">
  <advance width="580"/>
  <outline>
    <contour>
      <point x="61" y="500" type="line"/>
      <point x="61" y="-13" type="line" smooth="yes"/>
      <point x="61" y="-72"/>
      <point x="35" y="-93"/>
      <point x="-7" y="-93" type="curve" smooth="yes"/>
      <point x="-33" y="-93"/>
      <point x="-56" y="-85"/>
      <point x="-70" y="-73" type="curve"/>
      <point x="-94" y="-183" type="line"/>
      <point x="-60" y="-204"/>
      <point x="-17" y="-215"/>
      <point x="37" y="-215" type="curve" smooth="yes"/>
      <point x="157" y="-215"/>
      <point x="231" y="-163"/>
      <point x="231" y="-28" type="curve" smooth="yes"/>
      <point x="231" y="500" type="line"/>
    </contour>
    <contour>
      <point x="351" y="500" type="line"/>
      <point x="351" y="-25" type="line" smooth="yes"/>
      <point x="351" y="-74"/>
      <point x="333" y="-91"/>
      <point x="305" y="-91" type="curve" smooth="yes"/>
      <point x="283" y="-91"/>
      <point x="267" y="-84"/>
      <point x="255" y="-72" type="curve"/>
      <point x="231" y="-193" type="line"/>
      <point x="259" y="-208"/>
      <point x="286" y="-215"/>
      <point x="324" y="-215" type="curve" smooth="yes"/>
      <point x="419" y="-215"/>
      <point x="521" y="-183"/>
      <point x="521" y="-34" type="curve" smooth="yes"/>
      <point x="521" y="500" type="line"/>
    </contour>
    <contour>
      <point x="47" y="639" type="curve" smooth="yes"/>
      <point x="47" y="584"/>
      <point x="77" y="558"/>
      <point x="145" y="558" type="curve" smooth="yes"/>
      <point x="214" y="558"/>
      <point x="245" y="584"/>
      <point x="245" y="639" type="curve" smooth="yes"/>
      <point x="245" y="694"/>
      <point x="214" y="721"/>
      <point x="145" y="721" type="curve" smooth="yes"/>
      <point x="77" y="721"/>
      <point x="47" y="694"/>
    </contour>
    <contour>
      <point x="337" y="639" type="curve" smooth="yes"/>
      <point x="337" y="584"/>
      <point x="367" y="558"/>
      <point x="435" y="558" type="curve" smooth="yes"/>
      <point x="504" y="558"/>
      <point x="535" y="584"/>
      <point x="535" y="639" type="curve" smooth="yes"/>
      <point x="535" y="694"/>
      <point x="504" y="721"/>
      <point x="435" y="721" type="curve" smooth="yes"/>
      <point x="367" y="721"/>
      <point x="337" y="694"/>
    </contour>
  </outline>
</glyph>
<glyph name="jdotless.ogonek" format="2">
  <advance width="338"/>
  <anchor x="192" y="500" name="top"/>
  <anchor x="164" y="-204" name="ogonek"/>
  <anchor x="143" y="-210" name="bottom"/>
  <anchor x="143" y="-210" name="bottomC"/>
  <outline>
    <contour>
      <point x="107" y="500" type="line"/>
      <point x="107" y="-25" type="line" smooth="yes"/>
      <point x="107" y="-74"/>
      <point x="95" y="-91"/>
      <point x="70" y="-91" type="curve" smooth="yes"/>
      <point x="53" y="-91"/>
      <point x="42" y="-88"/>
      <point x="31" y="-80" type="curve"/>
      <point x="8" y="-201" type="line"/>
      <point x="33" y="-211"/>
      <point x="55" y="-215"/>
      <point x="89" y="-215" type="curve" smooth="yes"/>
      <point x="184" y="-215"/>
      <point x="277" y="-183"/>
      <point x="277" y="-34" type="curve" smooth="yes"/>
      <point x="277" y="500" type="line"/>
    </contour>
  </outline>
</glyph>
<glyph name="k.sc" format="2">
  <advance width="656"/>
  <anchor x="333" y="560" name="top"/>
  <anchor x="649" y="0" name="ogonek"/>
  <anchor x="347" y="0" name="bottom"/>
  <anchor x="563" y="0" name="bottomC"/>
  <outline>
    <contour>
      <point x="460" y="560" type="line"/>
      <point x="167" y="238" type="line"/>
      <point x="200" y="104" type="line"/>
      <point x="336" y="247" type="line"/>
      <point x="353" y="238" type="line"/>
      <point x="642" y="560" type="line"/>
    </contour>
    <contour>
      <point x="69" y="560" type="line"/>
      <point x="69" y="0" type="line"/>
      <point x="236" y="0" type="line"/>
      <point x="236" y="560" type="line"/>
    </contour>
    <contour>
      <point x="275" y="289" type="line"/>
      <point x="456" y="0" type="line"/>
      <point x="649" y="0" type="line"/>
      <point x="399" y="377" type="line"/>
    </contour>
  </outline>
</glyph>
<glyph name="l.sc" format="2">
  <advance width="580"/>
  <anchor x="320" y="0" name="bottom"/>
  <anchor x="157" y="560" name="top"/>
  <anchor x="533" y="0" name="ogonek"/>
  <anchor x="333" y="560" name="topright"/>
  <anchor x="320" y="0" name="bottomC"/>
  <outline>
    <contour>
      <point x="69" y="560" type="line"/>
      <point x="69" y="0" type="line"/>
      <point x="239" y="0" type="line"/>
      <point x="239" y="560" type="line"/>
    </contour>
    <contour>
      <point x="155" y="128" type="line"/>
      <point x="155" y="0" type="line"/>
      <point x="533" y="0" type="line"/>
      <point x="533" y="128" type="line"/>
    </contour>
  </outline>
</glyph>
<glyph name="l.ss02" format="2">
  <advance width="293"/>
  <anchor x="146" y="0" name="bottom"/>
  <anchor x="146" y="712" name="top"/>
  <anchor x="220" y="6" name="ogonek"/>
  <anchor x="294" y="712" name="topright"/>
  <anchor x="146" y="0" name="bottomC"/>
  <outline>
    <contour>
      <point x="61" y="712" type="line"/>
      <point x="61" y="0" type="line"/>
      <point x="231" y="0" type="line"/>
      <point x="231" y="712" type="line"/>
    </contour>
  </outline>
</glyph>
<glyph name="longs.component" format="2">
  <advance width="288"/>
  <anchor x="181" y="730" name="top"/>
  <anchor x="224" y="0" name="ogonek"/>
  <anchor x="150" y="0" name="bottom"/>
  <anchor x="139" y="0" name="bottomC"/>
  <outline>
    <contour>
      <point x="224" y="0" type="line"/>
      <point x="224" y="547" type="line" smooth="yes"/>
      <point x="224" y="588"/>
      <point x="240" y="607"/>
      <point x="267" y="607" type="curve" smooth="yes"/>
      <point x="281" y="607"/>
      <point x="289" y="604"/>
      <point x="297" y="598" type="curve"/>
      <point x="303" y="710" type="line"/>
      <point x="287" y="720"/>
      <point x="263" y="726"/>
      <point x="234" y="726" type="curve" smooth="yes"/>
      <point x="126" y="726"/>
      <point x="59" y="672"/>
      <point x="59" y="546" type="curve" smooth="yes"/>
      <point x="59" y="0" type="line"/>
    </contour>
  </outline>
</glyph>
<glyph name="m.sc" format="2">
  <advance width="841"/>
  <anchor x="421" y="560" name="top"/>
  <anchor x="771" y="0" name="ogonek"/>
  <anchor x="421" y="0" name="bottom"/>
  <anchor x="441" y="0" name="bottomC"/>
  <outline>
    <contour>
      <point x="223" y="0" type="line"/>
      <point x="223" y="210" type="line"/>
      <point x="214" y="409" type="line"/>
      <point x="215" y="409" type="line"/>
      <point x="357" y="0" type="line"/>
      <point x="484" y="0" type="line"/>
      <point x="625" y="409" type="line"/>
      <point x="627" y="409" type="line"/>
      <point x="617" y="210" type="line"/>
      <point x="617" y="0" type="line"/>
      <point x="771" y="0" type="line"/>
      <point x="771" y="560" type="line"/>
      <point x="540" y="560" type="line"/>
      <point x="455" y="296" type="line"/>
      <point x="423" y="184" type="line"/>
      <point x="420" y="184" type="line"/>
      <point x="387" y="296" type="line"/>
      <point x="301" y="560" type="line"/>
      <point x="69" y="560" type="line"/>
      <point x="69" y="0" type="line"/>
    </contour>
  </outline>
</glyph>
<glyph name="n.sc" format="2">
  <advance width="690"/>
  <anchor x="350" y="560" name="top"/>
  <anchor x="621" y="0" name="ogonek"/>
  <anchor x="351" y="0" name="bottom"/>
  <anchor x="516" y="0" name="bottomC"/>
  <outline>
    <contour>
      <point x="465" y="560" type="line"/>
      <point x="465" y="302" type="line"/>
      <point x="471" y="178" type="line"/>
      <point x="468" y="178" type="line"/>
      <point x="425" y="267" type="line"/>
      <point x="260" y="560" type="line"/>
      <point x="69" y="560" type="line"/>
      <point x="69" y="0" type="line"/>
      <point x="226" y="0" type="line"/>
      <point x="226" y="258" type="line"/>
      <point x="220" y="382" type="line"/>
      <point x="222" y="382" type="line"/>
      <point x="265" y="294" type="line"/>
      <point x="430" y="0" type="line"/>
      <point x="621" y="0" type="line"/>
      <point x="621" y="560" type="line"/>
    </contour>
  </outline>
</glyph>
<glyph name="n.swsh" format="2">
  <advance width="650"/>
  <anchor x="313" y="500" name="top"/>
  <anchor x="590" y="-95" name="ogonek"/>
  <anchor x="289" y="0" name="bottom"/>
  <anchor x="566" y="-95" name="bottomC"/>
  <outline>
    <contour>
      <point x="194" y="274" type="curve"/>
      <point x="231" y="264" type="line"/>
      <point x="231" y="347"/>
      <point x="272" y="380"/>
      <point x="321" y="380" type="curve" smooth="yes"/>
      <point x="363" y="380"/>
      <point x="392" y="357"/>
      <point x="392" y="286" type="curve" smooth="yes"/>
      <point x="392" y="37" type="line" smooth="yes"/>
      <point x="392" y="-57"/>
      <point x="453" y="-102"/>
      <point x="540" y="-102" type="curve" smooth="yes"/>
      <point x="587" y="-102"/>
      <point x="608" y="-94"/>
      <point x="641" y="-79" type="curve"/>
      <point x="653" y="23" type="line"/>
      <point x="637" y="15"/>
      <point x="625" y="13"/>
      <point x="605" y="13" type="curve" smooth="yes"/>
      <point x="581" y="13"/>
      <point x="562" y="25"/>
      <point x="562" y="59" type="curve" smooth="yes"/>
      <point x="562" y="333" type="line" smooth="yes"/>
      <point x="562" y="449"/>
      <point x="492" y="510"/>
      <point x="389" y="510" type="curve" smooth="yes"/>
      <point x="272" y="510"/>
      <point x="194" y="431"/>
    </contour>
    <contour>
      <point x="61" y="500" type="line"/>
      <point x="61" y="322" type="line"/>
      <point x="61" y="0" type="line"/>
      <point x="231" y="0" type="line"/>
      <point x="231" y="319" type="line"/>
      <point x="220" y="356" type="line"/>
      <point x="213" y="500" type="line"/>
    </contour>
  </outline>
</glyph>
<glyph name="nine.osf" format="2">
  <advance width="612"/>
  <outline>
    <contour>
      <point x="48" y="352" type="curve" smooth="yes"/>
      <point x="48" y="223"/>
      <point x="138" y="140"/>
      <point x="263" y="140" type="curve" smooth="yes"/>
      <point x="352" y="140"/>
      <point x="403" y="174"/>
      <point x="419" y="230" type="curve"/>
      <point x="423" y="230" type="line"/>
      <point x="423" y="217"/>
      <point x="423" y="208"/>
      <point x="423" y="200" type="curve" smooth="yes"/>
      <point x="423" y="75"/>
      <point x="378" y="10"/>
      <point x="301" y="10" type="curve" smooth="yes"/>
      <point x="233" y="10"/>
      <point x="207" y="42"/>
      <point x="198" y="100" type="curve"/>
      <point x="52" y="45" type="line"/>
      <point x="95" y="-75"/>
      <point x="181" y="-110"/>
      <point x="297" y="-110" type="curve" smooth="yes"/>
      <point x="471" y="-110"/>
      <point x="572" y="16"/>
      <point x="572" y="226" type="curve" smooth="yes"/>
      <point x="572" y="452"/>
      <point x="469" y="570"/>
      <point x="299" y="570" type="curve" smooth="yes"/>
      <point x="145" y="570"/>
      <point x="48" y="486"/>
    </contour>
    <contour>
      <point x="392" y="351" type="curve" smooth="yes"/>
      <point x="392" y="293"/>
      <point x="356" y="257"/>
      <point x="297" y="257" type="curve" smooth="yes"/>
      <point x="235" y="257"/>
      <point x="201" y="291"/>
      <point x="201" y="351" type="curve" smooth="yes"/>
      <point x="201" y="411"/>
      <point x="235" y="446"/>
      <point x="297" y="446" type="curve" smooth="yes"/>
      <point x="356" y="446"/>
      <point x="392" y="409"/>
    </contour>
  </outline>
</glyph>
<glyph name="nine.sc" format="2">
  <advance width="561"/>
  <outline>
    <contour>
      <point x="523" y="277" type="curve" smooth="yes"/>
      <point x="523" y="466"/>
      <point x="430" y="568"/>
      <point x="270" y="568" type="curve" smooth="yes"/>
      <point x="117" y="568"/>
      <point x="35" y="490"/>
      <point x="37" y="380" type="curve" smooth="yes"/>
      <point x="38" y="266"/>
      <point x="128" y="208"/>
      <point x="230" y="208" type="curve" smooth="yes"/>
      <point x="298" y="208"/>
      <point x="355" y="233"/>
      <point x="372" y="284" type="curve"/>
      <point x="375" y="284" type="line"/>
      <point x="375" y="280"/>
      <point x="375" y="274"/>
      <point x="375" y="271" type="curve" smooth="yes"/>
      <point x="375" y="160"/>
      <point x="336" y="111"/>
      <point x="263" y="111" type="curve" smooth="yes"/>
      <point x="208" y="111"/>
      <point x="180" y="135"/>
      <point x="174" y="179" type="curve"/>
      <point x="39" y="114" type="line"/>
      <point x="82" y="27"/>
      <point x="153" y="-8"/>
      <point x="267" y="-8" type="curve" smooth="yes"/>
      <point x="435" y="-8"/>
      <point x="523" y="90"/>
    </contour>
    <contour>
      <point x="190" y="379" type="curve" smooth="yes"/>
      <point x="190" y="423"/>
      <point x="219" y="449"/>
      <point x="268" y="449" type="curve" smooth="yes"/>
      <point x="316" y="449"/>
      <point x="345" y="421"/>
      <point x="345" y="378" type="curve" smooth="yes"/>
      <point x="345" y="336"/>
      <point x="315" y="308"/>
      <point x="268" y="308" type="curve" smooth="yes"/>
      <point x="219" y="308"/>
      <point x="190" y="334"/>
    </contour>
  </outline>
</glyph>
<glyph name="numbersign.tf" format="2">
  <advance width="604"/>
  <outline>
    <contour>
      <point x="423" y="660" type="line"/>
      <point x="321" y="0" type="line"/>
      <point x="420" y="0" type="line"/>
      <point x="522" y="660" type="line"/>
    </contour>
    <contour>
      <point x="14" y="262" type="line"/>
      <point x="14" y="160" type="line"/>
      <point x="556" y="160" type="line"/>
      <point x="556" y="262" type="line"/>
    </contour>
    <contour>
      <point x="191" y="660" type="line"/>
      <point x="89" y="0" type="line"/>
      <point x="188" y="0" type="line"/>
      <point x="290" y="660" type="line"/>
    </contour>
    <contour>
      <point x="47" y="502" type="line"/>
      <point x="47" y="400" type="line"/>
      <point x="589" y="400" type="line"/>
      <point x="589" y="502" type="line"/>
    </contour>
  </outline>
</glyph>
<glyph name="o.sc" format="2">
  <advance width="665"/>
  <anchor x="332" y="560" name="top"/>
  <anchor x="408" y="0" name="ogonek"/>
  <anchor x="332" y="0" name="bottom"/>
  <anchor x="332" y="0" name="bottomC"/>
  <outline>
    <contour>
      <point x="40" y="280" type="curve" smooth="yes"/>
      <point x="40" y="100"/>
      <point x="150" y="-8"/>
      <point x="332" y="-8" type="curve" smooth="yes"/>
      <point x="514" y="-8"/>
      <point x="625" y="100"/>
      <point x="625" y="280" type="curve" smooth="yes"/>
      <point x="625" y="460"/>
      <point x="514" y="568"/>
      <point x="332" y="568" type="curve" smooth="yes"/>
      <point x="150" y="568"/>
      <point x="40" y="460"/>
    </contour>
    <contour>
      <point x="455" y="280" type="curve" smooth="yes"/>
      <point x="455" y="173"/>
      <point x="412" y="122"/>
      <point x="332" y="122" type="curve" smooth="yes"/>
      <point x="253" y="122"/>
      <point x="210" y="173"/>
      <point x="210" y="280" type="curve" smooth="yes"/>
      <point x="210" y="387"/>
      <point x="253" y="438"/>
      <point x="332" y="438" type="curve" smooth="yes"/>
      <point x="412" y="438"/>
      <point x="455" y="387"/>
    </contour>
  </outline>
</glyph>
<glyph name="oe.sc" format="2">
  <advance width="939"/>
  <anchor x="528" y="560" name="top"/>
  <anchor x="528" y="0" name="bottom"/>
  <outline>
    <contour>
      <point x="528" y="280" type="curve"/>
      <point x="525" y="488"/>
      <point x="462" y="568"/>
      <point x="309" y="568" type="curve" smooth="yes"/>
      <point x="155" y="568"/>
      <point x="40" y="460"/>
      <point x="40" y="280" type="curve" smooth="yes"/>
      <point x="40" y="100"/>
      <point x="156" y="-8"/>
      <point x="308" y="-8" type="curve" smooth="yes"/>
      <point x="461" y="-8"/>
      <point x="525" y="72"/>
    </contour>
    <contour>
      <point x="207" y="280" type="curve" smooth="yes"/>
      <point x="207" y="387"/>
      <point x="250" y="438"/>
      <point x="330" y="438" type="curve" smooth="yes"/>
      <point x="406" y="438"/>
      <point x="448" y="388"/>
      <point x="448" y="280" type="curve" smooth="yes"/>
      <point x="448" y="172"/>
      <point x="406" y="122"/>
      <point x="330" y="122" type="curve" smooth="yes"/>
      <point x="250" y="122"/>
      <point x="207" y="173"/>
    </contour>
    <contour>
      <point x="906" y="0" type="line"/>
      <point x="906" y="119" type="line"/>
      <point x="540" y="119" type="line"/>
      <point x="540" y="0" type="line"/>
    </contour>
    <contour>
      <point x="607" y="0" type="line"/>
      <point x="607" y="560" type="line"/>
      <point x="492" y="560" type="line"/>
      <point x="492" y="0" type="line"/>
    </contour>
    <contour>
      <point x="838" y="225" type="line"/>
      <point x="838" y="339" type="line"/>
      <point x="540" y="339" type="line"/>
      <point x="540" y="225" type="line"/>
    </contour>
    <contour>
      <point x="900" y="441" type="line"/>
      <point x="900" y="560" type="line"/>
      <point x="540" y="560" type="line"/>
      <point x="540" y="441" type="line"/>
    </contour>
  </outline>
</glyph>
<glyph name="ogonek.E" format="2">
  <advance width="640"/>
  <anchor x="603" y="0" name="_ogonek"/>
  <outline>
    <contour>
      <point x="558" y="28" type="line"/>
      <point x="442" y="14"/>
      <point x="367" y="-27"/>
      <point x="367" y="-104" type="curve" smooth="yes"/>
      <point x="367" y="-179"/>
      <point x="427" y="-215"/>
      <point x="506" y="-215" type="curve" smooth="yes"/>
      <point x="548" y="-215"/>
      <point x="583" y="-209"/>
      <point x="610" y="-192" type="curve"/>
      <point x="587" y="-110" type="line"/>
      <point x="575" y="-118"/>
      <point x="556" y="-120"/>
      <point x="541" y="-120" type="curve" smooth="yes"/>
      <point x="506" y="-120"/>
      <point x="486" y="-104"/>
      <point x="486" y="-76" type="curve" smooth="yes"/>
      <point x="486" y="-42"/>
      <point x="512" y="-17"/>
      <point x="603" y="0" type="curve"/>
    </contour>
  </outline>
</glyph>
<glyph name="ogonek.e" format="2">
  <advance width="590"/>
  <anchor x="360" y="38" name="_ogonek"/>
  <outline>
    <contour>
      <point x="206" y="-103" type="curve" smooth="yes"/>
      <point x="206" y="-177"/>
      <point x="266" y="-215"/>
      <point x="345" y="-215" type="curve" smooth="yes"/>
      <point x="386" y="-215"/>
      <point x="421" y="-209"/>
      <point x="448" y="-192" type="curve"/>
      <point x="425" y="-110" type="line"/>
      <point x="413" y="-118"/>
      <point x="395" y="-120"/>
      <point x="379" y="-120" type="curve" smooth="yes"/>
      <point x="346" y="-120"/>
      <point x="325" y="-103"/>
      <point x="325" y="-74" type="curve" smooth="yes"/>
      <point x="325" y="-40"/>
      <point x="356" y="-16"/>
      <point x="426" y="15" type="curve"/>
      <point x="360" y="38" type="line"/>
      <point x="273" y="12"/>
      <point x="206" y="-30"/>
    </contour>
  </outline>
</glyph>
<glyph name="one.tosf" format="2">
  <advance width="604"/>
  <outline>
    <contour>
      <point x="578" y="0" type="line"/>
      <point x="578" y="125" type="line"/>
      <point x="83" y="125" type="line"/>
      <point x="83" y="0" type="line"/>
    </contour>
    <contour>
      <point x="421" y="560" type="line"/>
      <point x="296" y="560" type="line"/>
      <point x="279" y="509"/>
      <point x="267" y="434"/>
      <point x="267" y="382" type="curve" smooth="yes"/>
      <point x="267" y="0" type="line"/>
      <point x="421" y="0" type="line"/>
      <point x="421" y="406" type="line"/>
    </contour>
    <contour>
      <point x="364" y="527" type="curve"/>
      <point x="296" y="560" type="line"/>
      <point x="262" y="511"/>
      <point x="155" y="457"/>
      <point x="85" y="449" type="curve"/>
      <point x="101" y="324" type="line"/>
      <point x="217" y="339"/>
      <point x="329" y="442"/>
    </contour>
  </outline>
</glyph>
<glyph name="quotesingle.sc" format="2">
  <advance width="251"/>
  <outline>
    <contour>
      <point x="63" y="591" type="line"/>
      <point x="63" y="314" type="line"/>
      <point x="176" y="314" type="line"/>
      <point x="205" y="591" type="line"/>
    </contour>
  </outline>
</glyph>
<glyph name="r.sc" format="2">
  <advance width="624"/>
  <anchor x="306" y="560" name="top"/>
  <anchor x="610" y="0" name="ogonek"/>
  <anchor x="334" y="0" name="bottom"/>
  <anchor x="526" y="0" name="bottomC"/>
  <outline>
    <contour>
      <point x="174" y="560" type="line"/>
      <point x="174" y="445" type="line"/>
      <point x="332" y="445" type="line" smooth="yes"/>
      <point x="389" y="445"/>
      <point x="417" y="421"/>
      <point x="417" y="373" type="curve" smooth="yes"/>
      <point x="417" y="324"/>
      <point x="389" y="300"/>
      <point x="332" y="300" type="curve" smooth="yes"/>
      <point x="174" y="300" type="line"/>
      <point x="174" y="194" type="line"/>
      <point x="353" y="194" type="line" smooth="yes"/>
      <point x="497" y="194"/>
      <point x="583" y="260"/>
      <point x="583" y="377" type="curve" smooth="yes"/>
      <point x="583" y="494"/>
      <point x="497" y="560"/>
      <point x="353" y="560" type="curve" smooth="yes"/>
    </contour>
    <contour>
      <point x="69" y="560" type="line"/>
      <point x="69" y="0" type="line"/>
      <point x="236" y="0" type="line"/>
      <point x="236" y="560" type="line"/>
    </contour>
    <contour>
      <point x="299" y="238" type="line"/>
      <point x="428" y="0" type="line"/>
      <point x="610" y="0" type="line"/>
      <point x="423" y="287" type="line"/>
    </contour>
  </outline>
</glyph>
<glyph name="registeredsuperior" format="2">
  <advance width="593"/>
  <outline>
    <contour>
      <point x="571" y="400" type="curve" smooth="yes"/>
      <point x="571" y="563"/>
      <point x="463" y="670"/>
      <point x="297" y="670" type="curve" smooth="yes"/>
      <point x="131" y="670"/>
      <point x="22" y="563"/>
      <point x="22" y="400" type="curve" smooth="yes"/>
      <point x="22" y="237"/>
      <point x="131" y="129"/>
      <point x="297" y="129" type="curve" smooth="yes"/>
      <point x="463" y="129"/>
      <point x="571" y="237"/>
    </contour>
    <contour>
      <point x="265" y="257" type="line"/>
      <point x="265" y="547" type="line"/>
      <point x="194" y="547" type="line"/>
      <point x="194" y="257" type="line"/>
    </contour>
    <contour>
      <point x="428" y="257" type="line"/>
      <point x="342" y="390" type="line"/>
      <point x="289" y="364" type="line"/>
      <point x="349" y="257" type="line"/>
    </contour>
    <contour>
      <point x="97" y="400" type="curve" smooth="yes"/>
      <point x="97" y="521"/>
      <point x="177" y="601"/>
      <point x="297" y="601" type="curve" smooth="yes"/>
      <point x="416" y="601"/>
      <point x="496" y="521"/>
      <point x="496" y="400" type="curve" smooth="yes"/>
      <point x="496" y="279"/>
      <point x="416" y="198"/>
      <point x="297" y="198" type="curve" smooth="yes"/>
      <point x="177" y="198"/>
      <point x="97" y="279"/>
    </contour>
    <contour>
      <point x="315" y="351" type="line" smooth="yes"/>
      <point x="382" y="351"/>
      <point x="423" y="386"/>
      <point x="423" y="446" type="curve" smooth="yes"/>
      <point x="423" y="507"/>
      <point x="376" y="547"/>
      <point x="309" y="547" type="curve" smooth="yes"/>
      <point x="235" y="547" type="line"/>
      <point x="235" y="488" type="line"/>
      <point x="303" y="488" type="line" smooth="yes"/>
      <point x="334" y="488"/>
      <point x="349" y="474"/>
      <point x="349" y="446" type="curve" smooth="yes"/>
      <point x="349" y="418"/>
      <point x="334" y="405"/>
      <point x="303" y="405" type="curve" smooth="yes"/>
      <point x="235" y="405" type="line"/>
      <point x="235" y="351" type="line"/>
    </contour>
  </outline>
</glyph>
<glyph name="seven.sc" format="2">
  <advance width="551"/>
  <outline>
    <contour>
      <point x="38" y="432" type="line"/>
      <point x="428" y="432" type="line"/>
      <point x="394" y="471" type="line"/>
      <point x="234" y="343"/>
      <point x="174" y="170"/>
      <point x="174" y="0" type="curve"/>
      <point x="339" y="0" type="line"/>
      <point x="340" y="145"/>
      <point x="371" y="314"/>
      <point x="518" y="440" type="curve"/>
      <point x="518" y="560" type="line"/>
      <point x="38" y="560" type="line"/>
    </contour>
  </outline>
</glyph>
<glyph name="seven.tf" format="2">
  <advance width="604"/>
  <outline>
    <contour>
      <point x="38" y="525" type="line"/>
      <point x="487" y="525" type="line"/>
      <point x="457" y="570" type="line"/>
      <point x="277" y="408"/>
      <point x="186" y="235"/>
      <point x="186" y="0" type="curve"/>
      <point x="358" y="0" type="line"/>
      <point x="358" y="237"/>
      <point x="411" y="372"/>
      <point x="569" y="538" type="curve"/>
      <point x="569" y="660" type="line"/>
      <point x="38" y="660" type="line"/>
    </contour>
  </outline>
</glyph>
<glyph name="seven.tosf" format="2">
  <advance width="604"/>
  <outline>
    <contour>
      <point x="42" y="430" type="line"/>
      <point x="483" y="430" type="line"/>
      <point x="446" y="470" type="line"/>
      <point x="263" y="303"/>
      <point x="182" y="116"/>
      <point x="182" y="-100" type="curve"/>
      <point x="351" y="-100" type="line"/>
      <point x="351" y="103"/>
      <point x="403" y="278"/>
      <point x="568" y="438" type="curve"/>
      <point x="568" y="560" type="line"/>
      <point x="42" y="560" type="line"/>
    </contour>
  </outline>
</glyph>
<glyph name="six.osf" format="2">
  <advance width="596"/>
  <outline>
    <contour>
      <point x="40" y="330" type="curve" smooth="yes"/>
      <point x="40" y="110"/>
      <point x="142" y="-10"/>
      <point x="316" y="-10" type="curve" smooth="yes"/>
      <point x="469" y="-10"/>
      <point x="564" y="69"/>
      <point x="564" y="206" type="curve" smooth="yes"/>
      <point x="564" y="334"/>
      <point x="475" y="411"/>
      <point x="355" y="411" type="curve" smooth="yes"/>
      <point x="289" y="411"/>
      <point x="219" y="382"/>
      <point x="196" y="322" type="curve"/>
      <point x="193" y="322" type="line"/>
      <point x="193" y="327"/>
      <point x="193" y="331"/>
      <point x="193" y="336" type="curve" smooth="yes"/>
      <point x="193" y="476"/>
      <point x="245" y="544"/>
      <point x="324" y="544" type="curve" smooth="yes"/>
      <point x="379" y="544"/>
      <point x="404" y="512"/>
      <point x="416" y="462" type="curve"/>
      <point x="555" y="515" type="line"/>
      <point x="523" y="630"/>
      <point x="436" y="670"/>
      <point x="326" y="670" type="curve" smooth="yes"/>
      <point x="159" y="670"/>
      <point x="40" y="558"/>
    </contour>
    <contour>
      <point x="412" y="205" type="curve" smooth="yes"/>
      <point x="412" y="144"/>
      <point x="378" y="110"/>
      <point x="318" y="110" type="curve" smooth="yes"/>
      <point x="259" y="110"/>
      <point x="222" y="146"/>
      <point x="222" y="204" type="curve" smooth="yes"/>
      <point x="222" y="262"/>
      <point x="259" y="298"/>
      <point x="318" y="298" type="curve" smooth="yes"/>
      <point x="378" y="298"/>
      <point x="412" y="265"/>
    </contour>
  </outline>
</glyph>
<glyph name="sterling.part.tf" format="2">
  <advance width="618"/>
  <outline>
    <contour>
      <point x="98" y="474" type="curve" smooth="yes"/>
      <point x="98" y="427"/>
      <point x="114" y="388"/>
      <point x="161" y="326" type="curve" smooth="yes"/>
      <point x="211" y="257"/>
      <point x="228" y="218"/>
      <point x="228" y="164" type="curve" smooth="yes"/>
      <point x="228" y="91"/>
      <point x="206" y="54"/>
      <point x="157" y="54" type="curve" smooth="yes"/>
      <point x="134" y="54"/>
      <point x="119" y="65"/>
      <point x="119" y="83" type="curve" smooth="yes"/>
      <point x="119" y="101"/>
      <point x="130" y="111"/>
      <point x="157" y="111" type="curve" smooth="yes"/>
      <point x="254" y="111"/>
      <point x="307" y="-10"/>
      <point x="431" y="-10" type="curve" smooth="yes"/>
      <point x="530" y="-10"/>
      <point x="571" y="68"/>
      <point x="566" y="176" type="curve"/>
      <point x="462" y="188" type="line"/>
      <point x="464" y="131"/>
      <point x="445" y="105"/>
      <point x="402" y="105" type="curve" smooth="yes"/>
      <point x="316" y="105"/>
      <point x="299" y="176"/>
      <point x="158" y="176" type="curve" smooth="yes"/>
      <point x="86" y="176"/>
      <point x="31" y="142"/>
      <point x="31" y="83" type="curve" smooth="yes"/>
      <point x="31" y="24"/>
      <point x="82" y="-10"/>
      <point x="152" y="-10" type="curve" smooth="yes"/>
      <point x="274" y="-10"/>
      <point x="344" y="90"/>
      <point x="346" y="201" type="curve" smooth="yes"/>
      <point x="347" y="260"/>
      <point x="330" y="307"/>
      <point x="285" y="372" type="curve" smooth="yes"/>
      <point x="254" y="420"/>
      <point x="244" y="442"/>
      <point x="244" y="469" type="curve" smooth="yes"/>
      <point x="244" y="518"/>
      <point x="274" y="547"/>
      <point x="322" y="547" type="curve" smooth="yes"/>
      <point x="374" y="547"/>
      <point x="403" y="516"/>
      <point x="414" y="442" type="curve"/>
      <point x="549" y="496" type="line"/>
      <point x="523" y="614"/>
      <point x="457" y="670"/>
      <point x="329" y="670" type="curve" smooth="yes"/>
      <point x="178" y="670"/>
      <point x="98" y="579"/>
    </contour>
  </outline>
</glyph>
<glyph name="swash_bttmleft" format="2">
  <advance width="439"/>
  <outline>
    <contour>
      <point x="408" y="110" type="curve" smooth="yes"/>
      <point x="408" y="202" type="line"/>
      <point x="255" y="202" type="line"/>
      <point x="255" y="111" type="line" smooth="yes"/>
      <point x="255" y="51"/>
      <point x="221" y="17"/>
      <point x="159" y="17" type="curve" smooth="yes"/>
      <point x="102" y="17"/>
      <point x="67" y="42"/>
      <point x="47" y="96" type="curve"/>
      <point x="-16" y="-8" type="line"/>
      <point x="18" y="-77"/>
      <point x="76" y="-110"/>
      <point x="179" y="-110" type="curve" smooth="yes"/>
      <point x="320" y="-110"/>
      <point x="408" y="-38"/>
    </contour>
  </outline>
</glyph>
<glyph name="t.swsh" format="2">
  <advance width="515"/>
  <anchor x="159" y="250" name="center"/>
  <anchor x="253" y="0" name="bottom"/>
  <anchor x="184" y="730" name="top"/>
  <anchor x="290" y="0" name="bottomC"/>
  <anchor x="337" y="767" name="topright"/>
  <anchor x="393" y="13" name="ogonek"/>
  <outline>
    <contour>
      <point x="99" y="612" type="line"/>
      <point x="99" y="150" type="line" smooth="yes"/>
      <point x="100" y="34"/>
      <point x="170" y="-10"/>
      <point x="283" y="-10" type="curve" smooth="yes"/>
      <point x="335" y="-10"/>
      <point x="391" y="5"/>
      <point x="424" y="28" type="curve"/>
      <point x="407" y="133" type="line"/>
      <point x="387" y="119"/>
      <point x="366" y="111"/>
      <point x="335" y="111" type="curve" smooth="yes"/>
      <point x="293" y="111"/>
      <point x="269" y="130"/>
      <point x="269" y="178" type="curve" smooth="yes"/>
      <point x="269" y="659" type="line"/>
    </contour>
    <contour>
      <point x="402" y="500" type="curve" smooth="yes"/>
      <point x="13" y="500" type="line"/>
      <point x="13" y="379" type="line"/>
      <point x="408" y="379" type="line" smooth="yes"/>
      <point x="503" y="379"/>
      <point x="565" y="399"/>
      <point x="610" y="450" type="curve"/>
      <point x="559" y="546" type="line"/>
      <point x="517" y="510"/>
      <point x="476" y="500"/>
    </contour>
  </outline>
</glyph>
<glyph name="three.sc" format="2">
  <advance width="552"/>
  <outline>
    <contour>
      <point x="44" y="422" type="curve"/>
      <point x="190" y="378" type="line"/>
      <point x="193" y="421"/>
      <point x="220" y="446"/>
      <point x="267" y="446" type="curve" smooth="yes"/>
      <point x="314" y="446"/>
      <point x="336" y="422"/>
      <point x="335" y="388" type="curve" smooth="yes"/>
      <point x="335" y="348"/>
      <point x="310" y="327"/>
      <point x="259" y="327" type="curve" smooth="yes"/>
      <point x="227" y="327" type="line"/>
      <point x="227" y="231" type="line"/>
      <point x="270" y="231" type="line" smooth="yes"/>
      <point x="322" y="231"/>
      <point x="347" y="217"/>
      <point x="347" y="177" type="curve" smooth="yes"/>
      <point x="347" y="138"/>
      <point x="317" y="114"/>
      <point x="269" y="114" type="curve" smooth="yes"/>
      <point x="209" y="114"/>
      <point x="185" y="139"/>
      <point x="179" y="192" type="curve"/>
      <point x="27" y="133" type="line"/>
      <point x="63" y="30"/>
      <point x="145" y="-8"/>
      <point x="277" y="-8" type="curve" smooth="yes"/>
      <point x="410" y="-8"/>
      <point x="508" y="59"/>
      <point x="508" y="161" type="curve" smooth="yes"/>
      <point x="508" y="254"/>
      <point x="432" y="282"/>
      <point x="384" y="281" type="curve"/>
      <point x="384" y="283" type="line"/>
      <point x="426" y="284"/>
      <point x="496" y="313"/>
      <point x="496" y="412" type="curve" smooth="yes"/>
      <point x="496" y="497"/>
      <point x="420" y="568"/>
      <point x="278" y="568" type="curve" smooth="yes"/>
      <point x="159" y="568"/>
      <point x="59" y="519"/>
    </contour>
  </outline>
</glyph>
<glyph name="three.tf" format="2">
  <advance width="604"/>
  <outline>
    <contour>
      <point x="56" y="499" type="curve"/>
      <point x="205" y="448" type="line"/>
      <point x="209" y="512"/>
      <point x="246" y="537"/>
      <point x="297" y="537" type="curve" smooth="yes"/>
      <point x="344" y="537"/>
      <point x="374" y="510"/>
      <point x="374" y="459" type="curve" smooth="yes"/>
      <point x="373" y="408"/>
      <point x="342" y="383"/>
      <point x="285" y="383" type="curve" smooth="yes"/>
      <point x="255" y="383" type="line"/>
      <point x="255" y="274" type="line"/>
      <point x="292" y="274" type="line" smooth="yes"/>
      <point x="355" y="274"/>
      <point x="386" y="255"/>
      <point x="387" y="204" type="curve" smooth="yes"/>
      <point x="388" y="154"/>
      <point x="352" y="123"/>
      <point x="297" y="123" type="curve" smooth="yes"/>
      <point x="237" y="123"/>
      <point x="201" y="148"/>
      <point x="195" y="221" type="curve"/>
      <point x="40" y="154" type="line"/>
      <point x="77" y="38"/>
      <point x="162" y="-10"/>
      <point x="301" y="-10" type="curve" smooth="yes"/>
      <point x="447" y="-10"/>
      <point x="554" y="66"/>
      <point x="554" y="180" type="curve" smooth="yes"/>
      <point x="554" y="297"/>
      <point x="464" y="330"/>
      <point x="417" y="330" type="curve"/>
      <point x="417" y="333" type="line"/>
      <point x="454" y="333"/>
      <point x="541" y="374"/>
      <point x="541" y="485" type="curve" smooth="yes"/>
      <point x="541" y="597"/>
      <point x="457" y="670"/>
      <point x="308" y="670" type="curve" smooth="yes"/>
      <point x="180" y="670"/>
      <point x="78" y="622"/>
    </contour>
  </outline>
</glyph>
<glyph name="u.sc" format="2">
  <advance width="657"/>
  <anchor x="328" y="560" name="top"/>
  <anchor x="461" y="14" name="ogonek"/>
  <anchor x="329" y="0" name="bottom"/>
  <anchor x="329" y="0" name="bottomC"/>
  <outline>
    <contour>
      <point x="428" y="560" type="line"/>
      <point x="428" y="230" type="line" smooth="yes"/>
      <point x="428" y="156"/>
      <point x="397" y="122"/>
      <point x="328" y="122" type="curve" smooth="yes"/>
      <point x="261" y="122"/>
      <point x="229" y="156"/>
      <point x="229" y="230" type="curve" smooth="yes"/>
      <point x="229" y="560" type="line"/>
      <point x="59" y="560" type="line"/>
      <point x="59" y="234" type="line" smooth="yes"/>
      <point x="59" y="76"/>
      <point x="147" y="-8"/>
      <point x="328" y="-8" type="curve" smooth="yes"/>
      <point x="510" y="-8"/>
      <point x="597" y="76"/>
      <point x="597" y="234" type="curve" smooth="yes"/>
      <point x="597" y="560" type="line"/>
    </contour>
  </outline>
</glyph>
<glyph name="uni20BD.tf" format="2">
  <advance width="604"/>
  <outline>
    <contour>
      <point x="200" y="660" type="line"/>
      <point x="200" y="534" type="line"/>
      <point x="329" y="534" type="line" smooth="yes"/>
      <point x="393" y="534"/>
      <point x="423" y="504"/>
      <point x="423" y="443" type="curve" smooth="yes"/>
      <point x="423" y="383"/>
      <point x="393" y="352"/>
      <point x="329" y="352" type="curve" smooth="yes"/>
      <point x="22" y="352" type="line"/>
      <point x="22" y="268" type="line"/>
      <point x="343" y="268" type="line" smooth="yes"/>
      <point x="503" y="268"/>
      <point x="589" y="334"/>
      <point x="589" y="464" type="curve" smooth="yes"/>
      <point x="589" y="583"/>
      <point x="503" y="660"/>
      <point x="343" y="660" type="curve" smooth="yes"/>
    </contour>
    <contour>
      <point x="104" y="660" type="line"/>
      <point x="104" y="0" type="line"/>
      <point x="265" y="0" type="line"/>
      <point x="265" y="660" type="line"/>
    </contour>
    <contour>
      <point x="413" y="207" type="line"/>
      <point x="22" y="207" type="line"/>
      <point x="22" y="129" type="line"/>
      <point x="413" y="129" type="line"/>
    </contour>
  </outline>
</glyph>
<glyph name="whiteSmallSquare.case" format="2">
  <advance width="804"/>
  <outline>
    <contour>
      <point x="734" y="0" type="line"/>
      <point x="734" y="660" type="line"/>
      <point x="70" y="660" type="line"/>
      <point x="70" y="0" type="line"/>
    </contour>
    <contour>
      <point x="191" y="549" type="line"/>
      <point x="613" y="549" type="line"/>
      <point x="613" y="111" type="line"/>
      <point x="191" y="111" type="line"/>
    </contour>
  </outline>
</glyph>
<glyph name="y.sc" format="2">
  <advance width="594"/>
  <anchor x="297" y="560" name="top"/>
  <anchor x="382" y="0" name="ogonek"/>
  <anchor x="297" y="0" name="bottom"/>
  <anchor x="382" y="0" name="bottomC"/>
  <outline>
    <contour>
      <point x="212" y="0" type="line"/>
      <point x="382" y="0" type="line"/>
      <point x="382" y="206" type="line"/>
      <point x="591" y="560" type="line"/>
      <point x="422" y="560" type="line"/>
      <point x="340" y="406" type="line"/>
      <point x="300" y="322" type="line"/>
      <point x="259" y="406" type="line"/>
      <point x="178" y="560" type="line"/>
      <point x="3" y="560" type="line"/>
      <point x="212" y="206" type="line"/>
    </contour>
  </outline>
</glyph>
<glyph name="ydieresis.titl.sc" format="2">
  <advance width="595"/>
  <outline>
    <contour>
      <point x="477" y="619" type="curve" smooth="yes"/>
      <point x="477" y="666"/>
      <point x="446" y="694"/>
      <point x="393" y="694" type="curve" smooth="yes"/>
      <point x="342" y="694"/>
      <point x="311" y="666"/>
      <point x="311" y="619" type="curve" smooth="yes"/>
      <point x="311" y="573"/>
      <point x="342" y="545"/>
      <point x="393" y="545" type="curve" smooth="yes"/>
      <point x="446" y="545"/>
      <point x="477" y="573"/>
    </contour>
    <contour>
      <point x="287" y="619" type="curve" smooth="yes"/>
      <point x="287" y="666"/>
      <point x="256" y="694"/>
      <point x="203" y="694" type="curve" smooth="yes"/>
      <point x="152" y="694"/>
      <point x="121" y="666"/>
      <point x="121" y="619" type="curve" smooth="yes"/>
      <point x="121" y="573"/>
      <point x="152" y="545"/>
      <point x="203" y="545" type="curve" smooth="yes"/>
      <point x="256" y="545"/>
      <point x="287" y="573"/>
    </contour>
    <contour>
      <point x="423" y="560" type="line"/>
      <point x="342" y="406" type="line"/>
      <point x="301" y="322" type="line"/>
      <point x="261" y="406" type="line"/>
      <point x="179" y="560" type="line"/>
      <point x="5" y="560" type="line"/>
      <point x="214" y="206" type="line"/>
      <point x="214" y="0" type="line"/>
      <point x="384" y="0" type="line"/>
      <point x="384" y="206" type="line"/>
      <point x="593" y="560" type="line"/>
    </contour>
  </outline>
</glyph>
<glyph name="z.sc" format="2">
  <advance width="586"/>
  <anchor x="288" y="560" name="top"/>
  <anchor x="550" y="0" name="ogonek"/>
  <anchor x="288" y="0" name="bottom"/>
  <anchor x="288" y="0" name="bottomC"/>
  <outline>
    <contour>
      <point x="295" y="190" type="line"/>
      <point x="541" y="447" type="line"/>
      <point x="541" y="560" type="line"/>
      <point x="37" y="560" type="line"/>
      <point x="37" y="435" type="line"/>
      <point x="448" y="435" type="line"/>
      <point x="416" y="486" type="line"/>
      <point x="293" y="378" type="line"/>
      <point x="43" y="111" type="line"/>
      <point x="43" y="0" type="line"/>
      <point x="550" y="0" type="line"/>
      <point x="550" y="125" type="line"/>
      <point x="129" y="125" type="line"/>
      <point x="153" y="65" type="line"/>
    </contour>
  </outline>
</glyph>
<glyph name="zero.osf" format="2">
  <advance width="616"/>
  <outline>
    <contour>
      <point x="40" y="280" type="curve" smooth="yes"/>
      <point x="40" y="88"/>
      <point x="129" y="-10"/>
      <point x="308" y="-10" type="curve" smooth="yes"/>
      <point x="487" y="-10"/>
      <point x="576" y="88"/>
      <point x="576" y="280" type="curve" smooth="yes"/>
      <point x="576" y="472"/>
      <point x="487" y="570"/>
      <point x="308" y="570" type="curve" smooth="yes"/>
      <point x="129" y="570"/>
      <point x="40" y="472"/>
    </contour>
    <contour>
      <point x="409" y="280" type="curve" smooth="yes"/>
      <point x="409" y="161"/>
      <point x="377" y="110"/>
      <point x="308" y="110" type="curve" smooth="yes"/>
      <point x="239" y="110"/>
      <point x="207" y="161"/>
      <point x="207" y="280" type="curve" smooth="yes"/>
      <point x="207" y="399"/>
      <point x="239" y="450"/>
      <point x="308" y="450" type="curve" smooth="yes"/>
      <point x="377" y="450"/>
      <point x="409" y="399"/>
    </contour>
  </outline>
</glyph>
<glyph name="zero.osf.zero" format="2">
  <advance width="616"/>
  <outline>
    <contour>
      <point x="453" y="475" type="line"/>
      <point x="382" y="514" type="line"/>
      <point x="166" y="78" type="line"/>
      <point x="241" y="46" type="line"/>
    </contour>
    <component base="zero.osf"/>
  </outline>
</glyph>
